<?xml version="1.0" standalone="no"?>
<!DOCTYPE svg PUBLIC "-//W3C//DTD SVG 1.1//EN" "http://www.w3.org/Graphics/SVG/1.1/DTD/svg11.dtd" >
<svg xmlns="http://www.w3.org/2000/svg" xmlns:xlink="http://www.w3.org/1999/xlink" version="1.1">
<metadata>
Created by FontForge 20170731 at Tue Apr 26 01:40:26 2022
 By Aleksey,,,
Copyright (c) 2019 by ATK Studio. All rights reserved.
</metadata>
<defs>
<font id="CygnitoMono" horiz-adv-x="1228" >
  <font-face 
    font-family="Cygnito Mono"
    font-weight="400"
    font-stretch="normal"
    units-per-em="2048"
    panose-1="2 0 5 6 0 0 0 2 0 4"
    ascent="1638"
    descent="-410"
    x-height="1122"
    cap-height="1434"
    bbox="53 -422 1323 1839"
    underline-thickness="102"
    underline-position="-409"
    unicode-range="U+0020-263A"
  />
<missing-glyph 
 />
    <glyph glyph-name=".notdef" 
 />
    <glyph glyph-name=".notdef" 
 />
    <glyph glyph-name=".null" horiz-adv-x="0" 
 />
    <glyph glyph-name="nonmarkingreturn" 
 />
    <glyph glyph-name="space" unicode=" " 
 />
    <glyph glyph-name="exclam" unicode="!" 
d="M520 367v1011l55 56h78l54 -56v-1011l-54 -56h-78zM512 150l53 55h97l55 -55v-95l-55 -55h-97l-53 55v95z" />
    <glyph glyph-name="quotedbl" unicode="&#x22;" 
d="M676 1145v233l55 56h78l53 -56v-233l-53 -55h-78zM365 1378l55 56h76l55 -56v-233l-55 -55h-76l-55 55v233z" />
    <glyph glyph-name="numbersign" unicode="#" 
d="M676 1145v233l55 56h78l53 -56v-233l-39 -39l25 -23l39 39h78l53 -55v-78l-53 -55h-78l-39 39l-25 -23l39 -39v-389l-39 -39l25 -22l39 39h78l53 -56v-77l-53 -56h-78l-39 39l-25 -22l39 -39v-234l-53 -55h-78l-55 55v234l39 39l-23 22l-39 -39h-78l-38 39l-25 -22
l39 -39v-234l-55 -55h-76l-55 55v234l38 39l-24 22l-39 -39h-78l-53 56v77l53 56h78l39 -39l24 22l-38 39v389l38 39l-24 23l-39 -39h-78l-53 55v78l53 55h78l39 -39l24 23l-38 39v233l55 56h76l55 -56v-233l-39 -39l25 -23l38 39h78l39 -39l23 23zM512 483l25 -22l38 39h78
l39 -39l23 22l-39 39v389l39 39l-23 23l-39 -39h-78l-38 39l-25 -23l39 -39v-389z" />
    <glyph glyph-name="dollar" unicode="$" 
d="M809 1278l53 -55v-78l25 -23h78l53 -55v-78l-53 -55h-78l-56 55v78l-22 23h-78l-39 38l-24 -22l39 -39v-233l-39 -39l24 -23l39 39h78l53 -55v-78l25 -23h78l53 -55v-233l-53 -56h-78l-25 -22v-78l-53 -55h-78l-39 39l-24 -23l39 -39v-78l-54 -55h-78l-55 55v78l39 39
l-22 23l-41 -39h-76l-55 55v78l-25 22h-78l-53 56v77l53 56h78l55 -56v-77l25 -23h76l41 -39l22 23l-39 39v233l39 39l-22 23l-41 -39h-76l-55 55v78l-25 22h-78l-53 56v233l53 55h78l25 23v78l55 55h76l41 -39l22 23l-39 38v78l55 56h78l54 -56v-78l-39 -38l24 -23l39 39
h78zM831 367v233l-22 23h-78l-39 39l-24 -23l39 -39v-233l-39 -39l24 -23l39 39h78zM496 811l41 -39l22 23l-39 39v233l39 39l-22 22l-41 -38h-76l-25 -23v-233l25 -23h76z" />
    <glyph glyph-name="percent" unicode="%" 
d="M365 600l366 367h78l22 22v389l56 56h78l53 -56v-389l-53 -55h-78l-25 -23v-77l-366 -367h-76l-25 -23v-389l-55 -55h-78l-53 55v389l53 56h78l25 22v78zM848 39l-39 -39h-78l-55 55v78l39 39l-39 39v78l55 55h78l39 -39l39 39h78l53 -55v-78l-39 -39l39 -39v-78l-53 -55
h-78zM379 1128l-39 -38h-78l-53 55v78l39 39l-39 38v78l53 56h78l39 -39l41 39h76l55 -56v-78l-39 -38l39 -39v-78l-55 -55h-76zM379 1286l-23 -24l23 -23l24 23zM848 195l-25 -23l25 -22l22 22z" />
    <glyph glyph-name="ampersand" unicode="&#x26;" 
d="M262 776l-53 55v390l53 55h78l25 22v78l55 56h76l55 -56v-78l24 -22h78l54 -55v-390l-54 -55h-78l-24 -22v-78l24 -23h78l23 23v78l55 55h78l22 22v78l56 56h78l53 -56v-78l-53 -55h-78l-25 -22v-78l-53 -55h-78l-24 -23l311 -311v-78l-39 -39l39 -39v-78l-53 -55h-78
l-56 55v78l39 39l-350 350v78l-24 23h-76l-25 -23v-389l25 -23h233l54 -55v-78l-54 -55h-233l-55 55v78l-25 23h-78l-53 55v389l53 55h78l25 23v78l-25 22h-78zM395 1221v-390l25 -22h76l24 22v390l-24 22h-76z" />
    <glyph glyph-name="quotesingle" unicode="'" 
d="M520 1145v233l55 56h78l54 -56v-233l-54 -55h-78z" />
    <glyph glyph-name="parenleft" unicode="(" 
d="M365 367v700l55 55h76l24 23v78l55 55h78l23 22v78l55 56h78l53 -56v-78l-53 -55h-78l-24 -22v-78l-54 -55h-78l-24 -23v-700l24 -23h78l54 -55v-78l24 -23h78l53 -55v-78l-53 -55h-78l-55 55v78l-23 23h-78l-55 55v78l-24 22h-76z" />
    <glyph glyph-name="parenright" unicode=")" 
d="M862 367l-53 -56h-78l-24 -22v-78l-54 -55h-78l-24 -23v-78l-55 -55h-76l-55 55v78l55 55h76l24 23v78l55 55h78l23 23v700l-23 23h-78l-55 55v78l-24 22h-76l-55 55v78l55 56h76l55 -56v-78l24 -22h78l54 -55v-78l24 -23h78l53 -55v-700z" />
    <glyph glyph-name="asterisk" unicode="*" 
d="M831 1223l56 55h78l53 -55v-78l-53 -55h-78l-25 -23v-78l25 -22h78l53 -56v-77l-53 -56h-78l-56 56v77l-22 23h-78l-39 39l-24 -23l39 -39v-233l-54 -55h-78l-55 55v233l39 39l-22 23l-41 -39h-76l-25 -23v-77l-55 -56h-78l-53 56v77l53 56h78l25 22v78l-25 23h-78
l-53 55v78l53 55h78l55 -55v-78l25 -23h76l41 -39l22 23l-39 39v233l55 56h78l54 -56v-233l-39 -39l24 -23l39 39h78l22 23v78z" />
    <glyph glyph-name="plus" unicode="+" 
d="M520 1067l55 55h78l54 -55v-233l-39 -39l24 -23l39 39h234l53 -55v-78l-53 -55h-234l-39 39l-24 -23l39 -39v-233l-54 -56h-78l-55 56v233l39 39l-22 23l-41 -39h-234l-53 55v78l53 55h234l41 -39l22 23l-39 39v233z" />
    <glyph glyph-name="comma" unicode="," 
d="M598 133l39 39l-25 23l-39 -39h-77l-54 55v78l54 55h77l39 -39l39 39h78l55 -55v-78l-39 -39l39 -39v-78l-55 -55h-78l-22 -23v-77l-56 -56h-77l-54 56v77l54 56h77l25 22v78z" />
    <glyph glyph-name="hyphen" unicode="-" 
d="M965 623h-703l-53 55v78l53 55h703l53 -55v-78z" />
    <glyph glyph-name="period" unicode="." 
d="M612 39l-39 -39h-77l-54 55v78l39 39l-39 39v78l54 55h77l39 -39l41 39h76l55 -55v-78l-39 -39l39 -39v-78l-55 -55h-76zM612 195l-22 -23l22 -22l25 22z" />
    <glyph glyph-name="slash" unicode="/" 
d="M365 600l366 367h78l22 22v389l56 56h78l53 -56v-389l-53 -55h-78l-25 -23v-77l-366 -367h-76l-25 -23v-389l-55 -55h-78l-53 55v389l53 56h78l25 22v78z" />
    <glyph glyph-name="zero" unicode="0" 
d="M420 1434h389l55 -56v-78l23 -22h78l55 -55v-1012l-55 -55h-78l-23 -23v-78l-55 -55h-389l-55 55v78l-23 23h-78l-55 55v1012l55 55h78l23 22v78zM381 506l-23 -23l39 -39v-233l23 -23h389l22 23v545l39 39l-22 22l-350 -350h-78zM809 1245h-389l-23 -22v-545l-39 -39
l23 -23l350 351h78l39 -39l22 22l-39 39v234z" />
    <glyph glyph-name="one" unicode="1" 
d="M535 1130l-39 -38h-78l-53 53v78l53 55h78l39 -39l24 23l-39 41v75l55 56h76l56 -56v-1167l-39 -39l22 -22l41 38h78l53 -55v-78l-53 -55h-391l-53 55v78l53 55h78l39 -38l24 22l-39 39v856l39 39z" />
    <glyph glyph-name="two" unicode="2" 
d="M809 1434l55 -56v-78l23 -22h78l55 -55v-234l-55 -55h-78l-23 -23v-77l-366 -367h-78l-23 -23v-233l-39 -39l23 -22l39 38h545l55 -55v-78l-55 -55h-701l-55 55v389l55 56h78l23 22v78l366 367h78l22 22v234l-22 22h-389l-23 -22v-78l-55 -55h-78l-55 55v78l55 55h78
l23 22v78l55 56h389z" />
    <glyph glyph-name="three" unicode="3" 
d="M864 55l-55 -55h-389l-55 55v78l-23 23h-78l-55 55v78l55 55h78l55 -55v-78l23 -23h389l22 23v389l-22 23h-389l-55 55v78l55 55h389l22 23v389l-22 22h-389l-23 -22v-78l-55 -55h-78l-55 55v78l55 55h78l23 22v78l55 56h389l55 -56v-78l23 -22h78l55 -55v-389l-55 -56
h-78l-23 -22v-78l23 -23h78l55 -55v-389l-55 -55h-78l-23 -23v-78z" />
    <glyph glyph-name="four" unicode="4" 
d="M397 1378v-544l23 -23h389l39 -39l22 23l-39 39v544l56 56h78l55 -56v-1323l-55 -55h-78l-56 55v545l39 39l-22 23l-39 -39h-389l-55 55v78l-23 22h-78l-55 56v544l55 56h78z" />
    <glyph glyph-name="five" unicode="5" 
d="M864 55l-55 -55h-389l-55 55v78l-23 23h-78l-55 55v78l55 55h78l55 -55v-78l23 -23h389l22 23v389l-22 23h-389l-55 55v78l-23 22h-78l-55 56v544l55 56h701l55 -56v-78l-55 -55h-545l-39 39l-23 -22l39 -39v-389l23 -23h389l55 -55v-78l23 -23h78l55 -55v-389l-55 -55
h-78l-23 -23v-78z" />
    <glyph glyph-name="six" unicode="6" 
d="M809 1434l55 -56v-78l23 -22h78l55 -55v-78l-55 -55h-78l-56 55v78l-22 22h-389l-23 -22v-389l-39 -39l23 -23l39 39h389l55 -55v-78l23 -23h78l55 -55v-389l-55 -55h-78l-23 -23v-78l-55 -55h-389l-55 55v78l-23 23h-78l-55 55v1012l55 55h78l23 22v78l55 56h389z
M420 188h389l22 23v389l-22 23h-389l-39 39l-23 -23l39 -39v-389z" />
    <glyph glyph-name="seven" unicode="7" 
d="M676 1067l55 55h78l22 23v78l39 39l-22 22l-39 -39h-545l-55 55v78l55 56h701l55 -56v-233l-55 -55h-78l-23 -23v-78l-55 -55h-78l-22 -23v-856l-56 -55h-78l-55 55v856l55 56h78l23 22v78z" />
    <glyph glyph-name="eight" unicode="8" 
d="M864 55l-55 -55h-389l-55 55v78l-23 23h-78l-55 55v389l55 55h78l23 23v78l-23 22h-78l-55 56v389l55 55h78l23 22v78l55 56h389l55 -56v-78l23 -22h78l55 -55v-389l-55 -56h-78l-23 -22v-78l23 -23h78l55 -55v-389l-55 -55h-78l-23 -23v-78zM809 1245h-389l-23 -22v-389
l23 -23h389l22 23v389zM831 600l-22 23h-389l-23 -23v-389l23 -23h389l22 23v389z" />
    <glyph glyph-name="nine" unicode="9" 
d="M864 55l-55 -55h-389l-55 55v78l-23 23h-78l-55 55v78l55 55h78l55 -55v-78l23 -23h389l22 23v389l39 39l-22 23l-39 -39h-389l-55 55v78l-23 22h-78l-55 56v389l55 55h78l23 22v78l55 56h389l55 -56v-78l23 -22h78l55 -55v-1012l-55 -55h-78l-23 -23v-78zM870 795
l-39 39v389l-22 22h-389l-23 -22v-389l23 -23h389l39 -39z" />
    <glyph glyph-name="colon" unicode=":" 
d="M614 662l-39 -39h-77l-56 55v78l39 39l-39 39v77l56 56h77l39 -39l39 39h78l53 -56v-77l-39 -39l39 -39v-78l-53 -55h-78zM614 39l-39 -39h-77l-56 55v78l39 39l-39 39v78l56 55h77l39 -39l39 39h78l53 -55v-78l-39 -39l39 -39v-78l-53 -55h-78zM614 195l-24 -23l24 -22
l23 22zM614 817l-24 -22l24 -23l23 23z" />
    <glyph glyph-name="semicolon" unicode=";" 
d="M598 133l39 39l-23 23l-39 -39h-77l-56 55v78l56 55h77l39 -39l39 39h78l53 -55v-78l-39 -39l39 -39v-78l-53 -55h-78l-24 -23v-77l-54 -56h-77l-56 56v77l56 56h77l23 22v78zM614 662l-39 -39h-77l-56 55v78l39 39l-39 39v77l56 56h77l39 -39l39 39h78l53 -56v-77
l-39 -39l39 -39v-78l-53 -55h-78zM614 817l-24 -22l24 -23l23 23z" />
    <glyph glyph-name="less" unicode="&#x3c;" 
d="M442 911l367 367h78l53 -55v-78l-367 -367h-75l-25 -22v-78l25 -23h75l367 -366v-78l-53 -55h-78l-367 366v78l-24 23h-76l-55 55v78l55 55h76l24 23v77z" />
    <glyph glyph-name="equal" unicode="=" 
d="M965 934h-703l-53 55v78l53 55h703l53 -55v-78zM209 444l53 56h703l53 -56v-77l-53 -56h-703l-53 56v77z" />
    <glyph glyph-name="greater" unicode="&#x3e;" 
d="M784 911v-77l25 -23h76l55 -55v-78l-55 -55h-76l-25 -23v-78l-366 -366h-78l-53 55v78l366 366h76l25 23v78l-25 22h-76l-366 367v78l53 55h78z" />
    <glyph glyph-name="question" unicode="?" 
d="M520 367v389l55 55h78l23 23v77l55 56h78l22 22v234l-22 22h-389l-25 -22v-78l-55 -55h-78l-53 55v78l53 55h78l25 22v78l55 56h389l53 -56v-78l25 -22h78l53 -55v-234l-53 -55h-78l-25 -23v-77l-53 -56h-78l-24 -22v-389l-54 -56h-78zM512 150l53 55h97l55 -55v-95
l-55 -55h-97l-53 55v95z" />
    <glyph glyph-name="at" unicode="@" 
d="M831 522v701l-22 22h-389l-25 -22v-1012l25 -23h545l53 -55v-78l-53 -55h-545l-55 55v78l-25 23h-78l-53 55v1012l53 55h78l25 22v78l55 56h389l53 -56v-78l25 -22h78l53 -55v-701l-53 -55h-78l-25 -23v-77l-53 -56h-234l-55 56v544l55 56h78l54 -56v-389l-39 -39l24 -22
l39 39h78z" />
    <glyph glyph-name="A" unicode="A" 
d="M864 1300l23 -22h78l55 -55v-1170l-55 -53h-78l-53 53v545l38 41l-24 23l-39 -39h-389l-39 39l-23 -23l39 -41v-545l-55 -53h-78l-55 53v1170l55 55h78l23 22v78l55 56h389l55 -56v-78zM834 1223l-25 22h-389l-23 -22v-389l-39 -39l23 -25l39 39h389l39 -39l24 25l-38 39
v389z" />
    <glyph glyph-name="B" unicode="B" 
d="M864 131v-78l-55 -53h-545l-55 53v1325l55 56h545l55 -56v-78l23 -22h78l55 -55v-389l-55 -56h-78l-23 -22v-78l23 -25h78l55 -55v-389l-55 -53h-78zM834 1223l-25 22h-389l-39 39l-23 -22l39 -39v-389l-39 -39l23 -25l39 39h389l25 25v389zM834 209v389l-25 25h-389
l-39 39l-23 -23l39 -41v-389l-39 -39l23 -23l39 39h389z" />
    <glyph glyph-name="C" unicode="C" 
d="M834 1223l-25 22h-389l-23 -22v-1014l23 -23h389l25 23v78l53 55h78l55 -55v-78l-55 -53h-78l-23 -25v-78l-55 -53h-389l-55 53v78l-23 25h-78l-55 53v1014l55 55h78l23 22v78l55 56h389l55 -56v-78l23 -22h78l55 -55v-78l-55 -55h-78l-53 55v78z" />
    <glyph glyph-name="D" unicode="D" 
d="M887 156l-23 -25v-78l-55 -53h-545l-55 53v1325l55 56h545l55 -56v-78l23 -22h78l55 -55v-1014l-55 -53h-78zM834 1223l-25 22h-389l-39 39l-23 -22l39 -39v-1014l-39 -39l23 -23l39 39h389l25 23v1014z" />
    <glyph glyph-name="E" unicode="E" 
d="M209 53v1325l55 56h701l55 -56v-78l-55 -55h-545l-39 39l-23 -22l39 -39v-389l-39 -39l23 -25l39 39h389l55 -53v-78l-55 -55h-389l-39 39l-23 -23l39 -41v-389l-39 -39l23 -23l39 39h545l55 -55v-78l-55 -53h-701z" />
    <glyph glyph-name="F" unicode="F" 
d="M209 53v1325l55 56h701l55 -56v-78l-55 -55h-545l-39 39l-23 -22l39 -39v-389l-39 -39l23 -25l39 39h389l55 -53v-78l-55 -55h-389l-39 39l-23 -23l39 -41v-545l-55 -53h-78z" />
    <glyph glyph-name="G" unicode="G" 
d="M209 1223l55 55h78l23 22v78l55 56h389l55 -56v-78l23 -22h78l55 -55v-78l-55 -55h-78l-53 55v78l-25 22h-389l-23 -22v-1014l23 -23h389l25 23v389l38 41l-24 23l-39 -39h-234l-53 55v78l53 53h390l55 -53v-547l-55 -53h-78l-23 -25v-78l-55 -53h-389l-55 53v78l-23 25
h-78l-55 53v1014z" />
    <glyph glyph-name="H" unicode="H" 
d="M834 834v544l53 56h78l55 -56v-1325l-55 -53h-78l-53 53v545l38 41l-24 23l-39 -39h-389l-39 39l-23 -23l39 -41v-545l-55 -53h-78l-55 53v1325l55 56h78l55 -56v-544l-39 -39l23 -25l39 39h389l39 -39l24 25z" />
    <glyph glyph-name="I" unicode="I" 
d="M520 1223l39 39l-22 22l-41 -39h-76l-55 55v78l55 56h389l53 -56v-78l-53 -55h-78l-39 39l-24 -22l39 -39v-1012l-39 -39l24 -25l39 39h78l53 -55v-76l-53 -55h-389l-55 55v76l55 55h76l41 -39l22 25l-39 39v1012z" />
    <glyph glyph-name="J" unicode="J" 
d="M834 1223l38 39l-24 22l-39 -39h-389l-55 55v78l55 56h545l55 -56v-1169l-55 -53h-78l-23 -25v-78l-55 -53h-389l-55 53v78l-23 25h-78l-55 53v78l55 55h78l55 -55v-78l23 -23h389l25 23v1014z" />
    <glyph glyph-name="K" unicode="K" 
d="M381 817l-23 -22l39 -39v-703l-55 -53h-78l-55 53v1325l55 56h78l55 -56v-389l-39 -39l23 -24l506 508h78l55 -56v-78l-467 -466l22 -25h234l55 -53v-78l23 -25h78l55 -55v-545l-55 -53h-78l-53 53v545l-25 25h-234l-53 55v78l-24 22h-78z" />
    <glyph glyph-name="L" unicode="L" 
d="M209 53v1325l55 56h78l55 -56v-1169l-39 -39l23 -23l39 39h545l55 -55v-78l-55 -53h-701z" />
    <glyph glyph-name="M" unicode="M" 
d="M848 1128l-39 -38h-78l-22 -23v-233l-56 -56h-78l-53 56v233l-24 23h-78l-39 38l-23 -22l39 -39v-1014l-55 -53h-78l-55 53v1325l55 56h78l55 -56v-78l-39 -38l23 -25l39 41h78l55 -55v-78l22 -25h78l25 25v78l53 55h78l39 -41l24 25l-38 38v78l55 56h76l55 -56v-1325
l-55 -53h-76l-55 53v1014l38 39z" />
    <glyph glyph-name="N" unicode="N" 
d="M381 1128l-23 -22l39 -39v-1014l-55 -53h-78l-55 53v1325l55 56h78l55 -56v-78l-39 -38l23 -25l39 41h78l350 -352l24 24l-38 39v389l55 56h76l55 -56v-1325l-55 -53h-76l-55 53v703l38 39l-24 22l-39 -39h-78z" />
    <glyph glyph-name="O" unicode="O" 
d="M809 0h-389l-53 53v78l-25 25h-78l-55 53v1014l55 55h78l25 22v78l53 56h389l55 -56v-78l25 -22h76l55 -55v-1014l-55 -53h-76l-25 -25v-78zM834 1223l-25 22h-389l-23 -22v-1014l23 -23h389l25 23v1014z" />
    <glyph glyph-name="P" unicode="P" 
d="M889 778l-25 -22v-78l-55 -55h-389l-39 39l-23 -23l39 -41v-545l-55 -53h-78l-55 53v1325l55 56h545l55 -56v-78l25 -22h76l55 -55v-389l-55 -56h-76zM834 1223l-25 22h-389l-39 39l-23 -22l39 -39v-389l-39 -39l23 -25l39 39h389l25 25v389z" />
    <glyph glyph-name="Q" unicode="Q" 
d="M862 287v-78l25 -23h76l55 -55v-78l-55 -53h-76l-56 53v78l-24 25h-78l-22 -25v-78l-56 -53h-233l-53 53v78l-25 25h-78l-53 53v1014l53 55h78l25 22v78l53 56h389l55 -56v-78l25 -22h76l55 -55v-856l-55 -56h-76zM831 1223l-24 22h-389l-23 -22v-1014l23 -23h233l25 23
v78l-25 24h-78l-53 56v75l53 56h78l56 -56v-75l22 -25h78l24 25v856z" />
    <glyph glyph-name="R" unicode="R" 
d="M831 53v545l-24 25h-389l-39 39l-23 -23l39 -41v-545l-55 -53h-78l-53 53v1325l53 56h545l55 -56v-78l25 -22h76l55 -55v-389l-55 -56h-76l-25 -22v-78l25 -25h76l55 -55v-545l-55 -53h-76zM831 1223l-24 22h-389l-39 39l-23 -22l39 -39v-389l-39 -39l23 -25l39 39h389
l24 25v389z" />
    <glyph glyph-name="S" unicode="S" 
d="M831 1223l-24 22h-389l-23 -22v-389l23 -25h389l55 -53v-78l25 -25h78l53 -55v-389l-53 -53h-78l-25 -25v-78l-55 -53h-389l-53 53v78l-25 25h-78l-53 53v78l53 55h78l55 -55v-78l23 -23h389l24 23v389l-24 25h-389l-53 55v78l-25 22h-78l-53 56v389l53 55h78l25 22v78
l53 56h389l55 -56v-78l25 -22h78l53 -55v-78l-53 -55h-78l-56 55v78z" />
    <glyph glyph-name="T" unicode="T" 
d="M520 1223l39 39l-24 22l-39 -39h-234l-53 55v78l53 56h703l53 -56v-78l-53 -55h-234l-41 39l-22 -22l39 -39v-1170l-56 -53h-78l-53 53v1170z" />
    <glyph glyph-name="U" unicode="U" 
d="M831 209v1169l56 56h78l53 -56v-1169l-53 -53h-78l-25 -25v-78l-55 -53h-389l-53 53v78l-25 25h-78l-53 53v1169l53 56h78l55 -56v-1169l23 -23h389z" />
    <glyph glyph-name="V" unicode="V" 
d="M651 186l25 23v78l55 55h76l24 25v1011l56 56h78l53 -56v-1011l-53 -56h-78l-25 -24v-78l-55 -53h-76l-24 -25v-78l-56 -53h-78l-53 53v78l-24 25h-78l-53 53v78l-25 24h-78l-53 56v1011l53 56h78l55 -56v-1011l23 -25h78l55 -55v-78l22 -23h78z" />
    <glyph glyph-name="W" unicode="W" 
d="M831 209v1169l56 56h78l53 -56v-1169l-53 -53h-78l-25 -25v-78l-55 -53h-76l-55 53v78l-25 25h-78l-22 -25v-78l-55 -53h-78l-53 53v78l-25 25h-78l-53 53v1169l53 56h78l55 -56v-1169l23 -23h78l24 23v389l53 55h78l56 -55v-389l24 -23h76z" />
    <glyph glyph-name="X" unicode="X" 
d="M831 989v389l56 56h78l53 -56v-389l-53 -55h-78l-25 -23v-77l-55 -56h-76l-24 -22l155 -158v-76l25 -24h78l53 -56v-389l-53 -53h-78l-56 53v389l-24 25h-76l-156 156l-24 -25v-76l-55 -55h-78l-23 -25v-389l-55 -53h-78l-53 53v389l53 56h78l25 24v76l53 55h78l24 25
l-155 156v77l-25 23h-78l-53 55v389l53 56h78l55 -56v-389l23 -24h78l155 -156l25 25v77l55 54h76z" />
    <glyph glyph-name="Y" unicode="Y" 
d="M831 989v389l56 56h78l55 -56v-389l-55 -55h-78l-25 -23v-77l-53 -56h-78l-24 -22v-701l-54 -55h-78l-55 55v701l-22 22h-78l-55 56v77l-25 23h-76l-55 55v389l55 56h76l55 -56v-389l25 -22h78l53 -56v-77l24 -23h78l23 23v77l55 56h78z" />
    <glyph glyph-name="Z" unicode="Z" 
d="M831 1223l39 39l-22 22l-39 -39h-545l-55 55v78l55 56h701l55 -56v-389l-55 -55h-78l-25 -23v-77l-364 -367h-78l-25 -23v-233l-39 -39l25 -25l39 39h545l55 -55v-76l-55 -55h-701l-55 55v389l55 54h76l25 24v78l366 367h78l22 22v234z" />
    <glyph glyph-name="bracketleft" unicode="[" 
d="M512 1262l39 -39v-1012l-39 -39l25 -22l38 38h234l53 -55v-78l-53 -55h-389l-55 55v1323l55 56h389l53 -56v-78l-53 -55h-234l-38 41z" />
    <glyph glyph-name="backslash" unicode="\" 
d="M496 967l366 -367v-78l25 -22h78l53 -56v-389l-53 -55h-78l-56 55v389l-24 23h-76l-366 367v77l-25 23h-78l-53 55v389l53 56h78l55 -56v-389l23 -22h78z" />
    <glyph glyph-name="bracketright" unicode="]" 
d="M676 1223l39 39l-25 24l-39 -41h-233l-53 55v78l53 56h389l55 -56v-1323l-55 -55h-389l-53 55v78l53 55h233l39 -38l25 22l-39 39v1012z" />
    <glyph glyph-name="asciicircum" unicode="^" 
d="M365 1223l55 55h76l24 22v78l55 56h78l54 -56v-78l24 -22h78l53 -55v-78l25 -23h78l53 -55v-78l-53 -55h-78l-56 55v78l-22 23h-78l-55 55v78l-23 22h-78l-24 -22v-78l-55 -55h-76l-25 -23v-78l-55 -55h-78l-53 55v78l53 55h78l25 23v78z" />
    <glyph glyph-name="underscore" unicode="_" 
d="M965 0h-703l-53 55v78l53 55h703l53 -55v-78z" />
    <glyph glyph-name="grave" unicode="`" 
d="M627 1747v-53l16 -17h55l37 -39v-55l-37 -39h-55l-39 39v55l-16 17h-56l-38 39v53l38 39h56z" />
    <glyph glyph-name="a" unicode="a" 
d="M420 0l-53 55v78l-25 23h-78l-55 55v233l55 56h78l25 22v78l53 55h389l39 -39l24 23l-38 39v233l-25 23h-389l-23 -23v-77l-55 -56h-78l-55 56v77l55 56h78l25 22v78l53 55h389l55 -55v-78l25 -22h76l55 -56v-856l-55 -55h-545zM420 188h389l39 -38l24 22l-38 39v233
l38 39l-24 23l-39 -39h-389l-23 -23v-233z" />
    <glyph glyph-name="b" unicode="b" 
d="M862 55l-53 -55h-547l-53 55v1325l53 54h78l55 -54v-233l-39 -39l23 -25l39 39h391l53 -53v-78l25 -24h78l53 -56v-700l-53 -53h-78l-25 -25v-78zM356 172l23 -22l39 38h391l22 23v700l-22 25h-391l-39 39l-23 -23l39 -41v-700z" />
    <glyph glyph-name="c" unicode="c" 
d="M862 55l-53 -55h-391l-53 55v78l-25 25h-78l-53 53v700l53 56h78l25 24v78l53 53h391l53 -53v-78l25 -24h78l53 -56v-75l-53 -56h-78l-56 56v75l-22 25h-391l-23 -25v-700l23 -23h391l22 23v78l56 55h78l53 -55v-78l-53 -53h-78l-25 -25v-78z" />
    <glyph glyph-name="d" unicode="d" 
d="M418 0l-53 55v78l-25 25h-78l-53 53v700l53 56h78l25 24v78l53 53h391l39 -39l22 25l-39 39v233l56 54h78l53 -54v-1325l-53 -55h-547zM418 188h391l39 -38l22 22l-39 39v700l39 41l-22 23l-39 -39h-391l-23 -25v-700z" />
    <glyph glyph-name="e" unicode="e" 
d="M862 55l-53 -55h-391l-53 55v78l-25 25h-78l-53 53v700l53 56h78l25 24v78l53 53h391l53 -53v-78l25 -24h78l53 -56v-233l-53 -53h-78l-25 -25v-78l-53 -53h-391l-39 39l-23 -25l39 -39v-233l23 -23h391l22 23v78l56 55h78l53 -55v-78l-53 -53h-78l-25 -25v-78zM418 655
h391l22 23v233l-22 25h-391l-23 -25v-233l-39 -39l23 -23z" />
    <glyph glyph-name="f" unicode="f" 
d="M520 1380l55 54h390l53 -54v-77l-53 -56h-390l-24 -22v-234l-39 -39l25 -24l38 39h234l53 -56v-75l-53 -56h-234l-38 39l-25 -24l39 -39v-701l-55 -55h-76l-55 55v701l38 39l-24 24l-39 -39h-78l-53 56v75l53 56h78l39 -39l24 24l-38 39v234l55 53h76l24 25v77z" />
    <glyph glyph-name="g" unicode="g" 
d="M831 -23l39 39l-22 25l-39 -41h-389l-55 55v78l-25 25h-78l-53 53v700l53 56h78l25 24v78l55 53h545l53 -53v-1169l-53 -56h-78l-25 -22v-78l-53 -55h-389l-55 55v78l55 55h389l22 23v77zM809 936h-389l-25 -25v-700l25 -23h389l39 -38l22 22l-39 39v700l39 41l-22 23z
" />
    <glyph glyph-name="h" unicode="h" 
d="M862 1069v-78l25 -24h78l53 -56v-856l-53 -55h-78l-56 55v856l-22 25h-389l-41 39l-23 -23l39 -41v-856l-55 -55h-78l-53 55v1325l53 54h78l55 -54v-233l-39 -39l23 -25l41 39h389z" />
    <glyph glyph-name="i" unicode="i" 
d="M692 973l-24 -23l39 -39v-700l-39 -39l24 -22l39 38h78l53 -55v-78l-53 -55h-389l-55 55v78l55 55h76l41 -38l22 22l-39 39v700l39 39l-22 23l-41 -39h-76l-55 55v78l55 55h389l53 -55v-78l-53 -55h-78zM512 1436l53 55h97l55 -55v-95l-55 -55h-97l-53 55v95z" />
    <glyph glyph-name="j" unicode="j" 
d="M676 -100v1011l39 39l-23 25l-39 -39h-78l-55 53v78l55 55h390l53 -55v-78l-53 -53h-78l-39 39l-25 -25l39 -39v-1011l-53 -56h-78l-24 -22v-78l-54 -55h-233l-55 55v78l-25 22h-78l-53 56v77l53 56h78l55 -56v-77l25 -23h233zM668 1436l53 55h96l55 -55v-95l-55 -55h-96
l-53 55v95z" />
    <glyph glyph-name="k" unicode="k" 
d="M379 664l-23 -25l39 -39v-545l-55 -55h-78l-53 55v1325l53 54h78l55 -54v-544l-39 -41l23 -23l352 350h78l53 -53v-78l-311 -313l24 -23h234l53 -55v-78l25 -22h78l53 -56v-389l-53 -55h-78l-56 55v389l-22 25h-234l-55 53v78l-24 25h-76z" />
    <glyph glyph-name="l" unicode="l" 
d="M520 1223l39 39l-22 22l-41 -39h-76l-55 55v78l55 56h233l54 -56v-1167l-39 -39l24 -22l39 38h78l53 -55v-78l-53 -55h-234l-55 55v1168z" />
    <glyph glyph-name="m" unicode="m" 
d="M809 1122l55 -55v-78l23 -22h78l55 -56v-856l-55 -55h-78l-56 55v856l-22 23h-78l-39 39l-22 -23l39 -39v-389l-56 -55h-78l-55 55v389l39 39l-22 23l-39 -39h-78l-39 39l-23 -23l39 -39v-856l-55 -55h-78l-55 55v1012l55 55h545z" />
    <glyph glyph-name="n" unicode="n" 
d="M862 1067v-78l25 -22h78l53 -56v-856l-53 -55h-78l-56 55v856l-24 23h-389l-39 39l-23 -23l39 -39v-856l-55 -55h-78l-53 55v1012l53 55h545z" />
    <glyph glyph-name="o" unicode="o" 
d="M418 0l-53 55v78l-25 23h-78l-53 55v700l53 56h78l25 22v78l53 55h389l55 -55v-78l25 -22h78l53 -56v-700l-53 -55h-78l-25 -23v-78l-55 -55h-389zM418 188h389l24 23v700l-24 23h-389l-23 -23v-700z" />
    <glyph glyph-name="p" unicode="p" 
d="M862 55l-55 -55h-389l-39 39l-23 -23l39 -39v-233l-55 -55h-78l-53 55v1323l53 55h545l55 -55v-78l25 -22h78l53 -56v-700l-53 -55h-78l-25 -23v-78zM379 973l-23 -23l39 -39v-700l-39 -39l23 -22l39 38h389l24 23v700l-24 23h-389z" />
    <glyph glyph-name="q" unicode="q" 
d="M418 0l-53 55v78l-25 23h-78l-53 55v700l53 56h78l25 22v78l53 55h547l53 -55v-1323l-53 -55h-78l-56 55v233l39 39l-22 23l-41 -39h-389zM870 950l-22 23l-41 -39h-389l-23 -23v-700l23 -23h389l41 -38l22 22l-39 39v700z" />
    <glyph glyph-name="r" unicode="r" 
d="M862 1067v-78l25 -22h78l53 -56v-77l-53 -56h-78l-56 56v77l-22 23h-236l-22 -23v-77l-55 -56h-78l-39 39l-23 -22l39 -39v-701l-55 -55h-78l-53 55v1012l53 55h78l55 -55v-78l-39 -39l23 -22l39 39h78l24 22v78l53 55h236z" />
    <glyph glyph-name="s" unicode="s" 
d="M862 600v-78l25 -22h78l53 -56v-233l-53 -55h-78l-25 -23v-78l-53 -55h-391l-53 55v78l-25 23h-78l-53 55v78l53 55h78l55 -55v-78l23 -23h391l22 23v233l-22 23h-391l-53 55v78l-25 23h-78l-53 55v233l53 56h78l25 22v78l53 55h391l53 -55v-78l25 -22h78l53 -56v-77
l-53 -56h-78l-56 56v77l-22 23h-391l-23 -23v-233l23 -23h391z" />
    <glyph glyph-name="t" unicode="t" 
d="M520 55v78l-24 23h-78l-53 55v700l38 39l-24 23l-39 -39h-78l-53 55v78l53 55h78l39 -39l24 23l-38 39v78l53 55h78l55 -55v-78l-39 -39l23 -23l40 39h234l53 -55v-78l-53 -55h-234l-40 39l-23 -23l39 -39v-700l24 -23h234l22 23v78l56 55h78l53 -55v-78l-53 -55h-78
l-25 -23v-78l-53 -55h-234z" />
    <glyph glyph-name="u" unicode="u" 
d="M365 55v78l-25 23h-78l-53 55v856l53 55h78l55 -55v-856l23 -23h391l39 -38l22 22l-39 39v856l56 55h78l53 -55v-1012l-53 -55h-547z" />
    <glyph glyph-name="v" unicode="v" 
d="M575 188h78l23 23v78l55 55h78l22 23v700l56 55h78l53 -55v-700l-53 -56h-78l-25 -22v-78l-53 -55h-78l-24 -23v-78l-54 -55h-78l-55 55v78l-24 23h-76l-55 55v78l-25 22h-78l-53 56v700l53 55h78l55 -55v-700l25 -23h76l55 -55v-78z" />
    <glyph glyph-name="w" unicode="w" 
d="M420 0l-55 55v78l-25 23h-78l-53 55v856l53 55h78l55 -55v-856l25 -23h76l24 23v389l55 55h78l54 -55v-389l24 -23h78l22 23v856l56 55h78l53 -55v-856l-53 -55h-78l-25 -23v-78l-53 -55h-78l-55 55v78l-23 23h-78l-24 -23v-78l-55 -55h-76z" />
    <glyph glyph-name="x" unicode="x" 
d="M831 834v233l56 55h78l53 -55v-233l-53 -56h-78l-25 -22v-78l-53 -55h-78l-24 -23l155 -156v-77l25 -23h78l53 -55v-234l-53 -55h-78l-56 55v234l-22 22h-78l-156 156l-24 -23v-77l-55 -56h-76l-25 -22v-234l-55 -55h-78l-53 55v234l53 55h78l25 23v77l55 56h76l24 22
l-155 156v78l-25 22h-78l-53 56v233l53 55h78l55 -55v-233l25 -23h76l157 -156l23 23v78l55 55h78z" />
    <glyph glyph-name="y" unicode="y" 
d="M831 -23l39 39l-22 23l-39 -39h-389l-55 55v78l-25 23h-78l-53 55v856l53 55h78l55 -55v-856l25 -23h389l39 -38l22 22l-39 39v856l56 55h78l53 -55v-1167l-53 -56h-78l-25 -22v-78l-53 -55h-389l-55 55v78l55 55h389l22 23v77z" />
    <glyph glyph-name="z" unicode="z" 
d="M831 911l39 39l-22 23l-39 -39h-547l-53 55v78l53 55h703l53 -55v-233l-53 -56h-78l-25 -22v-78l-366 -367h-76l-25 -22v-78l-39 -39l23 -22l41 38h545l53 -55v-78l-53 -55h-703l-53 55v234l53 55h78l25 23v77l366 367h78l22 23v77z" />
    <glyph glyph-name="braceleft" unicode="{" 
d="M676 55v78l-23 23h-78l-55 55v389l-24 23h-76l-55 55v78l55 55h76l24 23v389l55 55h78l23 22v78l55 56h78l53 -56v-78l-53 -55h-78l-24 -22v-389l-54 -56h-78l-24 -22v-78l24 -23h78l54 -55v-389l24 -23h78l53 -55v-78l-53 -55h-78z" />
    <glyph glyph-name="bar" unicode="|" 
d="M520 -100v1634l55 55h78l54 -55v-1634l-54 -56h-78z" />
    <glyph glyph-name="braceright" unicode="}" 
d="M551 55l-55 -55h-76l-55 55v78l55 55h76l24 23v389l55 55h78l23 23v78l-23 22h-78l-55 56v389l-24 22h-76l-55 55v78l55 56h76l55 -56v-78l24 -22h78l54 -55v-389l24 -23h78l53 -55v-78l-53 -55h-78l-24 -23v-389l-54 -55h-78l-24 -23v-78z" />
    <glyph glyph-name="asciitilde" unicode="~" 
d="M365 911l55 56h233l54 -56v-77l24 -23h78l22 23v77l56 56h78l53 -56v-77l-53 -56h-78l-25 -22v-78l-53 -55h-78l-55 55v78l-23 22h-233l-25 -22v-78l-55 -55h-78l-53 55v78l53 55h78l25 23v77z" />
    <glyph glyph-name="exclamdown" unicode="&#xa1;" 
d="M520 756l55 55h78l54 -55v-1012l-54 -55h-78l-55 55v1012zM512 973v94l53 55h97l55 -55v-94l-55 -55h-97z" />
    <glyph glyph-name="cent" unicode="&#xa2;" 
d="M862 211l-53 -55h-78l-39 39l-24 -23l39 -39v-78l-54 -55h-78l-55 55v78l39 39l-22 23l-41 -39h-76l-55 55v78l-25 22h-78l-53 56v700l53 55h78l25 23v78l55 55h76l41 -39l22 23l-39 38v78l55 56h78l54 -56v-78l-39 -38l24 -23l39 39h78l53 -55v-78l25 -23h78l53 -55v-78
l-53 -55h-78l-56 55v78l-22 23h-78l-39 38l-24 -22l39 -39v-700l-39 -39l24 -23l39 39h78l22 23v77l56 56h78l53 -56v-77l-53 -56h-78l-25 -22v-78zM559 328l-39 39v700l39 39l-22 22l-41 -38h-76l-25 -23v-700l25 -23h76l41 -39z" />
    <glyph glyph-name="sterling" unicode="&#xa3;" 
d="M520 1378l55 56h234l53 -56v-78l25 -22h78l53 -55v-234l-53 -55h-78l-56 55v234l-22 22h-234l-24 -22v-545l-39 -39l25 -23l38 39h234l53 -55v-78l-53 -55h-234l-38 39l-25 -23l39 -39v-233l-39 -39l25 -22l38 38h390l53 -55v-78l-53 -55h-703l-53 55v78l53 55h78l41 -38
l22 22l-38 39v233l38 39l-22 23l-41 -39h-78l-53 55v78l53 55h78l41 -39l22 23l-38 39v545l55 55h76l24 22v78z" />
    <glyph glyph-name="currency" unicode="&#xa4;" 
d="M887 311l-56 56v77l-22 23h-78l-39 39l-39 -39h-78l-38 39l-41 -39h-76l-25 -23v-77l-55 -56h-78l-53 56v77l53 56h78l25 22v78l38 39l-38 39v78l38 39l-38 39v77l-25 23h-78l-53 55v78l53 55h78l55 -55v-78l25 -22h76l41 -39l38 39h78l39 -39l39 39h78l22 22v78l56 55
h78l53 -55v-78l-53 -55h-78l-25 -23v-77l-39 -39l39 -39v-78l-39 -39l39 -39v-78l25 -22h78l53 -56v-77l-53 -56h-78zM653 655l39 -39l23 23l-39 39v78l39 39l-23 22l-39 -39h-78l-38 39l-25 -22l39 -39v-78l-39 -39l25 -23l38 39h78z" />
    <glyph glyph-name="yen" unicode="&#xa5;" 
d="M707 756v-78l-39 -39l24 -23l39 39h234l53 -55v-78l-53 -55h-234l-39 39l-24 -23l39 -39v-77l-39 -39l24 -23l39 39h234l53 -55v-78l-53 -55h-234l-39 39l-24 -23l39 -39v-78l-54 -55h-78l-55 55v78l39 39l-22 23l-41 -39h-234l-53 55v78l53 55h234l41 -39l22 23l-39 39
v77l39 39l-22 23l-41 -39h-234l-53 55v78l53 55h234l41 -39l22 23l-39 39v78l-24 22h-76l-55 56v77l-25 23h-78l-53 55v389l53 56h78l55 -56v-389l25 -22h76l55 -56v-77l24 -23h78l23 23v77l55 56h78l22 22v389l56 56h78l53 -56v-389l-53 -55h-78l-25 -23v-77l-53 -56h-78z
" />
    <glyph glyph-name="brokenbar" unicode="&#xa6;" 
d="M520 834v700l55 55h78l54 -55v-700l-54 -56h-78zM520 -100v700l55 55h78l54 -55v-700l-54 -56h-78z" />
    <glyph glyph-name="section" unicode="&#xa7;" 
d="M809 967l53 -56v-77l25 -23h78l53 -55v-234l-53 -55h-78l-25 -23v-77l25 -23h78l53 -55v-234l-53 -55h-78l-25 -23v-77l-53 -56h-389l-55 56v77l-25 23h-78l-53 55v78l53 55h78l55 -55v-78l25 -22h389l22 22v234l-22 22h-389l-55 56v77l-25 23h-78l-53 55v234l53 55h78
l25 23v77l-25 23h-78l-53 55v234l53 55h78l25 22v78l55 56h389l53 -56v-78l25 -22h78l53 -55v-78l-53 -55h-78l-56 55v78l-22 22h-389l-25 -22v-234l25 -22h389zM395 756v-234l25 -22h389l22 22v234l-22 22h-389z" />
    <glyph glyph-name="dieresis" unicode="&#xa8;" 
d="M657 1747l39 39h54l38 -39v-164l-38 -39h-54l-39 39v164zM438 1583v164l39 39h53l39 -39v-164l-39 -39h-53z" />
    <glyph glyph-name="copyright" unicode="&#xa9;" 
d="M881 350l-31 -31h-43l-12 -12v-43l-31 -31h-301l-31 31v43l-12 12h-43l-31 31v43l-12 13h-43l-31 30v43l-12 15h-43l-31 28v389l31 31h43l12 12v43l31 31h43l12 12v43l31 31h43l12 12v43l31 31h301l31 -31v-43l12 -12h43l31 -31v-43l12 -12h43l31 -31v-43l14 -12h43
l29 -31v-389l-29 -28h-43l-14 -15v-43l-31 -30h-43l-12 -13v-43zM291 924l-15 -13v-389l15 -12h43l31 -31v-43l12 -12h43l31 -31v-43l12 -12h301l12 12v43l31 31h43l14 12v43l29 31h43l14 12v389l-14 13h-43l-29 30v43l-14 13h-43l-31 30v43l-12 13h-301l-12 -13v-43
l-31 -30h-43l-12 -13v-43l-31 -30h-43zM432 522v389l31 31h43l12 12v43l31 31h129l31 -31v-43l12 -12h43l31 -31v-43l-31 -30h-43l-31 30v43l-12 13h-129l-12 -13v-389l12 -12h129l12 12v43l31 31h43l31 -31v-43l-31 -28h-43l-12 -15v-43l-31 -30h-129l-31 30v43l-12 15h-43
z" />
    <glyph glyph-name="ordfeminine" unicode="&#xaa;" 
d="M532 969l-22 22v33l-10 10h-31l-23 23v96l23 23h31l10 10v31l22 24h162l17 -16l10 8l-16 16v99l-11 8h-162l-8 -8v-33l-24 -23h-31l-23 23v33l23 22h31l10 8v33l22 23h162l23 -23v-33l10 -8h33l22 -22v-357l-22 -22h-228zM532 1047h162l17 -17l10 10l-16 17v96l16 16
l-10 9l-17 -15h-162l-8 -10v-96z" />
    <glyph glyph-name="guillemotleft" unicode="&#xab;" 
d="M365 911l55 56h76l24 22v78l55 55h78l54 -55v-78l-54 -55h-78l-24 -23v-77l-55 -56h-76l-25 -22v-234l25 -22h76l55 -56v-77l24 -23h78l54 -55v-78l-54 -55h-78l-55 55v78l-24 22h-76l-55 56v77l-25 23h-78l-53 55v234l53 55h78l25 23v77zM676 911l55 56h78l22 22v78
l56 55h78l53 -55v-78l-53 -55h-78l-25 -23v-77l-53 -56h-78l-24 -22v-234l24 -22h78l53 -56v-77l25 -23h78l53 -55v-78l-53 -55h-78l-56 55v78l-22 22h-78l-55 56v77l-23 23h-78l-55 55v234l55 55h78l23 23v77z" />
    <glyph glyph-name="logicalnot" unicode="&#xac;" 
d="M926 817l-39 -39h-703l-53 56v77l53 56h858l54 -56v-389l-54 -55h-77l-56 55v234l39 39z" />
    <glyph glyph-name="uni00AD" unicode="&#xad;" 
d="M965 623h-703l-53 55v78l53 55h703l53 -55v-78z" />
    <glyph glyph-name="registered" unicode="&#xae;" 
d="M813 799l-22 -25h-31l-10 -8v-33l-23 -22h-227l-23 22v33l-8 8h-33l-22 25v30l-11 11h-32l-23 22v33l-8 10h-33l-22 23v289l22 24h33l8 8v33l23 23h32l11 10v33l22 22h33l8 8v33l23 23h227l23 -23v-33l10 -8h31l22 -22v-33l10 -10h33l23 -23v-33l10 -8h31l22 -24v-289
l-22 -23h-31l-10 -10v-33l-23 -22h-33l-10 -11v-30zM371 1227l-9 -10v-289l9 -10h32l23 -23v-33l10 -10h33l23 -23v-30l8 -11h227l8 11v30l25 23h31l10 10v33l22 23h33l8 10v289l-8 10h-33l-22 22v33l-10 10h-31l-25 23v33l-8 8h-227l-8 -8v-33l-23 -23h-33l-10 -10v-33
l-23 -22h-32zM694 1098l-10 -11v-30l10 -10h33l23 -23v-162l-23 -22h-33l-22 22v162l-10 10h-97l-16 15l-10 -9l16 -16v-162l-23 -22h-32l-23 22v420l23 23h32l17 -17l16 17h97l22 -23v-33l10 -8h33l23 -24v-97l-23 -22h-33zM672 1217l-10 10h-97l-16 16l-10 -10l16 -16v-97
l-16 -16l10 -8l16 16h97l10 8v97z" />
    <glyph glyph-name="degree" unicode="&#xb0;" 
d="M381 1120v162l22 23h33l10 10v33l23 22h31l10 8v33l22 23h162l23 -23v-33l10 -8h33l22 -22v-33l9 -10h32l23 -23v-162l-23 -22h-32l-9 -11v-30l-22 -23h-33l-10 -10v-33l-23 -22h-162l-22 22v33l-10 10h-31l-23 23v30l-10 11h-33zM459 1120l10 -8h31l24 -25v-30l8 -10
h162l11 10v30l22 25h33l8 8v162l-8 10h-33l-22 23v33l-11 8h-162l-8 -8v-33l-24 -23h-31l-10 -10v-162z" />
    <glyph glyph-name="plusminus" unicode="&#xb1;" 
d="M965 0h-703l-53 55v78l53 55h703l53 -55v-78zM520 1067l55 55h78l54 -55v-233l-39 -39l24 -23l39 39h234l53 -55v-78l-53 -55h-234l-39 39l-24 -23l39 -39v-233l-54 -56h-78l-55 56v233l39 39l-22 23l-41 -39h-234l-53 55v78l53 55h234l41 -39l22 23l-39 39v233z" />
    <glyph glyph-name="twosuperior" unicode="&#xb2;" 
d="M717 1411v-33l10 -8h33l22 -22v-99l-22 -22h-33l-10 -10v-31l-152 -152h-33l-8 -10v-96l-16 -17l8 -10l16 17h228l22 -23v-33l-22 -22h-291l-23 22v162l23 23h31l10 10v30l152 154h32l11 8v99l-11 8h-162l-8 -8v-33l-24 -23h-31l-23 23v33l23 22h31l10 8v33l22 23h162z
" />
    <glyph glyph-name="threesuperior" unicode="&#xb3;" 
d="M717 862l-23 -22h-162l-22 22v33l-10 10h-31l-23 23v30l23 23h31l24 -23v-30l8 -10h162l11 10v159l-11 11h-162l-22 22v33l22 23h162l11 10v162l-11 8h-162l-8 -8v-33l-24 -23h-31l-23 23v33l23 22h31l10 8v33l22 23h162l23 -23v-33l10 -8h33l22 -22v-162l-22 -23h-33
l-10 -10v-33l10 -8h33l22 -25v-159l-22 -23h-33l-10 -10v-33z" />
    <glyph glyph-name="acute" unicode="&#xb4;" 
d="M602 1694v53l39 39h55l39 -39v-53l-39 -39h-55l-16 -17v-55l-39 -39h-56l-36 39v55l36 39h56z" />
    <glyph glyph-name="mu" unicode="&#xb5;" 
d="M676 289l55 55h78l39 -39l22 23l-39 39v700l56 55h78l53 -55v-1012l-53 -55h-78l-56 55v78l39 39l-22 23l-39 -39h-78l-24 -23v-78l-54 -55h-233l-41 39l-23 -23l39 -39v-233l-55 -55h-78l-53 55v1323l53 55h78l55 -55v-856l-39 -39l23 -22l41 38h233l23 23v78z" />
    <glyph glyph-name="paragraph" unicode="&#xb6;" 
d="M831 1223l39 39l-22 24l-39 -41h-78l-39 41l-24 -24l39 -39v-1168l-54 -55h-78l-55 55v545l39 39l-22 23l-41 -39h-76l-211 211v389l211 211h545l53 -56v-1323l-53 -55h-78l-56 55v1168z" />
    <glyph glyph-name="periodcentered" unicode="&#xb7;" 
d="M512 764l53 55h97l55 -55v-94l-55 -56h-97l-53 56v94z" />
    <glyph glyph-name="cedilla" unicode="&#xb8;" 
d="M530 -422l-36 39v55l-17 15h-55l-39 39v55l39 39h55l39 -39v-55l14 -17h166l17 17v55l-17 16h-55l-39 39v55l-16 17h-56l-36 37v55l36 39h56l39 -39v-55l16 -15h55l39 -39v-55l17 -16h53l39 -39v-55l-39 -39h-53l-17 -15v-55l-39 -39h-166z" />
    <glyph glyph-name="onesuperior" unicode="&#xb9;" 
d="M582 1309l-17 -17h-33l-22 23v33l22 22h33l17 -16l8 8l-15 16v33l23 23h31l24 -23v-483l-16 -17l8 -10l17 17h32l23 -23v-33l-23 -22h-162l-22 22v33l22 23h33l17 -17l8 10l-15 17v354l15 16z" />
    <glyph glyph-name="guillemotright" unicode="&#xbb;" 
d="M807 967l55 -56v-77l25 -23h78l53 -55v-234l-53 -55h-78l-25 -23v-77l-55 -56h-76l-24 -22v-78l-56 -55h-78l-53 55v78l53 55h78l25 23v77l55 56h76l24 22v234l-24 22h-76l-55 56v77l-25 23h-78l-53 55v78l53 55h78l56 -55v-78l24 -22h76zM496 967l55 -56v-77l22 -23h78
l56 -55v-234l-56 -55h-78l-22 -23v-77l-55 -56h-78l-23 -22v-78l-55 -55h-78l-53 55v78l53 55h78l25 23v77l53 56h78l24 22v234l-24 22h-78l-53 56v77l-25 23h-78l-53 55v78l53 55h78l55 -55v-78l23 -22h78z" />
    <glyph glyph-name="questiondown" unicode="&#xbf;" 
d="M651 811l56 -55v-389l-56 -56h-78l-22 -22v-78l-55 -55h-78l-23 -23v-233l23 -23h389l24 23v77l56 56h78l53 -56v-77l-53 -56h-78l-25 -22v-78l-55 -55h-389l-53 55v78l-25 22h-78l-53 56v233l53 55h78l25 23v78l53 55h78l24 23v389l53 55h78zM715 1067v-94l-53 -55h-97
l-55 55v94l55 55h97z" />
    <glyph glyph-name="Agrave" unicode="&#xc0;" 
d="M862 1303l25 -23h78l53 -55v-1168l-53 -55h-78l-56 55v545l39 39l-22 23l-39 -39h-389l-39 39l-25 -23l39 -39v-545l-55 -55h-78l-53 55v1168l53 55h78l25 23v77l55 56h389l53 -56v-77zM831 1225l-22 22h-389l-25 -22v-389l-39 -39l25 -25l39 39h389l39 -39l22 25l-39 39
v389zM627 1747v-53l16 -17h55l37 -39v-55l-37 -39h-55l-39 39v55l-16 17h-56l-38 39v53l38 39h56z" />
    <glyph glyph-name="Aacute" unicode="&#xc1;" 
d="M862 1303l25 -23h78l53 -55v-1168l-53 -55h-78l-56 55v545l39 39l-22 23l-39 -39h-389l-39 39l-25 -23l39 -39v-545l-55 -55h-78l-53 55v1168l53 55h78l25 23v77l55 56h389l53 -56v-77zM831 1225l-22 22h-389l-25 -22v-389l-39 -39l25 -25l39 39h389l39 -39l22 25l-39 39
v389zM602 1694v53l39 39h55l39 -39v-53l-39 -39h-55l-16 -17v-55l-39 -39h-56l-36 39v55l36 39h56z" />
    <glyph glyph-name="Acircumflex" unicode="&#xc2;" 
d="M862 1300l25 -22h78l53 -55v-1168l-53 -55h-78l-56 55v545l39 39l-22 23l-39 -39h-389l-41 39l-23 -23l39 -39v-545l-55 -55h-78l-53 55v1168l53 55h78l25 22v78l55 56h389l53 -56v-78zM831 1223l-22 24h-389l-25 -24v-389l-39 -39l23 -23l41 39h389l39 -39l22 23l-39 39
v389zM438 1636l39 39h53l17 17v55l39 39h55l39 -39v-55l16 -17h54l38 -39v-53l-38 -39h-54l-39 39v53l-16 17h-55l-17 -17v-53l-39 -39h-53l-39 39v53z" />
    <glyph glyph-name="Atilde" unicode="&#xc3;" 
d="M862 1300l25 -22h78l53 -55v-1168l-53 -55h-78l-56 55v545l39 39l-22 23l-39 -39h-389l-41 39l-23 -23l39 -39v-545l-55 -55h-78l-53 55v1168l53 55h78l25 22v78l55 56h389l53 -56v-78zM831 1223l-22 24h-389l-25 -24v-389l-39 -39l23 -23l41 39h389l39 -39l22 23l-39 39
v389zM438 1747l39 39h164l39 -39v-55l16 -17h54l16 17v55l39 39h55l39 -39v-55l-39 -39h-55l-17 -17v-53l-38 -39h-54l-39 39v53l-16 17h-164l-16 -17v-53l-39 -39h-55l-39 39v53l39 39h55l16 17v55z" />
    <glyph glyph-name="Adieresis" unicode="&#xc4;" 
d="M862 1300l25 -22h78l53 -55v-1168l-53 -55h-78l-56 55v545l39 39l-22 23l-39 -39h-389l-41 39l-23 -23l39 -39v-545l-55 -55h-78l-53 55v1168l53 55h78l25 22v78l55 56h389l53 -56v-78zM831 1223l-22 24h-389l-25 -24v-389l-39 -39l23 -23l41 39h389l39 -39l22 23l-39 39
v389zM657 1747l39 39h54l38 -39v-164l-38 -39h-54l-39 39v164zM438 1583v164l39 39h53l39 -39v-164l-39 -39h-53z" />
    <glyph glyph-name="Aring" unicode="&#xc5;" 
d="M414 1563v96l22 24h33l8 9v32l23 23h32l11 10v31l22 24h97l22 -24v-31l10 -10h33l23 -23v-32l10 -9h31l22 -24v-96l-22 -23h-31l-10 -10v-31l-23 -22h-33l-10 -11v-32h125l53 -56v-78l25 -22h78l53 -55v-1168l-53 -55h-78l-56 55v545l39 39l-22 23l-39 -39h-389l-39 39
l-25 -23l39 -39v-545l-55 -55h-78l-53 55v1168l53 55h78l25 22v78l55 56h123v32l-11 11h-32l-23 22v31l-8 10h-33zM500 1669l-8 -10v-96l8 -11h32l23 -22v-31l10 -10h97l10 10v31l22 22h33l8 11v96l-8 10h-33l-22 23v32l-10 11h-97l-10 -11v-32l-23 -23h-32zM831 1223
l-22 24h-389l-25 -24v-389l-39 -39l25 -23l39 39h389l39 -39l22 23l-39 39v389z" />
    <glyph glyph-name="AE" unicode="&#xc6;" 
d="M365 1378l55 56h545l53 -56v-78l-53 -55h-234l-39 41l-24 -24l39 -39v-389l-39 -39l24 -23l39 39h234l53 -55v-78l-53 -55h-234l-39 39l-24 -23l39 -39v-389l-39 -39l24 -22l39 38h234l53 -55v-78l-53 -55h-390l-55 55v545l39 39l-22 23l-41 -39h-76l-41 39l-23 -23
l39 -39v-545l-55 -55h-78l-53 55v1168l53 55h78l25 22v78zM559 1262l-22 24l-41 -41h-76l-25 -22v-389l-39 -39l23 -23l41 39h76l41 -39l22 23l-39 39v389z" />
    <glyph glyph-name="Ccedilla" unicode="&#xc7;" 
d="M831 211v78l56 55h78l53 -55v-78l-53 -55h-78l-25 -23v-78l-53 -55h-184v-55l16 -17h55l39 -37v-55l17 -16h53l39 -39v-55l-39 -39h-53l-17 -17v-53l-39 -39h-166l-36 39v53l-17 17h-55l-39 39v55l39 39h55l37 -39v-55l16 -17h166l17 17v55l-17 16h-55l-39 39v55l-16 15
h-56l-36 39v55h-74l-55 55v78l-25 23h-78l-53 55v1012l53 55h78l25 22v78l55 56h389l53 -56v-78l25 -22h78l53 -55v-78l-53 -55h-78l-56 55v78l-22 24h-389l-25 -24v-1012l25 -23h389z" />
    <glyph glyph-name="Egrave" unicode="&#xc8;" 
d="M627 1747v-53l16 -17h55l37 -39v-55l-37 -39h-55l-39 39v55l-16 17h-56l-38 39v53l38 39h56zM209 53v1325l55 56h701l55 -56v-78l-55 -55h-545l-39 39l-23 -22l39 -39v-389l-39 -39l23 -25l39 39h389l55 -53v-78l-55 -55h-389l-39 39l-23 -23l39 -41v-389l-39 -39l23 -23
l39 39h545l55 -55v-78l-55 -53h-701z" />
    <glyph glyph-name="Eacute" unicode="&#xc9;" 
d="M602 1694v53l39 39h55l39 -39v-53l-39 -39h-55l-16 -17v-55l-39 -39h-56l-36 39v55l36 39h56zM209 53v1325l55 56h701l55 -56v-78l-55 -55h-545l-39 39l-23 -22l39 -39v-389l-39 -39l23 -25l39 39h389l55 -53v-78l-55 -55h-389l-39 39l-23 -23l39 -41v-389l-39 -39
l23 -23l39 39h545l55 -55v-78l-55 -53h-701z" />
    <glyph glyph-name="Ecircumflex" unicode="&#xca;" 
d="M438 1636l39 39h53l17 17v55l39 39h55l39 -39v-55l16 -17h54l38 -39v-53l-38 -39h-54l-39 39v53l-16 17h-55l-17 -17v-53l-39 -39h-53l-39 39v53zM209 53v1325l55 56h701l55 -56v-78l-55 -55h-545l-39 39l-23 -22l39 -39v-389l-39 -39l23 -25l39 39h389l55 -53v-78
l-55 -55h-389l-39 39l-23 -23l39 -41v-389l-39 -39l23 -23l39 39h545l55 -55v-78l-55 -53h-701z" />
    <glyph glyph-name="Edieresis" unicode="&#xcb;" 
d="M657 1747l39 39h54l38 -39v-164l-38 -39h-54l-39 39v164zM438 1583v164l39 39h53l39 -39v-164l-39 -39h-53zM209 53v1325l55 56h701l55 -56v-78l-55 -55h-545l-39 39l-23 -22l39 -39v-389l-39 -39l23 -25l39 39h389l55 -53v-78l-55 -55h-389l-39 39l-23 -23l39 -41v-389
l-39 -39l23 -23l39 39h545l55 -55v-78l-55 -53h-701z" />
    <glyph glyph-name="Igrave" unicode="&#xcc;" 
d="M627 1747v-53l16 -17h55l37 -39v-55l-37 -39h-55l-39 39v55l-16 17h-56l-38 39v53l38 39h56zM520 1223l39 39l-22 22l-41 -39h-76l-55 55v78l55 56h389l53 -56v-78l-53 -55h-78l-39 39l-24 -22l39 -39v-1012l-39 -39l24 -25l39 39h78l53 -55v-76l-53 -55h-389l-55 55v76
l55 55h76l41 -39l22 25l-39 39v1012z" />
    <glyph glyph-name="Iacute" unicode="&#xcd;" 
d="M602 1694v53l39 39h55l39 -39v-53l-39 -39h-55l-16 -17v-55l-39 -39h-56l-36 39v55l36 39h56zM520 1223l39 39l-22 22l-41 -39h-76l-55 55v78l55 56h389l53 -56v-78l-53 -55h-78l-39 39l-24 -22l39 -39v-1012l-39 -39l24 -25l39 39h78l53 -55v-76l-53 -55h-389l-55 55v76
l55 55h76l41 -39l22 25l-39 39v1012z" />
    <glyph glyph-name="Icircumflex" unicode="&#xce;" 
d="M438 1636l39 39h53l17 17v55l39 39h55l39 -39v-55l16 -17h54l38 -39v-53l-38 -39h-54l-39 39v53l-16 17h-55l-17 -17v-53l-39 -39h-53l-39 39v53zM520 1223l39 39l-22 22l-41 -39h-76l-55 55v78l55 56h389l53 -56v-78l-53 -55h-78l-39 39l-24 -22l39 -39v-1012l-39 -39
l24 -25l39 39h78l53 -55v-76l-53 -55h-389l-55 55v76l55 55h76l41 -39l22 25l-39 39v1012z" />
    <glyph glyph-name="Idieresis" unicode="&#xcf;" 
d="M657 1747l39 39h54l38 -39v-164l-38 -39h-54l-39 39v164zM438 1583v164l39 39h53l39 -39v-164l-39 -39h-53zM520 1223l39 39l-22 22l-41 -39h-76l-55 55v78l55 56h389l53 -56v-78l-53 -55h-78l-39 39l-24 -22l39 -39v-1012l-39 -39l24 -25l39 39h78l53 -55v-76l-53 -55
h-389l-55 55v76l55 55h76l41 -39l22 25l-39 39v1012z" />
    <glyph glyph-name="Eth" unicode="&#xd0;" 
d="M420 1434h389l53 -56v-78l25 -22h78l53 -55v-1012l-53 -55h-78l-25 -23v-78l-53 -55h-389l-55 55v545l38 39l-24 23l-39 -39h-78l-53 55v78l53 55h78l39 -39l24 23l-38 39v544zM831 211v1012l-22 22h-234l-38 41l-25 -24l39 -39v-389l-39 -39l25 -23l38 39h78l54 -55v-78
l-54 -55h-78l-38 39l-25 -23l39 -39v-389l-39 -39l25 -22l38 38h234z" />
    <glyph glyph-name="Ntilde" unicode="&#xd1;" 
d="M438 1747l39 39h164l39 -39v-55l16 -17h54l16 17v55l39 39h55l39 -39v-55l-39 -39h-55l-17 -17v-53l-38 -39h-54l-39 39v53l-16 17h-164l-16 -17v-53l-39 -39h-55l-39 39v53l39 39h55l16 17v55zM381 1128l-23 -22l39 -39v-1014l-55 -53h-78l-55 53v1325l55 56h78l55 -56
v-78l-39 -38l23 -25l39 41h78l350 -352l24 24l-38 39v389l55 56h76l55 -56v-1325l-55 -53h-76l-55 53v703l38 39l-24 22l-39 -39h-78z" />
    <glyph glyph-name="Ograve" unicode="&#xd2;" 
d="M627 1747v-53l16 -17h55l37 -39v-55l-37 -39h-55l-39 39v55l-16 17h-56l-38 39v53l38 39h56zM809 0h-389l-53 53v78l-25 25h-78l-55 53v1014l55 55h78l25 22v78l53 56h389l55 -56v-78l25 -22h76l55 -55v-1014l-55 -53h-76l-25 -25v-78zM834 1223l-25 22h-389l-23 -22
v-1014l23 -23h389l25 23v1014z" />
    <glyph glyph-name="Oacute" unicode="&#xd3;" 
d="M809 0h-389l-53 53v78l-25 25h-78l-55 53v1014l55 55h78l25 22v78l53 56h389l55 -56v-78l25 -22h76l55 -55v-1014l-55 -53h-76l-25 -25v-78zM834 1223l-25 22h-389l-23 -22v-1014l23 -23h389l25 23v1014zM602 1694v53l39 39h55l39 -39v-53l-39 -39h-55l-16 -17v-55
l-39 -39h-56l-36 39v55l36 39h56z" />
    <glyph glyph-name="Ocircumflex" unicode="&#xd4;" 
d="M438 1636l117 -110h53l17 16h55v205v-55l16 -17h54l38 -39v-53l-38 -39h-54l-39 39v53l-16 17h-55l-17 -17v-53l-39 -39h-53l-39 39v53zM887 -150h-389l-54 54v78l-24 24h-78l-55 53v1014l55 55h78l24 23v78l54 55h389l55 -55v-78l25 -23h75l56 -55v-1014l-56 -53h-75
l-25 -24v-78zM911 1073l-24 23h-389l-23 -23v-1014l23 -22h389l24 22v1014z" />
    <glyph glyph-name="Otilde" unicode="&#xd5;" 
d="M438 1747l39 39h164l39 -39v-55l16 -17h54l16 17v55l39 39h55l39 -39v-55l-39 -39h-55l-17 -17v-53l-38 -39h-54l-39 39v53l-16 17h-164l-16 -17v-53l-39 -39h-55l-39 39v53l39 39h55l16 17v55zM809 0h-389l-53 53v78l-25 25h-78l-55 53v1014l55 55h78l25 22v78l53 56
h389l55 -56v-78l25 -22h76l55 -55v-1014l-55 -53h-76l-25 -25v-78zM834 1223l-25 22h-389l-23 -22v-1014l23 -23h389l25 23v1014z" />
    <glyph glyph-name="Odieresis" unicode="&#xd6;" 
d="M657 1747l39 39h54l38 -39v-164l-38 -39h-54l-39 39v164zM438 1583v164l39 39h53l39 -39v-164l-39 -39h-53zM809 0h-389l-53 53v78l-25 25h-78l-55 53v1014l55 55h78l25 22v78l53 56h389l55 -56v-78l25 -22h76l55 -55v-1014l-55 -53h-76l-25 -25v-78zM834 1223l-25 22
h-389l-23 -22v-1014l23 -23h389l25 23v1014z" />
    <glyph glyph-name="multiply" unicode="&#xd7;" 
d="M831 989v78l56 55h78l53 -55v-78l-53 -55h-78l-25 -23v-77l-53 -56h-78l-24 -22l155 -156v-78l25 -22h78l53 -56v-77l-53 -56h-78l-56 56v77l-22 23h-78l-156 156l-24 -23v-78l-55 -55h-76l-25 -23v-77l-55 -56h-78l-53 56v77l53 56h78l25 22v78l55 55h76l24 23l-155 156
v77l-25 23h-78l-53 55v78l53 55h78l55 -55v-78l25 -22h76l157 -156l23 23v77l55 56h78z" />
    <glyph glyph-name="Oslash" unicode="&#xd8;" 
d="M53 289l53 55h78l39 -39l25 23l-39 39v856l53 55h78l25 22v78l53 56h391l53 -56v-78l25 -22h78l39 -39l38 39h78l54 -55v-78l-54 -55h-78l-38 38l-25 -22l39 -39v-856l-53 -55h-78l-25 -23v-78l-53 -55h-391l-53 55v78l-25 23h-78l-39 39l-39 -39h-78l-53 55v78zM356 639
l23 -23l352 351h78l39 -39l22 22l-39 39v234l-22 22h-391l-23 -22v-545zM379 506l-23 -23l39 -39v-233l23 -23h391l22 23v545l39 39l-22 22l-352 -350h-78z" />
    <glyph glyph-name="Ugrave" unicode="&#xd9;" 
d="M627 1747v-53l16 -17h55l37 -39v-55l-37 -39h-55l-39 39v55l-16 17h-56l-38 39v53l38 39h56zM831 209v1169l56 56h78l53 -56v-1169l-53 -53h-78l-25 -25v-78l-55 -53h-389l-53 53v78l-25 25h-78l-53 53v1169l53 56h78l55 -56v-1169l23 -23h389z" />
    <glyph glyph-name="Uacute" unicode="&#xda;" 
d="M831 209v1169l56 56h78l53 -56v-1169l-53 -53h-78l-25 -25v-78l-55 -53h-389l-53 53v78l-25 25h-78l-53 53v1169l53 56h78l55 -56v-1169l23 -23h389zM602 1694v53l39 39h55l39 -39v-53l-39 -39h-55l-16 -17v-55l-39 -39h-56l-36 39v55l36 39h56z" />
    <glyph glyph-name="Ucircumflex" unicode="&#xdb;" 
d="M438 1636l117 -110h53l17 16h55v205v-55l16 -17h54l38 -39v-53l-38 -39h-54l-39 39v53l-16 17h-55l-17 -17v-53l-39 -39h-53l-39 39v53zM909 59v1170l56 55h77l54 -55v-1170l-54 -53h-77l-25 -24v-78l-55 -54h-389l-54 54v78l-24 24h-78l-53 53v1170l53 55h78l55 -55
v-1170l23 -22h389z" />
    <glyph glyph-name="Udieresis" unicode="&#xdc;" 
d="M657 1747l39 39h54l38 -39v-164l-38 -39h-54l-39 39v164zM438 1583v164l39 39h53l39 -39v-164l-39 -39h-53zM831 209v1169l56 56h78l53 -56v-1169l-53 -53h-78l-25 -25v-78l-55 -53h-389l-53 53v78l-25 25h-78l-53 53v1169l53 56h78l55 -56v-1169l23 -23h389z" />
    <glyph glyph-name="Yacute" unicode="&#xdd;" 
d="M831 989v389l56 56h78l55 -56v-389l-55 -55h-78l-25 -23v-77l-53 -56h-78l-24 -22v-701l-54 -55h-78l-55 55v701l-22 22h-78l-55 56v77l-25 23h-76l-55 55v389l55 56h76l55 -56v-389l25 -22h78l53 -56v-77l24 -23h78l23 23v77l55 56h78zM602 1694v53l39 39h55l39 -39v-53
l-39 -39h-55l-16 -17v-55l-39 -39h-56l-36 39v55l36 39h56z" />
    <glyph glyph-name="Thorn" unicode="&#xde;" 
d="M965 811l55 -55v-389l-55 -56h-78l-25 -22v-78l-53 -55h-389l-39 39l-25 -23l39 -39v-78l-53 -55h-78l-55 55v1012l55 55h78l53 -55v-78l-39 -39l25 -22l39 39h389l53 -56v-77l25 -23h78zM356 328l25 -23l39 39h389l22 23v389l-22 22h-389l-39 39l-25 -22l39 -39v-389z
" />
    <glyph glyph-name="germandbls" unicode="&#xdf;" 
d="M676 989v234l-23 24h-233l-25 -24v-1168l-55 -55h-76l-55 55v1168l55 55h76l25 22v78l55 56h233l54 -56v-78l24 -22h78l53 -55v-234l-53 -55h-78l-24 -23v-77l24 -23h78l53 -55v-78l25 -23h78l55 -55v-389l-55 -55h-78l-25 -23v-78l-53 -55h-234l-55 55v78l55 55h234
l22 23v389l-22 23h-78l-55 55v78l-23 22h-78l-55 56v77l55 56h78z" />
    <glyph glyph-name="agrave" unicode="&#xe0;" 
d="M623 1436v-56l16 -16h55l39 -39v-55l-39 -39h-55l-39 39v55l-16 16h-56l-36 39v56l36 39h56zM365 55l53 -55h547l53 55v856l-53 56h-78l-25 22v78l-55 55h-389l-53 -55v-78l-25 -22h-78l-53 -56v-77l53 -56h78l55 56v77l23 23h389l24 -23v-233l39 -39l-22 -23l-41 39
h-389l-53 -55v-78l-25 -22h-78l-53 -56v-233l53 -55h78l25 -23v-78zM807 188h-389l-23 23v233l23 23h389l41 39l22 -23l-39 -39v-233l39 -39l-22 -22z" />
    <glyph glyph-name="aacute" unicode="&#xe1;" 
d="M602 1436l39 39h55l37 -39v-56l-37 -39h-55l-16 -16v-55l-39 -39h-56l-38 39v55l38 39h56l16 16v56zM365 55l53 -55h547l53 55v856l-53 56h-78l-25 22v78l-55 55h-389l-53 -55v-78l-25 -22h-78l-53 -56v-77l53 -56h78l55 56v77l23 23h389l24 -23v-233l39 -39l-22 -23
l-41 39h-389l-53 -55v-78l-25 -22h-78l-53 -56v-233l53 -55h78l25 -23v-78zM807 188h-389l-23 23v233l23 23h389l41 39l22 -23l-39 -39v-233l39 -39l-22 -22z" />
    <glyph glyph-name="acircumflex" unicode="&#xe2;" 
d="M365 55v78l-25 23h-78l-53 55v233l53 56h78l25 22v78l53 55h391l39 -39l22 23l-39 39v233l-22 23h-391l-23 -23v-77l-55 -56h-78l-53 56v77l53 56h78l25 22v78l53 55h391l53 -55v-78l25 -22h78l53 -56v-856l-53 -55h-547zM809 188l39 -38l22 22l-39 39v233l39 39l-22 23
l-39 -39h-391l-23 -23v-233l23 -23h391zM477 1364h53l17 16v56l39 39h55l39 -39v-56l16 -16h54l38 -39v-55l-38 -39h-54l-39 39v55l-16 16h-55l-17 -16v-55l-39 -39h-53l-39 39v55z" />
    <glyph glyph-name="atilde" unicode="&#xe3;" 
d="M438 1436l39 39h164l39 -39v-56l16 -16h54l16 16v56l39 39h55l39 -39v-56l-39 -39h-55l-17 -16v-55l-38 -39h-54l-39 39v55l-16 16h-164l-16 -16v-55l-39 -39h-55l-39 39v55l39 39h55l16 16v56zM365 55l53 -55h547l53 55v856l-53 56h-78l-25 22v78l-53 55h-391l-53 -55
v-78l-25 -22h-78l-53 -56v-77l53 -56h78l55 56v77l23 23h391l22 -23v-233l39 -39l-22 -23l-39 39h-391l-53 -55v-78l-25 -22h-78l-53 -56v-233l53 -55h78l25 -23v-78zM809 188h-391l-23 23v233l23 23h391l39 39l22 -23l-39 -39v-233l39 -39l-22 -22z" />
    <glyph glyph-name="adieresis" unicode="&#xe4;" 
d="M657 1436l39 39h54l38 -39v-166l-38 -39h-54l-39 39v166zM438 1270v166l39 39h53l39 -39v-166l-39 -39h-53zM365 55l53 -55h547l53 55v856l-53 56h-78l-25 22v78l-55 55h-389l-53 -55v-78l-25 -22h-78l-53 -56v-77l53 -56h78l55 56v77l23 23h389l24 -23v-233l39 -39
l-22 -23l-41 39h-389l-53 -55v-78l-25 -22h-78l-53 -56v-233l53 -55h78l25 -23v-78zM807 188h-389l-23 23v233l23 23h389l41 39l22 -23l-39 -39v-233l39 -39l-22 -22z" />
    <glyph glyph-name="aring" unicode="&#xe5;" 
d="M414 1251v97l22 22h33l8 10v33l23 23h32l11 10v31l22 22h97l22 -22v-31l10 -10h33l23 -23v-33l10 -10h31l22 -22v-97l-22 -22h-31l-10 -10v-31l-23 -25h-33l-10 -8v-33h125l53 -55v-78l25 -22h78l53 -56v-856l-53 -55h-545l-55 55v78l-25 23h-78l-53 55v233l53 56h78
l25 22v78l55 55h389l39 -39l22 23l-39 39v233l-22 23h-389l-25 -23v-77l-55 -56h-78l-53 56v77l53 56h78l25 22v78l55 55h123v33l-11 8h-32l-23 25v31l-8 10h-33zM420 188h389l39 -38l22 22l-39 39v233l39 39l-22 23l-39 -39h-389l-25 -23v-233zM500 1358l-8 -10v-97l8 -10
h32l23 -22v-31l10 -10h97l10 10v31l22 22h33l8 10v97l-8 10h-33l-22 22v33l-10 10h-97l-10 -10v-33l-23 -22h-32z" />
    <glyph glyph-name="ae" unicode="&#xe6;" 
d="M862 522l-53 -55h-78l-39 39l-24 -23l39 -39v-233l-39 -39l24 -22l39 38h78l22 23v78l56 55h78l55 -55v-78l-55 -55h-78l-25 -23v-78l-53 -55h-389l-55 55v78l-23 23h-78l-55 55v233l55 56h78l23 22v78l55 55h78l39 -39l22 23l-39 39v233l39 39l-22 23l-39 -39h-78
l-25 -23v-77l-53 -56h-78l-55 56v77l55 56h78l23 22v78l55 55h389l53 -55v-78l25 -22h78l55 -56v-233l-55 -55h-78l-25 -23v-78zM668 639l24 -23l39 39h78l22 23v233l-22 23h-78l-39 39l-24 -23l39 -39v-233zM537 150l22 22l-39 39v233l39 39l-22 23l-39 -39h-78l-25 -23
v-233l25 -23h78z" />
    <glyph glyph-name="ccedilla" unicode="&#xe7;" 
d="M862 55l-53 -55h-184v-55l16 -17h55l39 -37v-55l17 -16h53l39 -39v-55l-39 -39h-53l-17 -17v-53l-39 -39h-166l-36 39v53l-17 17h-55l-39 39v55l39 39h55l37 -39v-55l16 -17h166l17 17v55l-17 16h-55l-39 39v55l-16 15h-56l-36 39v55h-74l-55 55v78l-25 23h-78l-53 55
v700l53 56h78l25 22v78l55 55h389l53 -55v-78l25 -22h78l53 -56v-77l-53 -56h-78l-56 56v77l-22 23h-389l-25 -23v-700l25 -23h389l22 23v78l56 55h78l53 -55v-78l-53 -55h-78l-25 -23v-78z" />
    <glyph glyph-name="egrave" unicode="&#xe8;" 
d="M862 55l-53 -55h-391l-53 55v78l-25 25h-78l-53 53v700l53 56h78l25 24v78l53 53h391l53 -53v-78l25 -24h78l53 -56v-233l-53 -53h-78l-25 -25v-78l-53 -53h-391l-39 39l-23 -25l39 -39v-233l23 -23h391l22 23v78l56 55h78l53 -55v-78l-53 -53h-78l-25 -25v-78zM418 655
h391l22 23v233l-22 25h-391l-23 -25v-233l-39 -39l23 -23zM623 1436v-56l16 -16h55l39 -39v-55l-39 -39h-55l-39 39v55l-16 16h-56l-36 39v56l36 39h56z" />
    <glyph glyph-name="eacute" unicode="&#xe9;" 
d="M862 55l-53 -55h-391l-53 55v78l-25 25h-78l-53 53v700l53 56h78l25 24v78l53 53h391l53 -53v-78l25 -24h78l53 -56v-233l-53 -53h-78l-25 -25v-78l-53 -53h-391l-39 39l-23 -25l39 -39v-233l23 -23h391l22 23v78l56 55h78l53 -55v-78l-53 -53h-78l-25 -25v-78zM418 655
h391l22 23v233l-22 25h-391l-23 -25v-233l-39 -39l23 -23zM602 1380v56l39 39h55l37 -39v-56l-37 -39h-55l-16 -16v-55l-39 -39h-56l-38 39v55l38 39h56z" />
    <glyph glyph-name="ecircumflex" unicode="&#xea;" 
d="M862 55l-53 -55h-391l-53 55v78l-25 25h-78l-53 53v700l53 56h78l25 24v78l53 53h391l53 -53v-78l25 -24h78l53 -56v-233l-53 -53h-78l-25 -25v-78l-53 -53h-391l-39 39l-23 -25l39 -39v-233l23 -23h391l22 23v78l56 55h78l53 -55v-78l-53 -53h-78l-25 -25v-78zM418 655
h391l22 23v233l-22 25h-391l-23 -25v-233l-39 -39l23 -23zM438 1325l39 39h53l17 16v56l39 39h55l39 -39v-56l16 -16h54l38 -39v-55l-38 -39h-54l-39 39v55l-16 16h-55l-17 -16v-55l-39 -39h-53l-39 39v55z" />
    <glyph glyph-name="edieresis" unicode="&#xeb;" 
d="M862 55l-53 -55h-391l-53 55v78l-25 25h-78l-53 53v700l53 56h78l25 24v78l53 53h391l53 -53v-78l25 -24h78l53 -56v-233l-53 -53h-78l-25 -25v-78l-53 -53h-391l-39 39l-23 -25l39 -39v-233l23 -23h391l22 23v78l56 55h78l53 -55v-78l-53 -53h-78l-25 -25v-78zM418 655
h391l22 23v233l-22 25h-391l-23 -25v-233l-39 -39l23 -23zM657 1436l39 39h54l38 -39v-166l-38 -39h-54l-39 39v166zM438 1270v166l39 39h53l39 -39v-166l-39 -39h-53z" />
    <glyph glyph-name="igrave" unicode="&#xec;" 
d="M623 1436v-56l16 -16h55l39 -39v-55l-39 -39h-55l-39 39v55l-16 16h-56l-36 39v56l36 39h56zM692 973l-24 -23l39 -39v-700l-39 -39l24 -22l39 38h78l53 -55v-78l-53 -55h-389l-55 55v78l55 55h76l41 -38l22 22l-39 39v700l39 39l-22 23l-41 -39h-76l-55 55v78l55 55h389
l53 -55v-78l-53 -55h-78z" />
    <glyph glyph-name="iacute" unicode="&#xed;" 
d="M602 1380v56l39 39h55l37 -39v-56l-37 -39h-55l-16 -16v-55l-39 -39h-56l-38 39v55l38 39h56zM692 973l-24 -23l39 -39v-700l-39 -39l24 -22l39 38h78l53 -55v-78l-53 -55h-389l-55 55v78l55 55h76l41 -38l22 22l-39 39v700l39 39l-22 23l-41 -39h-76l-55 55v78l55 55
h389l53 -55v-78l-53 -55h-78z" />
    <glyph glyph-name="icircumflex" unicode="&#xee;" 
d="M438 1325l39 39h53l17 16v56l39 39h55l39 -39v-56l16 -16h54l38 -39v-55l-38 -39h-54l-39 39v55l-16 16h-55l-17 -16v-55l-39 -39h-53l-39 39v55zM692 973l-24 -23l39 -39v-700l-39 -39l24 -22l39 38h78l53 -55v-78l-53 -55h-389l-55 55v78l55 55h76l41 -38l22 22l-39 39
v700l39 39l-22 23l-41 -39h-76l-55 55v78l55 55h389l53 -55v-78l-53 -55h-78z" />
    <glyph glyph-name="idieresis" unicode="&#xef;" 
d="M692 973l-24 -23l39 -39v-700l-39 -39l24 -22l39 38h78l53 -55v-78l-53 -55h-389l-55 55v78l55 55h76l41 -38l22 22l-39 39v700l39 39l-22 23l-41 -39h-76l-55 55v78l55 55h389l53 -55v-78l-53 -55h-78zM657 1436l39 39h54l38 -39v-166l-38 -39h-54l-39 39v166zM438 1270
v166l39 39h53l39 -39v-166l-39 -39h-53z" />
    <glyph glyph-name="eth" unicode="&#xf0;" 
d="M692 928l23 22l-39 39v78l-25 23h-76l-55 55v78l-24 22h-78l-53 55v78l53 56h78l55 -56v-78l24 -22h76l25 22v78l55 56h78l53 -56v-78l-53 -55h-78l-24 -22v-78l24 -23h78l53 -55v-78l25 -22h78l53 -56v-856l-53 -55h-547l-53 55v78l-25 23h-78l-53 55v545l53 55h78
l25 23v77l53 56h233zM395 756v-545l23 -23h391l39 -38l22 22l-39 39v545l39 39l-22 22l-39 -39h-391z" />
    <glyph glyph-name="ntilde" unicode="&#xf1;" 
d="M862 1067l-55 55h-545l-53 -55v-1012l53 -55h78l55 55v856l-39 39l23 23l39 -39h389l24 -23v-856l56 -55h78l53 55v856l-53 56h-78l-25 22v78zM438 1436l39 39h164l39 -39v-56l16 -16h54l16 16v56l39 39h55l39 -39v-56l-39 -39h-55l-17 -16v-55l-38 -39h-54l-39 39v55
l-16 16h-164l-16 -16v-55l-39 -39h-55l-39 39v55l39 39h55l16 16v56z" />
    <glyph glyph-name="ograve" unicode="&#xf2;" 
d="M365 55l53 -55h389l55 55v78l25 23h78l53 55v700l-53 56h-78l-25 22v78l-55 55h-389l-53 -55v-78l-25 -22h-78l-53 -56v-700l53 -55h78l25 -23v-78zM807 188h-389l-23 23v700l23 23h389l24 -23v-700zM623 1436v-56l16 -16h55l39 -39v-55l-39 -39h-55l-39 39v55l-16 16
h-56l-36 39v56l36 39h56z" />
    <glyph glyph-name="oacute" unicode="&#xf3;" 
d="M365 55l53 -55h389l55 55v78l25 23h78l53 55v700l-53 56h-78l-25 22v78l-55 55h-389l-53 -55v-78l-25 -22h-78l-53 -56v-700l53 -55h78l25 -23v-78zM807 188h-389l-23 23v700l23 23h389l24 -23v-700zM602 1380v56l39 39h55l37 -39v-56l-37 -39h-55l-16 -16v-55l-39 -39
h-56l-38 39v55l38 39h56z" />
    <glyph glyph-name="ocircumflex" unicode="&#xf4;" 
d="M418 0l-53 55v78l-25 23h-78l-53 55v700l53 56h78l25 22v78l53 55h389l55 -55v-78l25 -22h78l53 -56v-700l-53 -55h-78l-25 -23v-78l-55 -55h-389zM418 188h389l24 23v700l-24 23h-389l-23 -23v-700zM438 1325l39 39h53l17 16v56l39 39h55l39 -39v-56l16 -16h54l38 -39
v-55l-38 -39h-54l-39 39v55l-16 16h-55l-17 -16v-55l-39 -39h-53l-39 39v55z" />
    <glyph glyph-name="otilde" unicode="&#xf5;" 
d="M365 55l53 -55h389l55 55v78l25 23h78l53 55v700l-53 56h-78l-25 22v78l-55 55h-389l-53 -55v-78l-25 -22h-78l-53 -56v-700l53 -55h78l25 -23v-78zM807 188h-389l-23 23v700l23 23h389l24 -23v-700zM438 1436l39 39h164l39 -39v-56l16 -16h54l16 16v56l39 39h55l39 -39
v-56l-39 -39h-55l-17 -16v-55l-38 -39h-54l-39 39v55l-16 16h-164l-16 -16v-55l-39 -39h-55l-39 39v55l39 39h55l16 16v56z" />
    <glyph glyph-name="odieresis" unicode="&#xf6;" 
d="M365 55l53 -55h389l55 55v78l25 23h78l53 55v700l-53 56h-78l-25 22v78l-55 55h-389l-53 -55v-78l-25 -22h-78l-53 -56v-700l53 -55h78l25 -23v-78zM807 188h-389l-23 23v700l23 23h389l24 -23v-700zM657 1436l39 39h54l38 -39v-166l-38 -39h-54l-39 39v166zM438 1270
v166l39 39h53l39 -39v-166l-39 -39h-53z" />
    <glyph glyph-name="divide" unicode="&#xf7;" 
d="M512 1085l53 54h97l55 -54v-96l-55 -55h-97l-53 55v96zM965 623h-703l-53 55v78l53 55h703l53 -55v-78zM512 444l53 56h97l55 -56v-94l-55 -55h-97l-53 55v94z" />
    <glyph glyph-name="oslash" unicode="&#xf8;" 
d="M418 0l-53 55v78l-25 23h-78l-22 -23v-78l-56 -55h-78l-53 55v78l53 55h78l25 23v700l53 56h78l25 22v78l53 55h389l55 -55v-78l25 -22h78l22 22v78l55 55h78l54 -55v-78l-54 -55h-78l-24 -23v-700l-53 -55h-78l-25 -23v-78l-55 -55h-389zM356 483l23 -22l352 350h76
l41 -39l22 23l-39 39v77l-24 23h-389l-23 -23v-389zM379 350l-23 -22l39 -39v-78l23 -23h389l24 23v389l39 39l-22 23l-352 -351h-78z" />
    <glyph glyph-name="ugrave" unicode="&#xf9;" 
d="M365 55l53 -55h547l53 55v1012l-53 55h-78l-56 -55v-856l39 -39l-22 -22l-39 38h-391l-23 23v856l-55 55h-78l-53 -55v-856l53 -55h78l25 -23v-78zM623 1436v-56l16 -16h55l39 -39v-55l-39 -39h-55l-39 39v55l-16 16h-56l-36 39v56l36 39h56z" />
    <glyph glyph-name="uacute" unicode="&#xfa;" 
d="M365 55l53 -55h547l53 55v1012l-53 55h-78l-56 -55v-856l39 -39l-22 -22l-39 38h-391l-23 23v856l-55 55h-78l-53 -55v-856l53 -55h78l25 -23v-78zM602 1380v56l39 39h55l37 -39v-56l-37 -39h-55l-16 -16v-55l-39 -39h-56l-38 39v55l38 39h56z" />
    <glyph glyph-name="ucircumflex" unicode="&#xfb;" 
d="M365 55v78l-25 23h-78l-53 55v856l53 55h78l55 -55v-856l23 -23h391l39 -38l22 22l-39 39v856l56 55h78l53 -55v-1012l-53 -55h-547zM438 1325l39 39h53l17 16v56l39 39h55l39 -39v-56l16 -16h54l38 -39v-55l-38 -39h-54l-39 39v55l-16 16h-55l-17 -16v-55l-39 -39h-53
l-39 39v55z" />
    <glyph glyph-name="udieresis" unicode="&#xfc;" 
d="M365 55l53 -55h547l53 55v1012l-53 55h-78l-56 -55v-856l39 -39l-22 -22l-39 38h-391l-23 23v856l-55 55h-78l-53 -55v-856l53 -55h78l25 -23v-78zM657 1436l39 39h54l38 -39v-166l-38 -39h-54l-39 39v166zM438 1270v166l39 39h53l39 -39v-166l-39 -39h-53z" />
    <glyph glyph-name="yacute" unicode="&#xfd;" 
d="M831 -23l39 39l-22 23l-39 -39h-389l-55 55v78l-25 23h-78l-53 55v856l53 55h78l55 -55v-856l25 -23h389l39 -38l22 22l-39 39v856l56 55h78l53 -55v-1167l-53 -56h-78l-25 -22v-78l-53 -55h-389l-55 55v78l55 55h389l22 23v77zM602 1380v56l39 39h55l37 -39v-56l-37 -39
h-55l-16 -16v-55l-39 -39h-56l-38 39v55l38 39h56z" />
    <glyph glyph-name="thorn" unicode="&#xfe;" 
d="M965 967l55 -56v-389l-55 -55h-78l-25 -23v-77l-53 -56h-389l-39 39l-25 -22l39 -39v-234l-55 -55h-76l-55 55v1323l55 56h76l55 -56v-233l-39 -39l25 -23l39 39h389l53 -55v-78l25 -22h78zM356 483l25 -22l39 39h389l22 22v389l-22 23h-389l-39 39l-25 -23l39 -39v-389z
" />
    <glyph glyph-name="ydieresis" unicode="&#xff;" 
d="M831 -23l39 39l-22 23l-39 -39h-389l-55 55v78l-25 23h-78l-53 55v856l53 55h78l55 -55v-856l25 -23h389l39 -38l22 22l-39 39v856l56 55h78l53 -55v-1167l-53 -56h-78l-25 -22v-78l-53 -55h-389l-55 55v78l55 55h389l22 23v77zM657 1436l39 39h54l38 -39v-166l-38 -39
h-54l-39 39v166zM438 1270v166l39 39h53l39 -39v-166l-39 -39h-53z" />
    <glyph glyph-name="Amacron" unicode="&#x100;" 
d="M862 1300l25 -22h78l53 -55v-1168l-53 -55h-78l-56 55v545l39 39l-22 23l-39 -39h-391l-39 39l-23 -23l39 -39v-545l-55 -55h-78l-53 55v1168l53 55h78l25 22v78l53 56h391l53 -56v-78zM831 1223l-22 22h-391l-23 -22v-389l-39 -39l23 -23l39 39h391l39 -39l22 23l-39 39
v389zM860 1581h-493l-39 39v55l39 39h493l39 -39v-55z" />
    <glyph glyph-name="amacron" unicode="&#x101;" 
d="M365 55l53 -55h547l53 55v856l-53 56h-78l-25 22v78l-53 55h-391l-53 -55v-78l-25 -22h-78l-53 -56v-77l53 -56h78l55 56v77l23 23h391l22 -23v-233l39 -39l-22 -23l-39 39h-391l-53 -55v-78l-25 -22h-78l-53 -56v-233l53 -55h78l25 -23v-78zM809 188h-391l-23 23v233
l23 23h391l39 39l22 -23l-39 -39v-233l39 -39l-22 -22zM860 1268h-493l-39 39v55l39 39h493l39 -39v-55z" />
    <glyph glyph-name="Abreve" unicode="&#x102;" 
d="M864 1300l23 -22h78l55 -55v-1170l-55 -53h-78l-53 53v545l38 41l-24 23l-39 -39h-389l-39 39l-23 -23l39 -41v-545l-55 -53h-78l-55 53v1170l55 55h78l23 22v78l55 56h389l55 -56v-78zM834 1223l-25 22h-389l-23 -22v-389l-39 -39l23 -25l39 39h389l39 -39l24 25l-38 39
v389zM477 1544l-39 39v55l-16 17h-55l-39 37v55l39 39h55l39 -39v-55l16 -15h273l16 15v55l39 39h55l39 -39v-55l-39 -37h-55l-17 -17v-55l-38 -39h-273z" />
    <glyph glyph-name="abreve" unicode="&#x103;" 
d="M420 0l-53 55v78l-25 23h-78l-55 55v233l55 56h78l25 22v78l53 55h389l39 -39l24 23l-38 39v233l-25 23h-389l-23 -23v-77l-55 -56h-78l-55 56v77l55 56h78l25 22v78l53 55h389l55 -55v-78l25 -22h76l55 -56v-856l-55 -55h-545zM420 188h389l39 -38l24 22l-38 39v233
l38 39l-24 23l-39 -39h-389l-23 -23v-233zM477 1231l-39 39v55l-16 16h-55l-39 37v56l39 39h55l39 -39v-56l16 -14h273l16 14v56l39 39h55l39 -39v-56l-39 -37h-55l-17 -16v-55l-38 -39h-273z" />
    <glyph glyph-name="Aogonek" unicode="&#x104;" 
d="M870 -422l-39 39v53l-16 17h-55l-39 39v55l39 39h55l16 16v764l39 39l-22 23l-39 -39h-391l-39 39l-23 -23l39 -39v-545l-55 -55h-78l-53 55v1168l53 55h78l25 22v78l53 56h391l53 -56v-78l25 -22h78l53 -55v-1168l-53 -55l-2 -164l-39 -39h-54l-16 -16v-55l16 -17h164
l39 -39v-53l-39 -39h-164zM831 1223l-22 22h-391l-23 -22v-389l-39 -39l23 -23l39 39h391l39 -39l22 23l-39 39v389z" />
    <glyph glyph-name="aogonek" unicode="&#x105;" 
d="M418 0l-53 55v78l-25 23h-78l-53 55v233l53 56h78l25 22v78l53 55h391l39 -39l22 23l-39 39v233l-22 23h-391l-23 -23v-77l-55 -56h-78l-53 56v77l53 56h78l25 22v78l53 55h391l53 -55v-78l25 -22h78l53 -56v-856l-53 -55l-2 -164l-39 -39h-54l-16 -16v-55l16 -17h164
l39 -39v-53l-39 -39h-164l-39 39v53l-16 17h-55l-39 39v55l39 39h55l16 16v164h-413zM809 188l29 -30l24 22l-31 31v233l39 39l-22 23l-39 -39h-391l-23 -23v-233l23 -23h391z" />
    <glyph glyph-name="Cacute" unicode="&#x106;" 
d="M834 1223l-25 22h-389l-23 -22v-1014l23 -23h389l25 23v78l53 55h78l55 -55v-78l-55 -53h-78l-23 -25v-78l-55 -53h-389l-55 53v78l-23 25h-78l-55 53v1014l55 55h78l23 22v78l55 56h389l55 -56v-78l23 -22h78l55 -55v-78l-55 -55h-78l-53 55v78zM602 1694v53l39 39h55
l39 -39v-53l-39 -39h-55l-16 -17v-55l-39 -39h-56l-36 39v55l36 39h56z" />
    <glyph glyph-name="cacute" unicode="&#x107;" 
d="M862 55l-53 -55h-391l-53 55v78l-25 25h-78l-53 53v700l53 56h78l25 24v78l53 53h391l53 -53v-78l25 -24h78l53 -56v-75l-53 -56h-78l-56 56v75l-22 25h-391l-23 -25v-700l23 -23h391l22 23v78l56 55h78l53 -55v-78l-53 -53h-78l-25 -25v-78zM602 1380v56l39 39h55
l37 -39v-56l-37 -39h-55l-16 -16v-55l-39 -39h-56l-38 39v55l38 39h56z" />
    <glyph glyph-name="Ccircumflex" unicode="&#x108;" 
d="M438 1636l117 -110h53l17 16h55v205v-55l16 -17h54l38 -39v-53l-38 -39h-54l-39 39v53l-16 17h-55l-17 -17v-53l-39 -39h-53l-39 39v53zM911 1073l-24 23h-389l-23 -23v-1014l23 -22h389l24 22v78l54 56h77l56 -56v-78l-56 -53h-77l-23 -24v-78l-55 -54h-389l-56 54v78
l-22 24h-78l-55 53v1014l55 55h78l22 23v78l56 55h389l55 -55v-78l23 -23h77l56 -55v-78l-56 -55h-77l-54 55v78z" />
    <glyph glyph-name="ccircumflex" unicode="&#x109;" 
d="M862 55l-53 -55h-391l-53 55v78l-25 25h-78l-53 53v700l53 56h78l25 24v78l53 53h391l53 -53v-78l25 -24h78l53 -56v-75l-53 -56h-78l-56 56v75l-22 25h-391l-23 -25v-700l23 -23h391l22 23v78l56 55h78l53 -55v-78l-53 -53h-78l-25 -25v-78zM438 1325l39 39h53l17 16v56
l39 39h55l39 -39v-56l16 -16h54l38 -39v-55l-38 -39h-54l-39 39v55l-16 16h-55l-17 -16v-55l-39 -39h-53l-39 39v55z" />
    <glyph glyph-name="Cdotaccent" unicode="&#x10a;" 
d="M834 1223l-25 22h-389l-23 -22v-1014l23 -23h389l25 23v78l53 55h78l55 -55v-78l-55 -53h-78l-23 -25v-78l-55 -53h-389l-55 53v78l-23 25h-78l-55 53v1014l55 55h78l23 22v78l55 56h389l55 -56v-78l23 -22h78l55 -55v-78l-55 -55h-78l-53 55v78zM510 1731l55 55h97
l53 -55v-97l-53 -53h-97l-55 53v97z" />
    <glyph glyph-name="cdotaccent" unicode="&#x10b;" 
d="M862 55l-53 -55h-391l-53 55v78l-25 25h-78l-53 53v700l53 56h78l25 24v78l53 53h391l53 -53v-78l25 -24h78l53 -56v-75l-53 -56h-78l-56 56v75l-22 25h-391l-23 -25v-700l23 -23h391l22 23v78l56 55h78l53 -55v-78l-53 -53h-78l-25 -25v-78zM510 1419l55 56h97l53 -56
v-96l-53 -53h-97l-55 53v96z" />
    <glyph glyph-name="Ccaron" unicode="&#x10c;" 
d="M834 1223l-25 22h-389l-23 -22v-1014l23 -23h389l25 23v78l53 55h78l55 -55v-78l-55 -53h-78l-23 -25v-78l-55 -53h-389l-55 53v78l-23 25h-78l-55 53v1014l55 55h78l23 22v78l55 56h389l55 -56v-78l23 -22h78l55 -55v-78l-55 -55h-78l-53 55v78zM477 1655l-39 39v53
l39 39h53l39 -39v-53l17 -17h55l16 17v53l39 39h54l38 -39v-53l-38 -39h-54l-16 -17v-55l-39 -39h-55l-39 39v55l-17 17h-53z" />
    <glyph glyph-name="ccaron" unicode="&#x10d;" 
d="M862 55l-53 -55h-391l-53 55v78l-25 25h-78l-53 53v700l53 56h78l25 24v78l53 53h391l53 -53v-78l25 -24h78l53 -56v-75l-53 -56h-78l-56 56v75l-22 25h-391l-23 -25v-700l23 -23h391l22 23v78l56 55h78l53 -55v-78l-53 -53h-78l-25 -25v-78zM477 1341l-39 39v56l39 39
h53l39 -39v-56l17 -16h55l16 16v56l39 39h54l38 -39v-56l-38 -39h-54l-16 -16v-55l-39 -39h-55l-39 39v55l-17 16h-53z" />
    <glyph glyph-name="Dcaron" unicode="&#x10e;" 
d="M477 1655l-39 39v53l39 39h53l39 -39v-53l17 -17h55l16 17v53l39 39h54l38 -39v-53l-38 -39h-54l-16 -17v-55l-39 -39h-55l-39 39v55l-17 17h-53zM887 156l-23 -25v-78l-55 -53h-545l-55 53v1325l55 56h545l55 -56v-78l23 -22h78l55 -55v-1014l-55 -53h-78zM834 1223
l-25 22h-389l-39 39l-23 -22l39 -39v-1014l-39 -39l23 -23l39 39h389l25 23v1014z" />
    <glyph glyph-name="dcaron" unicode="&#x10f;" 
d="M338 0l-53 55v78l-25 25h-78l-53 53v700l53 56h78l25 24v78l53 53h391l39 -39l23 25l-39 39v233l55 54h78l53 -54v-1325l-53 -55h-547zM338 188h391l39 -38l23 22l-39 39v700l39 41l-23 23l-39 -39h-391l-23 -25v-700zM1200 1329l-26 -26h-56l-39 38v54l39 39h56l26 -27
l29 27h55l39 -39v-54l-29 -28l29 -27v-55l-39 -39h-55l-17 -16v-54l-38 -39h-56l-39 39v54l39 38h56l16 17v55l27 27z" />
    <glyph glyph-name="Dcroat" unicode="&#x110;" 
d="M262 1434h547l53 -56v-78l25 -22h78l53 -55v-1012l-53 -55h-78l-25 -23v-78l-53 -55h-547l-53 55v545l39 39l-25 23l-39 -39h-78l-53 55v78l53 55h78l39 -39l25 23l-39 39v544zM831 211v1012l-22 22h-389l-41 41l-23 -24l39 -39v-389l-39 -39l23 -23l41 39h76l55 -55v-78
l-55 -55h-76l-41 39l-23 -23l39 -39v-389l-39 -39l23 -22l41 38h389z" />
    <glyph glyph-name="dcroat" unicode="&#x111;" 
d="M418 0l-53 55v78l-25 23h-78l-53 55v545l53 55h78l25 23v77l53 56h391l39 -39l22 22l-39 39v78l39 39l-22 22l-39 -38h-234l-55 55v78l55 55h234l39 -39l22 23l-39 38v78l56 56h78l53 -56v-78l-39 -38l25 -23l38 39h78l54 -55v-78l-54 -55h-78l-38 38l-25 -22l39 -39
v-1012l-53 -55h-547zM418 188h391l39 -38l22 22l-39 39v545l39 39l-22 22l-39 -39h-391l-23 -22v-545z" />
    <glyph glyph-name="Emacron" unicode="&#x112;" 
d="M209 53v1325l55 56h701l55 -56v-78l-55 -55h-545l-39 39l-23 -22l39 -39v-389l-39 -39l23 -25l39 39h389l55 -53v-78l-55 -55h-389l-39 39l-23 -23l39 -41v-389l-39 -39l23 -23l39 39h545l55 -55v-78l-55 -53h-701zM860 1579h-493l-39 39v55l39 39h493l39 -39v-55z" />
    <glyph glyph-name="emacron" unicode="&#x113;" 
d="M862 55l-53 -55h-391l-53 55v78l-25 25h-78l-53 53v700l53 56h78l25 24v78l53 53h391l53 -53v-78l25 -24h78l53 -56v-233l-53 -53h-78l-25 -25v-78l-53 -53h-391l-39 39l-23 -25l39 -39v-233l23 -23h391l22 23v78l56 55h78l53 -55v-78l-53 -53h-78l-25 -25v-78zM418 655
h391l22 23v233l-22 25h-391l-23 -25v-233l-39 -39l23 -23zM860 1268h-493l-39 39v55l39 39h493l39 -39v-55z" />
    <glyph glyph-name="Ebreve" unicode="&#x114;" 
d="M209 53v1325l55 56h701l55 -56v-78l-55 -55h-545l-39 39l-23 -22l39 -39v-389l-39 -39l23 -25l39 39h389l55 -53v-78l-55 -55h-389l-39 39l-23 -23l39 -41v-389l-39 -39l23 -23l39 39h545l55 -55v-78l-55 -53h-701zM477 1544l-39 39v55l-16 17h-55l-39 37v55l39 39h55
l39 -39v-55l16 -15h273l16 15v55l39 39h55l39 -39v-55l-39 -37h-55l-17 -17v-55l-38 -39h-273z" />
    <glyph glyph-name="ebreve" unicode="&#x115;" 
d="M862 55l-53 -55h-391l-53 55v78l-25 25h-78l-53 53v700l53 56h78l25 24v78l53 53h391l53 -53v-78l25 -24h78l53 -56v-233l-53 -53h-78l-25 -25v-78l-53 -53h-391l-39 39l-23 -25l39 -39v-233l23 -23h391l22 23v78l56 55h78l53 -55v-78l-53 -53h-78l-25 -25v-78zM418 655
h391l22 23v233l-22 25h-391l-23 -25v-233l-39 -39l23 -23zM477 1231l-39 39v55l-16 16h-55l-39 37v56l39 39h55l39 -39v-56l16 -14h273l16 14v56l39 39h55l39 -39v-56l-39 -37h-55l-17 -16v-55l-38 -39h-273z" />
    <glyph glyph-name="Edotaccent" unicode="&#x116;" 
d="M209 53v1325l55 56h701l55 -56v-78l-55 -55h-545l-39 39l-23 -22l39 -39v-389l-39 -39l23 -25l39 39h389l55 -53v-78l-55 -55h-389l-39 39l-23 -23l39 -41v-389l-39 -39l23 -23l39 39h545l55 -55v-78l-55 -53h-701zM510 1731l55 55h97l53 -55v-97l-53 -53h-97l-55 53v97z
" />
    <glyph glyph-name="edotaccent" unicode="&#x117;" 
d="M862 55l-53 -55h-391l-53 55v78l-25 25h-78l-53 53v700l53 56h78l25 24v78l53 53h391l53 -53v-78l25 -24h78l53 -56v-233l-53 -53h-78l-25 -25v-78l-53 -53h-391l-39 39l-23 -25l39 -39v-233l23 -23h391l22 23v78l56 55h78l53 -55v-78l-53 -53h-78l-25 -25v-78zM418 655
h391l22 23v233l-22 25h-391l-23 -25v-233l-39 -39l23 -23zM510 1419l55 56h97l53 -56v-96l-53 -53h-97l-55 53v96z" />
    <glyph glyph-name="Eogonek" unicode="&#x118;" 
d="M547 -383v53l-17 17h-53l-39 39v55l39 39h53l17 16v164h-285l-53 55v1323l53 56h703l53 -56v-78l-53 -55h-547l-39 39l-23 -22l39 -39v-389l-39 -39l23 -23l39 39h391l53 -55v-78l-53 -55h-391l-39 39l-23 -23l39 -39v-389l-39 -39l23 -22l39 38h547l53 -55v-78l-53 -55
h-285v-164l-39 -39h-55l-17 -16v-55l17 -17h164l38 -39v-53l-38 -39h-164z" />
    <glyph glyph-name="eogonek" unicode="&#x119;" 
d="M862 55l-53 -55h-129v-164l-39 -39h-55l-17 -16v-55l17 -17h164l38 -39v-53l-38 -39h-164l-39 39v53l-17 17h-53l-39 39v55l39 39h53l17 16v164h-129l-53 55v78l-25 23h-78l-53 55v700l53 56h78l25 22v78l53 55h391l53 -55v-78l25 -22h78l53 -56v-233l-53 -55h-78
l-25 -23v-78l-53 -55h-391l-39 39l-23 -23l39 -39v-233l23 -23h391l22 23v78l56 55h78l53 -55v-78l-53 -55h-78l-25 -23v-78zM418 655h391l22 23v233l-22 23h-391l-23 -23v-233l-39 -39l23 -23z" />
    <glyph glyph-name="Ecaron" unicode="&#x11a;" 
d="M209 53v1325l55 56h701l55 -56v-78l-55 -55h-545l-39 39l-23 -22l39 -39v-389l-39 -39l23 -25l39 39h389l55 -53v-78l-55 -55h-389l-39 39l-23 -23l39 -41v-389l-39 -39l23 -23l39 39h545l55 -55v-78l-55 -53h-701zM477 1655l-39 39v53l39 39h53l39 -39v-53l17 -17h55
l16 17v53l39 39h54l38 -39v-53l-38 -39h-54l-16 -17v-55l-39 -39h-55l-39 39v55l-17 17h-53z" />
    <glyph glyph-name="ecaron" unicode="&#x11b;" 
d="M862 55l-53 -55h-391l-53 55v78l-25 25h-78l-53 53v700l53 56h78l25 24v78l53 53h391l53 -53v-78l25 -24h78l53 -56v-233l-53 -53h-78l-25 -25v-78l-53 -53h-391l-39 39l-23 -25l39 -39v-233l23 -23h391l22 23v78l56 55h78l53 -55v-78l-53 -53h-78l-25 -25v-78zM418 655
h391l22 23v233l-22 25h-391l-23 -25v-233l-39 -39l23 -23zM477 1341l-39 39v56l39 39h53l39 -39v-56l17 -16h55l16 16v56l39 39h54l38 -39v-56l-38 -39h-54l-16 -16v-55l-39 -39h-55l-39 39v55l-17 16h-53z" />
    <glyph glyph-name="Gcircumflex" unicode="&#x11c;" 
d="M438 1636l111 -55h53l16 16v56l39 39v55h23v-55l16 -17h54l38 -39v-53l-38 -39h-54l-39 39v53l-16 17h-55l-17 -17v-53l-39 -39h-53l-39 39v53zM281 1128l55 56h78l22 22v78l56 55h389l55 -55v-78l22 -22h78l56 -56v-77l-56 -56h-78l-53 56v77l-24 23h-389l-23 -23v-1013
l23 -23h389l24 23v389l39 41l-24 22l-39 -39h-234l-53 56v78l53 53h389l56 -53v-547l-56 -54h-78l-22 -24v-78l-55 -53h-389l-56 53v78l-22 24h-78l-55 54v1013z" />
    <glyph glyph-name="gcircumflex" unicode="&#x11d;" 
d="M831 -23l39 39l-22 25l-39 -41h-389l-55 55v78l-25 25h-78l-53 53v700l53 56h78l25 24v78l55 53h545l53 -53v-1169l-53 -56h-78l-25 -22v-78l-53 -55h-389l-55 55v78l55 55h389l22 23v77zM809 936h-389l-25 -25v-700l25 -23h389l39 -38l22 22l-39 39v700l39 41l-22 23z
M438 1325l39 39h53l17 16v56l39 39h55l39 -39v-56l16 -16h54l38 -39v-55l-38 -39h-54l-39 39v55l-16 16h-55l-17 -16v-55l-39 -39h-53l-39 39v55z" />
    <glyph glyph-name="Gbreve" unicode="&#x11e;" 
d="M209 1223l55 55h78l23 22v78l55 56h389l55 -56v-78l23 -22h78l55 -55v-78l-55 -55h-78l-53 55v78l-25 22h-389l-23 -22v-1014l23 -23h389l25 23v389l38 41l-24 23l-39 -39h-234l-53 55v78l53 53h390l55 -53v-547l-55 -53h-78l-23 -25v-78l-55 -53h-389l-55 53v78l-23 25
h-78l-55 53v1014zM477 1544l-39 39v55l-16 17h-55l-39 37v55l39 39h55l39 -39v-55l16 -15h273l16 15v55l39 39h55l39 -39v-55l-39 -37h-55l-17 -17v-55l-38 -39h-273z" />
    <glyph glyph-name="gbreve" unicode="&#x11f;" 
d="M831 -23l39 39l-22 25l-39 -41h-389l-55 55v78l-25 25h-78l-53 53v700l53 56h78l25 24v78l55 53h545l53 -53v-1169l-53 -56h-78l-25 -22v-78l-53 -55h-389l-55 55v78l55 55h389l22 23v77zM809 936h-389l-25 -25v-700l25 -23h389l39 -38l22 22l-39 39v700l39 41l-22 23z
M477 1231l-39 39v55l-16 16h-55l-39 37v56l39 39h55l39 -39v-56l16 -14h273l16 14v56l39 39h55l39 -39v-56l-39 -37h-55l-17 -16v-55l-38 -39h-273z" />
    <glyph glyph-name="Gdotaccent" unicode="&#x120;" 
d="M209 1223l55 55h78l23 22v78l55 56h389l55 -56v-78l23 -22h78l55 -55v-78l-55 -55h-78l-53 55v78l-25 22h-389l-23 -22v-1014l23 -23h389l25 23v389l38 41l-24 23l-39 -39h-234l-53 55v78l53 53h390l55 -53v-547l-55 -53h-78l-23 -25v-78l-55 -53h-389l-55 53v78l-23 25
h-78l-55 53v1014zM510 1731l55 55h97l53 -55v-97l-53 -53h-97l-55 53v97z" />
    <glyph glyph-name="gdotaccent" unicode="&#x121;" 
d="M831 -23l39 39l-22 25l-39 -41h-389l-55 55v78l-25 25h-78l-53 53v700l53 56h78l25 24v78l55 53h545l53 -53v-1169l-53 -56h-78l-25 -22v-78l-53 -55h-389l-55 55v78l55 55h389l22 23v77zM809 936h-389l-25 -25v-700l25 -23h389l39 -38l22 22l-39 39v700l39 41l-22 23z
M510 1419l55 56h97l53 -56v-96l-53 -53h-97l-55 53v96z" />
    <glyph glyph-name="Gcommaaccent" unicode="&#x122;" 
d="M209 1223l55 55h78l23 22v78l55 56h389l55 -56v-78l23 -22h78l55 -55v-78l-55 -55h-78l-53 55v78l-25 22h-389l-23 -22v-1014l23 -23h389l25 23v389l38 41l-24 23l-39 -39h-234l-53 55v78l53 53h390l55 -53v-547l-55 -53h-78l-23 -25v-78l-55 -53h-389l-55 53v78l-23 25
h-78l-55 53v1014zM612 -176l-26 -27h-56l-38 39v53l38 39h56l26 -26l29 26h55l39 -39v-53l-28 -29l28 -26v-55l-39 -39h-55l-16 -17v-53l-39 -39h-56l-38 39v53l38 39h56l16 17v55l27 26z" />
    <glyph glyph-name="gcommaaccent" unicode="&#x123;" 
d="M831 -23l39 39l-22 25l-39 -41h-389l-55 55v78l-25 25h-78l-53 53v700l53 56h78l25 24v78l55 53h545l53 -53v-1169l-53 -56h-78l-25 -22v-78l-53 -55h-389l-55 55v78l55 55h389l22 23v77zM809 936h-389l-25 -25v-700l25 -23h389l39 -38l22 22l-39 39v700l39 41l-22 23z
M612 1337l29 27h55l39 -39v-55l-39 -37h-55l-29 27l-26 -27h-56l-38 37v55l28 29l-28 26v56l38 39h56l16 16v53l39 39h55l39 -39v-53l-39 -39h-55l-16 -16v-56l-27 -26z" />
    <glyph glyph-name="Hcircumflex" unicode="&#x124;" 
d="M438 1636l111 -55h53l16 16v56l39 39v55h23v-55l16 -17h54l38 -39v-53l-38 -39h-54l-39 39v53l-16 17h-55l-17 -17v-53l-39 -39h-53l-39 39v53zM905 739v545l53 55h78l56 -55v-1325l-56 -53h-78l-53 53v545l39 41l-24 22l-39 -39h-389l-39 39l-23 -22l39 -41v-545
l-55 -53h-78l-55 53v1325l55 55h78l55 -55v-545l-39 -39l23 -24l39 39h389l39 -39l24 24z" />
    <glyph glyph-name="hcircumflex" unicode="&#x125;" 
d="M438 1636l117 -110h53l17 16h55v205v-55l16 -17h54l38 -39v-53l-38 -39h-54l-39 39v53l-16 17h-55l-17 -17v-53l-39 -39h-53l-39 39v53zM887 973l53 -53v-78l25 -25h77l54 -55v-856l-54 -56h-77l-56 56v856l-22 24h-389l-41 39l-23 -22l39 -41v-856l-55 -56h-78l-53 56
v1325l53 53h78l55 -53v-234l-39 -39l23 -24l41 39h389z" />
    <glyph glyph-name="Hbar" unicode="&#x126;" 
d="M53 1223l53 55h78l39 -39l25 23l-39 38v78l53 56h78l55 -56v-78l-39 -38l23 -23l41 39h389l39 -39l22 23l-39 38v78l56 56h78l53 -56v-78l-39 -38l25 -23l38 39h78l56 -55v-78l-56 -55h-78l-38 38l-25 -22l39 -39v-1012l-53 -55h-78l-56 55v545l39 39l-22 23l-39 -39
h-389l-41 39l-23 -23l39 -39v-545l-55 -55h-78l-53 55v1012l39 39l-25 22l-39 -38h-78l-53 55v78zM848 1128l-39 -38h-389l-41 38l-23 -22l39 -39v-233l-39 -39l23 -23l41 39h389l39 -39l22 23l-39 39v233l39 39z" />
    <glyph glyph-name="hbar" unicode="&#x127;" 
d="M1018 756v-701l-53 -55h-78l-56 55v701l-22 22h-389l-41 39l-23 -22l39 -39v-701l-55 -55h-78l-53 55v1012l39 39l-25 22l-39 -38h-78l-53 55v78l53 55h78l39 -39l25 23l-39 38v78l53 56h78l55 -56v-78l-39 -38l23 -23l41 39h233l54 -55v-78l-54 -55h-233l-41 38l-23 -22
l39 -39v-78l-39 -39l23 -22l41 39h389l53 -56v-77l25 -23h78z" />
    <glyph glyph-name="Itilde" unicode="&#x128;" 
d="M438 1747l39 39h164l39 -39v-55l16 -17h54l16 17v55l39 39h55l39 -39v-55l-39 -39h-55l-17 -17v-53l-38 -39h-54l-39 39v53l-16 17h-164l-16 -17v-53l-39 -39h-55l-39 39v53l39 39h55l16 17v55zM520 1223l39 39l-22 22l-41 -39h-76l-55 55v78l55 56h389l53 -56v-78
l-53 -55h-78l-39 39l-24 -22l39 -39v-1012l-39 -39l24 -25l39 39h78l53 -55v-76l-53 -55h-389l-55 55v76l55 55h76l41 -39l22 25l-39 39v1012z" />
    <glyph glyph-name="itilde" unicode="&#x129;" 
d="M692 973l-24 -23l39 -39v-700l-39 -39l24 -22l39 38h78l53 -55v-78l-53 -55h-389l-55 55v78l55 55h76l41 -38l22 22l-39 39v700l39 39l-22 23l-41 -39h-76l-55 55v78l55 55h389l53 -55v-78l-53 -55h-78zM438 1436l39 39h164l39 -39v-56l16 -16h54l16 16v56l39 39h55
l39 -39v-56l-39 -39h-55l-17 -16v-55l-38 -39h-54l-39 39v55l-16 16h-164l-16 -16v-55l-39 -39h-55l-39 39v55l39 39h55l16 16v56z" />
    <glyph glyph-name="Imacron" unicode="&#x12a;" 
d="M520 1223l39 39l-22 22l-41 -39h-76l-55 55v78l55 56h389l53 -56v-78l-53 -55h-78l-39 39l-24 -22l39 -39v-1012l-39 -39l24 -25l39 39h78l53 -55v-76l-53 -55h-389l-55 55v76l55 55h76l41 -39l22 25l-39 39v1012zM860 1581h-493l-39 39v55l39 39h493l39 -39v-55z" />
    <glyph glyph-name="imacron" unicode="&#x12b;" 
d="M692 973l-24 -23l39 -39v-700l-39 -39l24 -22l39 38h78l53 -55v-78l-53 -55h-389l-55 55v78l55 55h76l41 -38l22 22l-39 39v700l39 39l-22 23l-41 -39h-76l-55 55v78l55 55h389l53 -55v-78l-53 -55h-78zM860 1268h-493l-39 39v55l39 39h493l39 -39v-55z" />
    <glyph glyph-name="Ibreve" unicode="&#x12c;" 
d="M520 1223l39 39l-22 22l-41 -39h-76l-55 55v78l55 56h389l53 -56v-78l-53 -55h-78l-39 39l-24 -22l39 -39v-1012l-39 -39l24 -25l39 39h78l53 -55v-76l-53 -55h-389l-55 55v76l55 55h76l41 -39l22 25l-39 39v1012zM477 1544l-39 39v55l-16 17h-55l-39 37v55l39 39h55
l39 -39v-55l16 -15h273l16 15v55l39 39h55l39 -39v-55l-39 -37h-55l-17 -17v-55l-38 -39h-273z" />
    <glyph glyph-name="ibreve" unicode="&#x12d;" 
d="M692 973l-24 -23l39 -39v-700l-39 -39l24 -22l39 38h78l53 -55v-78l-53 -55h-389l-55 55v78l55 55h76l41 -38l22 22l-39 39v700l39 39l-22 23l-41 -39h-76l-55 55v78l55 55h389l53 -55v-78l-53 -55h-78zM477 1231l-39 39v55l-16 16h-55l-39 37v56l39 39h55l39 -39v-56
l16 -14h273l16 14v56l39 39h55l39 -39v-56l-39 -37h-55l-17 -16v-55l-38 -39h-273z" />
    <glyph glyph-name="Iogonek" unicode="&#x12e;" 
d="M520 1223l39 39l-22 24l-41 -39h-76l-55 53v78l55 56h389l53 -56v-78l-53 -53h-78l-39 39l-24 -24l39 -39v-1012l-39 -39l24 -22l39 38h78l53 -55v-78l-53 -55h-129v-164l-39 -39h-55l-17 -16v-55l17 -17h164l38 -39v-53l-38 -39h-164l-39 39v53l-17 17h-53l-39 39v55
l39 39h53l17 16v164h-127l-55 55v78l55 55h76l41 -38l22 22l-39 39v1012z" />
    <glyph glyph-name="iogonek" unicode="&#x12f;" 
d="M692 973l-24 -23l39 -39v-700l-39 -39l24 -22l39 38h78l53 -55v-78l-53 -55h-129v-164l-39 -39h-55l-17 -16v-55l17 -17h164l38 -39v-53l-38 -39h-164l-39 39v53l-17 17h-53l-39 39v55l39 39h53l17 16v164h-127l-55 55v78l55 55h76l41 -38l22 22l-39 39v700l39 39l-22 23
l-41 -39h-76l-55 55v78l55 55h389l53 -55v-78l-53 -55h-78zM512 1436l53 55h97l55 -55v-95l-55 -55h-97l-53 55v95z" />
    <glyph glyph-name="Idotaccent" unicode="&#x130;" 
d="M520 1223l39 39l-22 22l-41 -39h-76l-55 55v78l55 56h389l53 -56v-78l-53 -55h-78l-39 39l-24 -22l39 -39v-1012l-39 -39l24 -25l39 39h78l53 -55v-76l-53 -55h-389l-55 55v76l55 55h76l41 -39l22 25l-39 39v1012zM510 1731l55 55h97l53 -55v-97l-53 -53h-97l-55 53v97z
" />
    <glyph glyph-name="dotlessi" unicode="&#x131;" 
d="M692 973l-24 -23l39 -39v-700l-39 -39l24 -22l39 38h78l53 -55v-78l-53 -55h-389l-55 55v78l55 55h76l41 -38l22 22l-39 39v700l39 39l-22 23l-41 -39h-76l-55 55v78l55 55h389l53 -55v-78l-53 -55h-78z" />
    <glyph glyph-name="Jcircumflex" unicode="&#x134;" 
d="M831 1223l39 39l-22 24l-39 -39h-389l-55 53v78l55 56h545l53 -56v-1167l-53 -55h-78l-25 -23v-78l-53 -55h-389l-55 55v78l-25 23h-78l-53 55v78l53 55h78l55 -55v-78l25 -23h389l22 23v1012zM555 1675h53l17 17v55l39 39h55l39 -39v-55l16 -17h55l37 -39v-53l-37 -39
h-55l-39 39v53l-16 17h-55l-17 -17v-53l-39 -39h-53l-39 39v53z" />
    <glyph glyph-name="jcircumflex" unicode="&#x135;" 
d="M676 -100v1011l39 39l-23 23l-39 -39h-78l-55 55v78l55 55h390l53 -55v-78l-53 -55h-78l-39 39l-25 -23l39 -39v-1011l-53 -56h-78l-24 -22v-78l-54 -55h-233l-55 55v78l-25 22h-78l-53 56v77l53 56h78l55 -56v-77l25 -23h233zM633 1364h53l16 16v56l39 39h56l39 -39v-56
l16 -16h55l37 -39v-55l-37 -37h-55l-39 37v55l-16 16h-56l-16 -16v-55l-39 -37h-53l-39 37v55z" />
    <glyph glyph-name="Kcommaaccent" unicode="&#x136;" 
d="M381 817l-23 -22l39 -39v-703l-55 -53h-78l-55 53v1325l55 56h78l55 -56v-389l-39 -39l23 -24l506 508h78l55 -56v-78l-467 -466l22 -25h234l55 -53v-78l23 -25h78l55 -55v-545l-55 -53h-78l-53 53v545l-25 25h-234l-53 55v78l-24 22h-78zM612 -176l-26 -27h-56l-38 39
v53l38 39h56l26 -26l29 26h55l39 -39v-53l-28 -29l28 -26v-55l-39 -39h-55l-16 -17v-53l-39 -39h-56l-38 39v53l38 39h56l16 17v55l27 26z" />
    <glyph glyph-name="kcommaaccent" unicode="&#x137;" 
d="M612 -176l-26 -27h-56l-38 39v53l38 39h56l26 -26l29 26h55l39 -39v-53l-28 -29l28 -26v-55l-39 -39h-55l-16 -17v-53l-39 -39h-56l-38 39v53l38 39h56l16 17v55l27 26zM379 664l-23 -25l39 -39v-545l-55 -55h-78l-53 55v1325l53 54h78l55 -54v-544l-39 -41l23 -23
l352 350h78l53 -53v-78l-311 -313l24 -23h234l53 -55v-78l25 -22h78l53 -56v-389l-53 -55h-78l-56 55v389l-22 25h-234l-55 53v78l-24 25h-76z" />
    <glyph glyph-name="kgreenlandic" unicode="&#x138;" 
d="M379 664l-23 -25l39 -39v-545l-55 -55h-78l-53 55v1014l53 53h78l55 -53v-233l-39 -41l23 -23l352 350h78l53 -53v-78l-311 -313l24 -23h234l53 -55v-78l25 -22h78l53 -56v-389l-53 -55h-78l-56 55v389l-22 25h-234l-55 53v78l-24 25h-76z" />
    <glyph glyph-name="Lacute" unicode="&#x139;" 
d="M602 1694v53l39 39h55l39 -39v-53l-39 -39h-55l-16 -17v-55l-39 -39h-56l-36 39v55l36 39h56zM209 53v1325l55 56h78l55 -56v-1169l-39 -39l23 -23l39 39h545l55 -55v-78l-55 -53h-701z" />
    <glyph glyph-name="lacute" unicode="&#x13a;" 
d="M602 1694v53l39 39h55l39 -39v-53l-39 -39h-55l-16 -17v-55l-39 -39h-56l-36 39v55l36 39h56zM520 1223l39 39l-22 22l-41 -39h-76l-55 55v78l55 56h233l54 -56v-1167l-39 -39l24 -22l39 38h78l53 -55v-78l-53 -55h-234l-55 55v1168z" />
    <glyph glyph-name="Lcommaaccent" unicode="&#x13b;" 
d="M209 53v1325l55 56h78l55 -56v-1169l-39 -39l23 -23l39 39h545l55 -55v-78l-55 -53h-701zM612 -176l-26 -27h-56l-38 39v53l38 39h56l26 -26l29 26h55l39 -39v-53l-28 -29l28 -26v-55l-39 -39h-55l-16 -17v-53l-39 -39h-56l-38 39v53l38 39h56l16 17v55l27 26z" />
    <glyph glyph-name="lcommaaccent" unicode="&#x13c;" 
d="M612 -176l-26 -27h-56l-38 39v53l38 39h56l26 -26l29 26h55l39 -39v-53l-28 -29l28 -26v-55l-39 -39h-55l-16 -17v-53l-39 -39h-56l-38 39v53l38 39h56l16 17v55l27 26zM520 1223l39 39l-22 22l-41 -39h-76l-55 55v78l55 56h233l54 -56v-1167l-39 -39l24 -22l39 38h78
l53 -55v-78l-53 -55h-234l-55 55v1168z" />
    <glyph glyph-name="Lcaron" unicode="&#x13d;" 
d="M209 53v1325l55 56h78l55 -56v-1169l-39 -39l23 -23l39 39h545l55 -55v-78l-55 -53h-701zM477 1655l-39 39v53l39 39h53l39 -39v-53l17 -17h55l16 17v53l39 39h54l38 -39v-53l-38 -39h-54l-16 -17v-55l-39 -39h-55l-39 39v55l-17 17h-53z" />
    <glyph glyph-name="lcaron" unicode="&#x13e;" 
d="M520 1223l39 39l-22 22l-41 -39h-76l-55 55v78l55 56h233l54 -56v-1167l-39 -39l24 -22l39 38h78l53 -55v-78l-53 -55h-234l-55 55v1168zM985 1329l-27 -26h-55l-39 38v54l39 39h55l27 -27l29 27h55l39 -39v-54l-29 -28l29 -27v-55l-39 -39h-55l-17 -16v-54l-39 -39h-55
l-39 39v54l39 38h55l17 17v55l26 27z" />
    <glyph glyph-name="Ldot" unicode="&#x13f;" 
d="M209 53v1325l55 56h78l55 -56v-1169l-39 -39l23 -23l39 39h545l55 -55v-78l-55 -53h-701zM903 764l53 55h97l55 -55v-94l-55 -56h-97l-53 56v94z" />
    <glyph glyph-name="ldot" unicode="&#x140;" 
d="M520 1223l39 39l-22 22l-41 -39h-76l-55 55v78l55 56h233l54 -56v-1167l-39 -39l24 -22l39 38h78l53 -55v-78l-53 -55h-234l-55 55v1168zM903 764l53 55h97l55 -55v-94l-55 -56h-97l-53 56v94z" />
    <glyph glyph-name="Lslash" unicode="&#x141;" 
d="M520 911l55 56h78l54 -56v-77l-54 -56h-78l-24 -22v-78l-55 -55h-76l-39 39l-25 -23l39 -39v-389l-39 -39l25 -22l39 38h545l53 -55v-78l-53 -55h-703l-53 55v234l39 39l-25 22l-39 -39h-78l-53 56v77l53 56h78l39 -39l25 22l-39 39v856l53 56h78l55 -56v-544l-39 -39
l25 -23l39 39h76l24 23v77z" />
    <glyph glyph-name="lslash" unicode="&#x142;" 
d="M365 444l55 56h76l41 -39l22 22l-39 39v701l39 39l-22 24l-41 -39h-76l-55 53v78l55 56h233l54 -56v-544l-39 -39l24 -23l39 39h78l22 23v77l56 56h78l53 -56v-77l-53 -56h-78l-25 -22v-78l-53 -55h-78l-39 39l-24 -23l39 -39v-389l-39 -39l24 -22l39 38h78l53 -55v-78
l-53 -55h-234l-55 55v234l39 39l-22 22l-41 -39h-76l-25 -22v-78l-55 -55h-78l-53 55v78l53 55h78l25 23v77z" />
    <glyph glyph-name="Nacute" unicode="&#x143;" 
d="M602 1694v53l39 39h55l39 -39v-53l-39 -39h-55l-16 -17v-55l-39 -39h-56l-36 39v55l36 39h56zM381 1128l-23 -22l39 -39v-1014l-55 -53h-78l-55 53v1325l55 56h78l55 -56v-78l-39 -38l23 -25l39 41h78l350 -352l24 24l-38 39v389l55 56h76l55 -56v-1325l-55 -53h-76
l-55 53v703l38 39l-24 22l-39 -39h-78z" />
    <glyph glyph-name="nacute" unicode="&#x144;" 
d="M862 1067l-55 55h-545l-53 -55v-1012l53 -55h78l55 55v856l-39 39l23 23l39 -39h389l24 -23v-856l56 -55h78l53 55v856l-53 56h-78l-25 22v78zM602 1380v56l39 39h55l37 -39v-56l-37 -39h-55l-16 -16v-55l-39 -39h-56l-38 39v55l38 39h56z" />
    <glyph glyph-name="Ncommaaccent" unicode="&#x145;" 
d="M381 1128l-23 -22l39 -39v-1014l-55 -53h-78l-55 53v1325l55 56h78l55 -56v-78l-39 -38l23 -25l39 41h78l350 -352l24 24l-38 39v389l55 56h76l55 -56v-1325l-55 -53h-76l-55 53v703l38 39l-24 22l-39 -39h-78zM612 -176l-26 -27h-56l-38 39v53l38 39h56l26 -26l29 26h55
l39 -39v-53l-28 -29l28 -26v-55l-39 -39h-55l-16 -17v-53l-39 -39h-56l-38 39v53l38 39h56l16 17v55l27 26z" />
    <glyph glyph-name="ncommaaccent" unicode="&#x146;" 
d="M612 -176l-26 -27h-56l-38 39v53l38 39h56l26 -26l29 26h55l39 -39v-53l-28 -29l28 -26v-55l-39 -39h-55l-16 -17v-53l-39 -39h-56l-38 39v53l38 39h56l16 17v55l27 26zM807 1122l55 -55v-78l25 -22h78l53 -56v-856l-53 -55h-78l-56 55v856l-24 23h-389l-39 39l-23 -23
l39 -39v-856l-55 -55h-78l-53 55v1012l53 55h545z" />
    <glyph glyph-name="Ncaron" unicode="&#x147;" 
d="M381 1128l-23 -22l39 -39v-1014l-55 -53h-78l-55 53v1325l55 56h78l55 -56v-78l-39 -38l23 -25l39 41h78l350 -352l24 24l-38 39v389l55 56h76l55 -56v-1325l-55 -53h-76l-55 53v703l38 39l-24 22l-39 -39h-78zM477 1655l-39 39v53l39 39h53l39 -39v-53l17 -17h55l16 17
v53l39 39h54l38 -39v-53l-38 -39h-54l-16 -17v-55l-39 -39h-55l-39 39v55l-17 17h-53z" />
    <glyph glyph-name="ncaron" unicode="&#x148;" 
d="M807 1122l55 -55v-78l25 -22h78l53 -56v-856l-53 -55h-78l-56 55v856l-24 23h-389l-39 39l-23 -23l39 -39v-856l-55 -55h-78l-53 55v1012l53 55h545zM477 1341l-39 39v56l39 39h53l39 -39v-56l17 -16h55l16 16v56l39 39h54l38 -39v-56l-38 -39h-54l-16 -16v-55l-39 -39
h-55l-39 39v55l-17 16h-53z" />
    <glyph glyph-name="napostrophe" unicode="&#x149;" 
d="M940 1067l-53 55h-545l-55 -55v-1012l55 -55h76l55 55v856l-39 39l25 23l39 -39h389l22 -23v-856l56 -55h77l54 55v856l-54 56h-77l-25 22v78zM252 1479l-29 -27h-53l-39 39v53l39 39h53l29 -27l27 27h55l39 -39v-53l-29 -29l29 -26v-56l-39 -39h-55l-17 -16v-55l-39 -37
h-53l-39 37v55l39 39h53l17 16v56l28 26z" />
    <glyph glyph-name="Eng" unicode="&#x14a;" 
d="M381 1128l-25 -22l39 -39v-1012l-55 -55h-78l-53 55v1323l53 56h78l55 -56v-78l-39 -38l25 -23l39 39h76l352 -350l22 22l-39 39v389l56 56h78l53 -56v-1323l-55 -55v-164l16 -16h55l39 -39v-55l-39 -39h-55l-16 -17v-53l-39 -39h-164l-39 39v53l-16 17h-54l-39 39v55
l39 39h54l38 -39v-55l17 -17h164l16 17v55l-16 16h-54l-39 39v920l39 39l-22 22l-39 -39h-78z" />
    <glyph glyph-name="eng" unicode="&#x14b;" 
d="M862 1067v-78l25 -22h78l53 -56v-856l-53 -55l-2 -164l16 -16h55l39 -39v-55l-39 -39h-55l-16 -17v-53l-39 -39h-164l-39 39v53l-16 17h-54l-39 39v55l39 39h54l38 -39v-55l17 -17h164l16 17v55l-16 16h-54l-39 39v1075l-22 23h-389l-41 39l-23 -23l39 -39v-856l-55 -55
h-78l-53 55v1012l53 55h547z" />
    <glyph glyph-name="Omacron" unicode="&#x14c;" 
d="M809 0h-389l-53 53v78l-25 25h-78l-55 53v1014l55 55h78l25 22v78l53 56h389l55 -56v-78l25 -22h76l55 -55v-1014l-55 -53h-76l-25 -25v-78zM834 1223l-25 22h-389l-23 -22v-1014l23 -23h389l25 23v1014zM860 1581h-493l-39 39v55l39 39h493l39 -39v-55z" />
    <glyph glyph-name="omacron" unicode="&#x14d;" 
d="M365 55l53 -55h389l55 55v78l25 23h78l53 55v700l-53 56h-78l-25 22v78l-55 55h-389l-53 -55v-78l-25 -22h-78l-53 -56v-700l53 -55h78l25 -23v-78zM807 188h-389l-23 23v700l23 23h389l24 -23v-700zM860 1268h-493l-39 39v55l39 39h493l39 -39v-55z" />
    <glyph glyph-name="Obreve" unicode="&#x14e;" 
d="M809 0h-389l-53 53v78l-25 25h-78l-55 53v1014l55 55h78l25 22v78l53 56h389l55 -56v-78l25 -22h76l55 -55v-1014l-55 -53h-76l-25 -25v-78zM834 1223l-25 22h-389l-23 -22v-1014l23 -23h389l25 23v1014zM477 1544l-39 39v55l-16 17h-55l-39 37v55l39 39h55l39 -39v-55
l16 -15h273l16 15v55l39 39h55l39 -39v-55l-39 -37h-55l-17 -17v-55l-38 -39h-273z" />
    <glyph glyph-name="obreve" unicode="&#x14f;" 
d="M418 0l-53 55v78l-25 23h-78l-53 55v700l53 56h78l25 22v78l53 55h389l55 -55v-78l25 -22h78l53 -56v-700l-53 -55h-78l-25 -23v-78l-55 -55h-389zM418 188h389l24 23v700l-24 23h-389l-23 -23v-700zM477 1231l-39 39v55l-16 16h-55l-39 37v56l39 39h55l39 -39v-56
l16 -14h273l16 14v56l39 39h55l39 -39v-56l-39 -37h-55l-17 -16v-55l-38 -39h-273z" />
    <glyph glyph-name="Ohungarumlaut" unicode="&#x150;" 
d="M809 0h-389l-53 53v78l-25 25h-78l-55 53v1014l55 55h78l25 22v78l53 56h389l55 -56v-78l25 -22h76l55 -55v-1014l-55 -53h-76l-25 -25v-78zM834 1223l-25 22h-389l-23 -22v-1014l23 -23h389l25 23v1014zM492 1692v55l38 39h56l39 -39v-55l-39 -39h-56l-16 -17v-55
l-37 -37h-55l-39 37v55l39 39h55zM713 1692v55l37 39h55l39 -39v-55l-39 -39h-55l-15 -17v-55l-39 -37h-55l-39 37v55l39 39h55z" />
    <glyph glyph-name="ohungarumlaut" unicode="&#x151;" 
d="M418 0l-53 55v78l-25 23h-78l-53 55v700l53 56h78l25 22v78l53 55h389l55 -55v-78l25 -22h78l53 -56v-700l-53 -55h-78l-25 -23v-78l-55 -55h-389zM418 188h389l24 23v700l-24 23h-389l-23 -23v-700zM492 1380v56l38 39h56l39 -39v-56l-39 -39h-56l-16 -16v-55l-37 -37
h-55l-39 37v55l39 39h55zM713 1380v56l37 39h55l39 -39v-56l-39 -39h-55l-15 -16v-55l-39 -37h-55l-39 37v55l39 39h55z" />
    <glyph glyph-name="OE" unicode="&#x152;" 
d="M420 0l-55 55v78l-25 23h-78l-53 55v1012l53 55h78l25 22v78l55 56h545l53 -56v-78l-53 -55h-234l-39 41l-24 -24l39 -39v-389l-39 -39l24 -23l39 39h234l53 -55v-78l-53 -55h-234l-39 39l-24 -23l39 -39v-389l-39 -39l24 -22l39 38h234l53 -55v-78l-53 -55h-545z
M559 1262l-22 24l-41 -41h-76l-25 -22v-1012l25 -23h76l41 -38l22 22l-39 39v1012z" />
    <glyph glyph-name="oe" unicode="&#x153;" 
d="M862 522l-53 -55h-78l-39 39l-24 -23l39 -39v-233l-39 -39l24 -22l39 38h78l22 23v78l56 55h78l55 -55v-78l-55 -55h-78l-25 -23v-78l-53 -55h-389l-55 55v78l-25 23h-76l-55 55v700l55 56h76l25 22v78l55 55h389l53 -55v-78l25 -22h78l55 -56v-233l-55 -55h-78l-25 -23
v-78zM395 911v-700l25 -23h78l39 -38l22 22l-39 39v700l39 39l-22 23l-39 -39h-78zM668 639l24 -23l39 39h78l22 23v233l-22 23h-78l-39 39l-24 -23l39 -39v-233z" />
    <glyph glyph-name="Racute" unicode="&#x154;" 
d="M602 1694v53l39 39h55l39 -39v-53l-39 -39h-55l-16 -17v-55l-39 -39h-56l-36 39v55l36 39h56zM831 598v-545l56 -53h76l55 53v545l-55 55h-76l-25 25v78l25 22h76l55 56v389l-55 55h-76l-25 22v78l-55 56h-545l-53 -56v-1325l53 -53h78l55 53v545l-39 41l23 23l39 -39
h389zM807 1245l24 -22v-389l-24 -25h-389l-39 -39l-23 25l39 39v389l-39 39l23 22l39 -39h389z" />
    <glyph glyph-name="racute" unicode="&#x155;" 
d="M862 1067l-53 55h-236l-53 -55v-78l-24 -22h-78l-39 -39l-23 22l39 39v78l-55 55h-78l-53 -55v-1012l53 -55h78l55 55v701l-39 39l23 22l39 -39h78l55 56v77l22 23h236l22 -23v-77l56 -56h78l53 56v77l-53 56h-78l-25 22v78zM602 1436l39 39h55l37 -39v-56l-37 -39h-55
l-16 -16v-55l-39 -39h-56l-38 39v55l38 39h56l16 16v56z" />
    <glyph glyph-name="Rcommaaccent" unicode="&#x156;" 
d="M831 53v545l-24 25h-389l-39 39l-23 -23l39 -41v-545l-55 -53h-78l-53 53v1325l53 56h545l55 -56v-78l25 -22h76l55 -55v-389l-55 -56h-76l-25 -22v-78l25 -25h76l55 -55v-545l-55 -53h-76zM831 1223l-24 22h-389l-39 39l-23 -22l39 -39v-389l-39 -39l23 -25l39 39h389
l24 25v389zM612 -176l-26 -27h-56l-38 39v53l38 39h56l26 -26l29 26h55l39 -39v-53l-28 -29l28 -26v-55l-39 -39h-55l-16 -17v-53l-39 -39h-56l-38 39v53l38 39h56l16 17v55l27 26z" />
    <glyph glyph-name="rcommaaccent" unicode="&#x157;" 
d="M809 1122l53 -55v-78l25 -22h78l53 -56v-77l-53 -56h-78l-56 56v77l-22 23h-236l-22 -23v-77l-55 -56h-78l-39 39l-23 -22l39 -39v-701l-55 -55h-78l-53 55v1012l53 55h78l55 -55v-78l-39 -39l23 -22l39 39h78l24 22v78l53 55h236zM612 -176l-26 -27h-56l-38 39v53l38 39
h56l26 -26l29 26h55l39 -39v-53l-28 -29l28 -26v-55l-39 -39h-55l-16 -17v-53l-39 -39h-56l-38 39v53l38 39h56l16 17v55l27 26z" />
    <glyph glyph-name="Rcaron" unicode="&#x158;" 
d="M831 53v545l-24 25h-389l-39 39l-23 -23l39 -41v-545l-55 -53h-78l-53 53v1325l53 56h545l55 -56v-78l25 -22h76l55 -55v-389l-55 -56h-76l-25 -22v-78l25 -25h76l55 -55v-545l-55 -53h-76zM831 1223l-24 22h-389l-39 39l-23 -22l39 -39v-389l-39 -39l23 -25l39 39h389
l24 25v389zM477 1655l-39 39v53l39 39h53l39 -39v-53l17 -17h55l16 17v53l39 39h54l38 -39v-53l-38 -39h-54l-16 -17v-55l-39 -39h-55l-39 39v55l-17 17h-53z" />
    <glyph glyph-name="rcaron" unicode="&#x159;" 
d="M809 1122l53 -55v-78l25 -22h78l53 -56v-77l-53 -56h-78l-56 56v77l-22 23h-236l-22 -23v-77l-55 -56h-78l-39 39l-23 -22l39 -39v-701l-55 -55h-78l-53 55v1012l53 55h78l55 -55v-78l-39 -39l23 -22l39 39h78l24 22v78l53 55h236zM477 1341l-39 39v56l39 39h53l39 -39
v-56l17 -16h55l16 16v56l39 39h54l38 -39v-56l-38 -39h-54l-16 -16v-55l-39 -39h-55l-39 39v55l-17 16h-53z" />
    <glyph glyph-name="Sacute" unicode="&#x15a;" 
d="M602 1694v53l39 39h55l39 -39v-53l-39 -39h-55l-16 -17v-55l-39 -39h-56l-36 39v55l36 39h56zM831 1223l-24 22h-389l-23 -22v-389l23 -25h389l55 -53v-78l25 -25h78l53 -55v-389l-53 -53h-78l-25 -25v-78l-55 -53h-389l-53 53v78l-25 25h-78l-53 53v78l53 55h78l55 -55
v-78l23 -23h389l24 23v389l-24 25h-389l-53 55v78l-25 22h-78l-53 56v389l53 55h78l25 22v78l53 56h389l55 -56v-78l25 -22h78l53 -55v-78l-53 -55h-78l-56 55v78z" />
    <glyph glyph-name="sacute" unicode="&#x15b;" 
d="M862 600l-53 55h-391l-23 23v233l23 23h391l22 -23v-77l56 -56h78l53 56v77l-53 56h-78l-25 22v78l-53 55h-391l-53 -55v-78l-25 -22h-78l-53 -56v-233l53 -55h78l25 -23v-78l53 -55h391l22 -23v-233l-22 -23h-391l-23 23v78l-55 55h-78l-53 -55v-78l53 -55h78l25 -23
v-78l53 -55h391l53 55v78l25 23h78l53 55v233l-53 56h-78l-25 22v78zM602 1436l39 39h55l37 -39v-56l-37 -39h-55l-16 -16v-55l-39 -39h-56l-38 39v55l38 39h56l16 16v56z" />
    <glyph glyph-name="Scircumflex" unicode="&#x15c;" 
d="M438 1636l39 39h53l17 17v55l39 39h55l39 -39v-55l16 -17h54l38 -39v-53l-38 -39h-54l-39 39v53l-16 17h-55l-17 -17v-53l-39 -39h-53l-39 39v53zM831 1223l-24 22h-389l-23 -22v-389l23 -25h389l55 -53v-78l25 -25h78l53 -55v-389l-53 -53h-78l-25 -25v-78l-55 -53h-389
l-53 53v78l-25 25h-78l-53 53v78l53 55h78l55 -55v-78l23 -23h389l24 23v389l-24 25h-389l-53 55v78l-25 22h-78l-53 56v389l53 55h78l25 22v78l53 56h389l55 -56v-78l25 -22h78l53 -55v-78l-53 -55h-78l-56 55v78z" />
    <glyph glyph-name="scircumflex" unicode="&#x15d;" 
d="M809 655l53 -55v-78l25 -22h78l53 -56v-233l-53 -55h-78l-25 -23v-78l-53 -55h-391l-53 55v78l-25 23h-78l-53 55v78l53 55h78l55 -55v-78l23 -23h391l22 23v233l-22 23h-391l-53 55v78l-25 23h-78l-53 55v233l53 56h78l25 22v78l53 55h391l53 -55v-78l25 -22h78l53 -56
v-77l-53 -56h-78l-56 56v77l-22 23h-391l-23 -23v-233l23 -23h391zM438 1325l39 39h53l17 16v56l39 39h55l39 -39v-56l16 -16h54l38 -39v-55l-38 -39h-54l-39 39v55l-16 16h-55l-17 -16v-55l-39 -39h-53l-39 39v55z" />
    <glyph glyph-name="Scedilla" unicode="&#x15e;" 
d="M831 1223l-24 22h-389l-23 -22v-389l23 -25h389l55 -53v-78l25 -25h78l53 -55v-389l-53 -53h-78l-25 -25v-78l-55 -53h-389l-53 53v78l-25 25h-78l-53 53v78l53 55h78l55 -55v-78l23 -23h389l24 23v389l-24 25h-389l-53 55v78l-25 22h-78l-53 56v389l53 55h78l25 22v78
l53 56h389l55 -56v-78l25 -22h78l53 -55v-78l-53 -55h-78l-56 55v78zM612 -176l-26 -27h-56l-38 39v53l38 39h56l26 -26l29 26h55l39 -39v-53l-28 -29l28 -26v-55l-39 -39h-55l-16 -17v-53l-39 -39h-56l-38 39v53l38 39h56l16 17v55l27 26z" />
    <glyph glyph-name="scedilla" unicode="&#x15f;" 
d="M809 655l53 -55v-78l25 -22h78l53 -56v-233l-53 -55h-78l-25 -23v-78l-53 -55h-391l-53 55v78l-25 23h-78l-53 55v78l53 55h78l55 -55v-78l23 -23h391l22 23v233l-22 23h-391l-53 55v78l-25 23h-78l-53 55v233l53 56h78l25 22v78l53 55h391l53 -55v-78l25 -22h78l53 -56
v-77l-53 -56h-78l-56 56v77l-22 23h-391l-23 -23v-233l23 -23h391zM612 -176l-26 -27h-56l-38 39v53l38 39h56l26 -26l29 26h55l39 -39v-53l-28 -29l28 -26v-55l-39 -39h-55l-16 -17v-53l-39 -39h-56l-38 39v53l38 39h56l16 17v55l27 26z" />
    <glyph glyph-name="Scaron" unicode="&#x160;" 
d="M831 1223l-24 22h-389l-23 -22v-389l23 -25h389l55 -53v-78l25 -25h78l53 -55v-389l-53 -53h-78l-25 -25v-78l-55 -53h-389l-53 53v78l-25 25h-78l-53 53v78l53 55h78l55 -55v-78l23 -23h389l24 23v389l-24 25h-389l-53 55v78l-25 22h-78l-53 56v389l53 55h78l25 22v78
l53 56h389l55 -56v-78l25 -22h78l53 -55v-78l-53 -55h-78l-56 55v78zM477 1655l-39 39v53l39 39h53l39 -39v-53l17 -17h55l16 17v53l39 39h54l38 -39v-53l-38 -39h-54l-16 -17v-55l-39 -39h-55l-39 39v55l-17 17h-53z" />
    <glyph glyph-name="scaron" unicode="&#x161;" 
d="M809 655l53 -55v-78l25 -22h78l53 -56v-233l-53 -55h-78l-25 -23v-78l-53 -55h-391l-53 55v78l-25 23h-78l-53 55v78l53 55h78l55 -55v-78l23 -23h391l22 23v233l-22 23h-391l-53 55v78l-25 23h-78l-53 55v233l53 56h78l25 22v78l53 55h391l53 -55v-78l25 -22h78l53 -56
v-77l-53 -56h-78l-56 56v77l-22 23h-391l-23 -23v-233l23 -23h391zM477 1341l-39 39v56l39 39h53l39 -39v-56l17 -16h55l16 16v56l39 39h54l38 -39v-56l-38 -39h-54l-16 -16v-55l-39 -39h-55l-39 39v55l-17 16h-53z" />
    <glyph glyph-name="Tcommaaccent" unicode="&#x162;" 
d="M520 1223l39 39l-24 22l-39 -39h-234l-53 55v78l53 56h703l53 -56v-78l-53 -55h-234l-41 39l-22 -22l39 -39v-1170l-56 -53h-78l-53 53v1170zM612 -176l-26 -27h-56l-38 39v53l38 39h56l26 -26l29 26h55l39 -39v-53l-28 -29l28 -26v-55l-39 -39h-55l-16 -17v-53l-39 -39
h-56l-38 39v53l38 39h56l16 17v55l27 26z" />
    <glyph glyph-name="tcommaaccent" unicode="&#x163;" 
d="M575 0l-55 55v78l-24 23h-78l-53 55v700l38 39l-24 23l-39 -39h-78l-53 55v78l53 55h78l39 -39l24 23l-38 39v78l53 55h78l55 -55v-78l-39 -39l23 -23l40 39h234l53 -55v-78l-53 -55h-234l-40 39l-23 -23l39 -39v-700l24 -23h234l22 23v78l56 55h78l53 -55v-78l-53 -55
h-78l-25 -23v-78l-53 -55h-234zM612 -176l-26 -27h-56l-38 39v53l38 39h56l26 -26l29 26h55l39 -39v-53l-28 -29l28 -26v-55l-39 -39h-55l-16 -17v-53l-39 -39h-56l-38 39v53l38 39h56l16 17v55l27 26z" />
    <glyph glyph-name="Tcaron" unicode="&#x164;" 
d="M520 1223l39 39l-24 22l-39 -39h-234l-53 55v78l53 56h703l53 -56v-78l-53 -55h-234l-41 39l-22 -22l39 -39v-1170l-56 -53h-78l-53 53v1170zM477 1655l-39 39v53l39 39h53l39 -39v-53l17 -17h55l16 17v53l39 39h54l38 -39v-53l-38 -39h-54l-16 -17v-55l-39 -39h-55
l-39 39v55l-17 17h-53z" />
    <glyph glyph-name="tcaron" unicode="&#x165;" 
d="M520 55l55 -55h234l53 55v78l25 23h78l53 55v78l-53 55h-78l-56 -55v-78l-22 -23h-234l-24 23v700l-39 39l23 23l40 -39h234l53 55v78l-53 55h-234l-40 -39l-23 23l39 39v78l-55 55h-78l-53 -55v-78l38 -39l-24 -23l-39 39h-78l-53 -55v-78l53 -55h78l39 39l24 -23
l-38 -39v-700l53 -55h78l24 -23v-78zM1071 1329l-27 -26h-55l-39 38v54l39 39h55l27 -27l29 27h55l39 -39v-54l-29 -28l29 -27v-55l-39 -39h-55l-17 -16v-54l-39 -39h-55l-39 39v54l39 38h55l17 17v55l26 27z" />
    <glyph glyph-name="Tbar" unicode="&#x166;" 
d="M520 1223l39 39l-22 24l-41 -39h-234l-53 53v78l53 56h703l53 -56v-78l-53 -53h-234l-39 39l-24 -24l39 -39v-234l-39 -39l24 -22l39 39h234l53 -56v-77l-53 -56h-234l-39 39l-24 -22l39 -39v-701l-54 -55h-78l-55 55v701l39 39l-22 22l-41 -39h-234l-53 56v77l53 56h234
l41 -39l22 22l-39 39v234z" />
    <glyph glyph-name="tbar" unicode="&#x167;" 
d="M520 55v78l-24 23h-76l-55 55v389l38 39l-24 23l-39 -39h-78l-53 55v78l53 55h78l39 -39l24 23l-38 39v77l38 39l-24 23l-39 -39h-78l-53 55v78l53 55h78l39 -39l24 23l-38 39v78l55 55h76l55 -55v-78l-39 -39l25 -23l38 39h234l53 -55v-78l-53 -55h-234l-38 39l-25 -23
l39 -39v-77l-39 -39l25 -23l38 39h234l53 -55v-78l-53 -55h-234l-38 39l-25 -23l39 -39v-389l24 -23h234l22 23v78l56 55h78l53 -55v-78l-53 -55h-78l-25 -23v-78l-53 -55h-234z" />
    <glyph glyph-name="Utilde" unicode="&#x168;" 
d="M831 209v1169l56 56h78l53 -56v-1169l-53 -53h-78l-25 -25v-78l-55 -53h-389l-53 53v78l-25 25h-78l-53 53v1169l53 56h78l55 -56v-1169l23 -23h389zM438 1747l39 39h164l39 -39v-55l16 -17h54l16 17v55l39 39h55l39 -39v-55l-39 -39h-55l-17 -17v-53l-38 -39h-54l-39 39
v53l-16 17h-164l-16 -17v-53l-39 -39h-55l-39 39v53l39 39h55l16 17v55z" />
    <glyph glyph-name="utilde" unicode="&#x169;" 
d="M365 55l53 -55h547l53 55v1012l-53 55h-78l-56 -55v-856l39 -39l-22 -22l-39 38h-391l-23 23v856l-55 55h-78l-53 -55v-856l53 -55h78l25 -23v-78zM438 1436l39 39h164l39 -39v-56l16 -16h54l16 16v56l39 39h55l39 -39v-56l-39 -39h-55l-17 -16v-55l-38 -39h-54l-39 39
v55l-16 16h-164l-16 -16v-55l-39 -39h-55l-39 39v55l39 39h55l16 16v56z" />
    <glyph glyph-name="Umacron" unicode="&#x16a;" 
d="M831 209v1169l56 56h78l53 -56v-1169l-53 -53h-78l-25 -25v-78l-55 -53h-389l-53 53v78l-25 25h-78l-53 53v1169l53 56h78l55 -56v-1169l23 -23h389zM860 1581h-493l-39 39v55l39 39h493l39 -39v-55z" />
    <glyph glyph-name="umacron" unicode="&#x16b;" 
d="M365 55l53 -55h547l53 55v1012l-53 55h-78l-56 -55v-856l39 -39l-22 -22l-39 38h-391l-23 23v856l-55 55h-78l-53 -55v-856l53 -55h78l25 -23v-78zM860 1268h-493l-39 39v55l39 39h493l39 -39v-55z" />
    <glyph glyph-name="Ubreve" unicode="&#x16c;" 
d="M831 209v1169l56 56h78l53 -56v-1169l-53 -53h-78l-25 -25v-78l-55 -53h-389l-53 53v78l-25 25h-78l-53 53v1169l53 56h78l55 -56v-1169l23 -23h389zM477 1544l-39 39v55l-16 17h-55l-39 37v55l39 39h55l39 -39v-55l16 -15h273l16 15v55l39 39h55l39 -39v-55l-39 -37h-55
l-17 -17v-55l-38 -39h-273z" />
    <glyph glyph-name="ubreve" unicode="&#x16d;" 
d="M418 0l-53 55v78l-25 23h-78l-53 55v856l53 55h78l55 -55v-856l23 -23h391l39 -38l22 22l-39 39v856l56 55h78l53 -55v-1012l-53 -55h-547zM477 1231l-39 39v55l-16 16h-55l-39 37v56l39 39h55l39 -39v-56l16 -14h273l16 14v56l39 39h55l39 -39v-56l-39 -37h-55l-17 -16
v-55l-38 -39h-273z" />
    <glyph glyph-name="Uring" unicode="&#x16e;" 
d="M831 209v1169l56 56h78l53 -56v-1169l-53 -53h-78l-25 -25v-78l-55 -53h-389l-53 53v78l-25 25h-78l-53 53v1169l53 56h78l55 -56v-1169l23 -23h389zM414 1563v96l22 24h33l8 9v32l23 23h32l11 10v31l22 24h97l22 -24v-31l10 -10h33l23 -23v-32l8 -9h33l22 -24v-96
l-22 -23h-33l-8 -10v-31l-23 -22h-33l-10 -11v-32l-22 -23h-97l-22 23v32l-11 11h-32l-23 22v31l-8 10h-33zM500 1669l-8 -10v-96l8 -11h32l23 -22v-31l10 -10h97l10 10v31l22 22h33l8 11v96l-8 10h-33l-22 23v32l-10 11h-97l-10 -11v-32l-23 -23h-32z" />
    <glyph glyph-name="uring" unicode="&#x16f;" 
d="M418 0l-53 55v78l-25 23h-78l-53 55v856l53 55h78l55 -55v-856l23 -23h391l39 -38l22 22l-39 39v856l56 55h78l53 -55v-1012l-53 -55h-547zM414 1251v97l22 24h33l8 8v33l23 23h32l11 10v31l22 24h97l22 -24v-31l10 -10h33l23 -23v-33l8 -8h33l22 -24v-97l-22 -22h-33
l-8 -10v-31l-23 -23h-33l-10 -10v-33l-22 -22h-97l-22 22v33l-11 10h-32l-23 23v31l-8 10h-33zM500 1358l-8 -10v-97l8 -10h32l23 -22v-31l10 -10h97l10 10v31l22 22h33l8 10v97l-8 10h-33l-22 22v33l-10 10h-97l-10 -10v-33l-23 -22h-32z" />
    <glyph glyph-name="Uhungarumlaut" unicode="&#x170;" 
d="M831 209v1169l56 56h78l53 -56v-1169l-53 -53h-78l-25 -25v-78l-55 -53h-389l-53 53v78l-25 25h-78l-53 53v1169l53 56h78l55 -56v-1169l23 -23h389zM492 1692v55l38 39h56l39 -39v-55l-39 -39h-56l-16 -17v-55l-37 -37h-55l-39 37v55l39 39h55zM713 1692v55l37 39h55
l39 -39v-55l-39 -39h-55l-15 -17v-55l-39 -37h-55l-39 37v55l39 39h55z" />
    <glyph glyph-name="uhungarumlaut" unicode="&#x171;" 
d="M418 0l-53 55v78l-25 23h-78l-53 55v856l53 55h78l55 -55v-856l23 -23h391l39 -38l22 22l-39 39v856l56 55h78l53 -55v-1012l-53 -55h-547zM492 1380v56l38 39h56l39 -39v-56l-39 -39h-56l-16 -16v-55l-37 -37h-55l-39 37v55l39 39h55zM713 1380v56l37 39h55l39 -39v-56
l-39 -39h-55l-15 -16v-55l-39 -37h-55l-39 37v55l39 39h55z" />
    <glyph glyph-name="Uogonek" unicode="&#x172;" 
d="M831 211v1167l56 56h78l53 -56v-1167l-53 -55h-78l-25 -23v-78l-53 -55h-129v-164l-39 -39h-55l-17 -16v-55l17 -17h164l38 -39v-53l-38 -39h-164l-39 39v53l-17 17h-53l-39 39v55l39 39h53l17 16v164h-127l-55 55v78l-25 23h-78l-53 55v1167l53 56h78l55 -56v-1167
l25 -23h389z" />
    <glyph glyph-name="uogonek" unicode="&#x173;" 
d="M365 55v78l-25 23h-78l-53 55v856l53 55h78l55 -55v-856l25 -23h389l39 -38l22 22l-39 39v856l56 55h78l53 -55v-1012l-53 -55h-285v-164l-39 -39h-55l-17 -16v-55l17 -17h164l38 -39v-53l-38 -39h-164l-39 39v53l-17 17h-53l-39 39v55l39 39h53l17 16v164h-127z" />
    <glyph glyph-name="Wcircumflex" unicode="&#x174;" 
d="M438 1636l39 39h53l17 17v55l39 39h55l39 -39v-55l16 -17h54l38 -39v-53l-38 -39h-54l-39 39v53l-16 17h-55l-17 -17v-53l-39 -39h-53l-39 39v53zM831 209v1169l56 56h78l53 -56v-1169l-53 -53h-78l-25 -25v-78l-55 -53h-76l-55 53v78l-25 25h-78l-22 -25v-78l-55 -53
h-78l-53 53v78l-25 25h-78l-53 53v1169l53 56h78l55 -56v-1169l23 -23h78l24 23v389l53 55h78l56 -55v-389l24 -23h76z" />
    <glyph glyph-name="wcircumflex" unicode="&#x175;" 
d="M420 0l-55 55v78l-25 23h-78l-53 55v856l53 55h78l55 -55v-856l25 -23h76l24 23v389l55 55h78l54 -55v-389l24 -23h78l22 23v856l56 55h78l53 -55v-856l-53 -55h-78l-25 -23v-78l-53 -55h-78l-55 55v78l-23 23h-78l-24 -23v-78l-55 -55h-76zM438 1325l39 39h53l17 16v56
l39 39h55l39 -39v-56l16 -16h54l38 -39v-55l-38 -39h-54l-39 39v55l-16 16h-55l-17 -16v-55l-39 -39h-53l-39 39v55z" />
    <glyph glyph-name="Ycircumflex" unicode="&#x176;" 
d="M438 1636l39 39h53l17 17v55l39 39h55l39 -39v-55l16 -17h54l38 -39v-53l-38 -39h-54l-39 39v53l-16 17h-55l-17 -17v-53l-39 -39h-53l-39 39v53zM831 989v389l56 56h78l55 -56v-389l-55 -55h-78l-25 -23v-77l-53 -56h-78l-24 -22v-701l-54 -55h-78l-55 55v701l-22 22
h-78l-55 56v77l-25 23h-76l-55 55v389l55 56h76l55 -56v-389l25 -22h78l53 -56v-77l24 -23h78l23 23v77l55 56h78z" />
    <glyph glyph-name="ycircumflex" unicode="&#x177;" 
d="M438 1325l39 39h53l17 16v56l39 39h55l39 -39v-56l16 -16h54l38 -39v-55l-38 -39h-54l-39 39v55l-16 16h-55l-17 -16v-55l-39 -39h-53l-39 39v55zM831 -23l39 39l-22 23l-39 -39h-389l-55 55v78l-25 23h-78l-53 55v856l53 55h78l55 -55v-856l25 -23h389l39 -38l22 22
l-39 39v856l56 55h78l53 -55v-1167l-53 -56h-78l-25 -22v-78l-53 -55h-389l-55 55v78l55 55h389l22 23v77z" />
    <glyph glyph-name="Ydieresis" unicode="&#x178;" 
d="M657 1747l39 39h54l38 -39v-164l-38 -39h-54l-39 39v164zM438 1583v164l39 39h53l39 -39v-164l-39 -39h-53zM831 989v389l56 56h78l55 -56v-389l-55 -55h-78l-25 -23v-77l-53 -56h-78l-24 -22v-701l-54 -55h-78l-55 55v701l-22 22h-78l-55 56v77l-25 23h-76l-55 55v389
l55 56h76l55 -56v-389l25 -22h78l53 -56v-77l24 -23h78l23 23v77l55 56h78z" />
    <glyph glyph-name="Zacute" unicode="&#x179;" 
d="M602 1694v53l39 39h55l39 -39v-53l-39 -39h-55l-16 -17v-55l-39 -39h-56l-36 39v55l36 39h56zM831 1223l39 39l-22 22l-39 -39h-545l-55 55v78l55 56h701l55 -56v-389l-55 -55h-78l-25 -23v-77l-364 -367h-78l-25 -23v-233l-39 -39l25 -25l39 39h545l55 -55v-76l-55 -55
h-701l-55 55v389l55 54h76l25 24v78l366 367h78l22 22v234z" />
    <glyph glyph-name="zacute" unicode="&#x17a;" 
d="M831 911l39 39l-22 23l-39 -39h-547l-53 55v78l53 55h703l53 -55v-233l-53 -56h-78l-25 -22v-78l-366 -367h-76l-25 -22v-78l-39 -39l23 -22l41 38h545l53 -55v-78l-53 -55h-703l-53 55v234l53 55h78l25 23v77l366 367h78l22 23v77zM602 1436l39 39h55l37 -39v-56
l-37 -39h-55l-16 -16v-55l-39 -39h-56l-38 39v55l38 39h56l16 16v56z" />
    <glyph glyph-name="Zdotaccent" unicode="&#x17b;" 
d="M831 1223l39 39l-22 22l-39 -39h-545l-55 55v78l55 56h701l55 -56v-389l-55 -55h-78l-25 -23v-77l-364 -367h-78l-25 -23v-233l-39 -39l25 -25l39 39h545l55 -55v-76l-55 -55h-701l-55 55v389l55 54h76l25 24v78l366 367h78l22 22v234zM510 1731l55 55h97l53 -55v-97
l-53 -53h-97l-55 53v97z" />
    <glyph glyph-name="zdotaccent" unicode="&#x17c;" 
d="M831 911l39 39l-22 23l-39 -39h-547l-53 55v78l53 55h703l53 -55v-233l-53 -56h-78l-25 -22v-78l-366 -367h-76l-25 -22v-78l-39 -39l23 -22l41 38h545l53 -55v-78l-53 -55h-703l-53 55v234l53 55h78l25 23v77l366 367h78l22 23v77zM510 1419l55 56h97l53 -56v-96
l-53 -53h-97l-55 53v96z" />
    <glyph glyph-name="Zcaron" unicode="&#x17d;" 
d="M831 1223l39 39l-22 22l-39 -39h-545l-55 55v78l55 56h701l55 -56v-389l-55 -55h-78l-25 -23v-77l-364 -367h-78l-25 -23v-233l-39 -39l25 -25l39 39h545l55 -55v-76l-55 -55h-701l-55 55v389l55 54h76l25 24v78l366 367h78l22 22v234zM477 1655l-39 39v53l39 39h53
l39 -39v-53l17 -17h55l16 17v53l39 39h54l38 -39v-53l-38 -39h-54l-16 -17v-55l-39 -39h-55l-39 39v55l-17 17h-53z" />
    <glyph glyph-name="zcaron" unicode="&#x17e;" 
d="M831 911l39 39l-22 23l-39 -39h-547l-53 55v78l53 55h703l53 -55v-233l-53 -56h-78l-25 -22v-78l-366 -367h-76l-25 -22v-78l-39 -39l23 -22l41 38h545l53 -55v-78l-53 -55h-703l-53 55v234l53 55h78l25 23v77l366 367h78l22 23v77zM477 1341l-39 39v56l39 39h53l39 -39
v-56l17 -16h55l16 16v56l39 39h54l38 -39v-56l-38 -39h-54l-16 -16v-55l-39 -39h-55l-39 39v55l-17 16h-53z" />
    <glyph glyph-name="longs" unicode="&#x17f;" 
d="M598 1378l55 56h234l53 -56v-78l-53 -53h-234l-24 -24v-1168l-56 -55h-75l-56 55v701l39 39l-22 22l-41 -39h-76l-55 56v77l55 56h76l41 -39l22 22l-39 39v234l56 55h75l25 22v78z" />
    <glyph glyph-name="florin" unicode="&#x192;" 
d="M676 1378l55 56h234l53 -56v-78l-53 -55h-234l-24 -22v-234l-39 -39l24 -22l39 39h234l53 -56v-77l-53 -56h-234l-39 39l-24 -22l39 -39v-1012l-54 -55h-391l-53 55v78l53 55h234l41 -39l22 23l-39 39v856l39 39l-22 22l-41 -39h-234l-53 56v77l53 56h234l41 -39l22 22
l-39 39v234l55 55h78l23 22v78z" />
    <glyph glyph-name="Ohorn" unicode="&#x1a0;" 
d="M1128 1120v275l39 39h56l39 -39v-275l-39 -37h-56l-16 -16v-55l-39 -39h-94v-762l-53 -55h-78l-25 -23v-78l-53 -55h-389l-55 55v78l-25 23h-78l-53 55v1012l53 55h78l25 22v78l55 56h389l53 -56v-78l25 -22h78l53 -55v-119h94zM831 1223l-22 24h-389l-25 -24v-1012
l25 -23h389l22 23v1012z" />
    <glyph glyph-name="ohorn" unicode="&#x1a1;" 
d="M420 0l-55 55v78l-25 23h-78l-53 55v700l53 56h78l25 22v78l55 55h389l53 -55v-78l25 -22h78l53 -56v-118h94l16 16v274l39 39h56l39 -39v-274l-39 -39h-56l-16 -16v-54l-39 -38h-94v-451l-53 -55h-78l-25 -23v-78l-53 -55h-389zM420 188h389l22 23v700l-22 23h-389
l-25 -23v-700z" />
    <glyph glyph-name="Uhorn" unicode="&#x1af;" 
d="M831 211v1167l56 56h78l53 -56v-274h94l16 16v275l39 39h56l39 -39v-275l-39 -37h-56l-16 -16v-55l-39 -39h-94v-762l-53 -55h-78l-25 -23v-78l-53 -55h-389l-55 55v78l-25 23h-78l-53 55v1167l53 56h78l55 -56v-1167l25 -23h389z" />
    <glyph glyph-name="uhorn" unicode="&#x1b0;" 
d="M365 55v78l-25 23h-78l-53 55v856l53 55h78l55 -55v-856l25 -23h389l39 -38l22 22l-39 39v856l56 55h78l53 -55v-274h94l16 16v274l39 39h56l39 -39v-274l-39 -39h-56l-16 -16v-54l-39 -38h-94v-607l-53 -55h-545z" />
    <glyph glyph-name="uni01CD" unicode="&#x1cd;" 
d="M477 1655l-39 39v53l39 39h53l39 -39v-53l17 -17h55l16 17v53l39 39h54l38 -39v-53l-38 -39h-54l-16 -17v-55l-39 -39h-55l-39 39v55l-17 17h-53zM864 1300l23 -22h78l55 -55v-1170l-55 -53h-78l-53 53v545l38 41l-24 23l-39 -39h-389l-39 39l-23 -23l39 -41v-545
l-55 -53h-78l-55 53v1170l55 55h78l23 22v78l55 56h389l55 -56v-78zM834 1223l-25 22h-389l-23 -22v-389l-39 -39l23 -25l39 39h389l39 -39l24 25l-38 39v389z" />
    <glyph glyph-name="uni01CE" unicode="&#x1ce;" 
d="M477 1341l-39 39v56l39 39h53l39 -39v-56l17 -16h55l16 16v56l39 39h54l38 -39v-56l-38 -39h-54l-16 -16v-55l-39 -39h-55l-39 39v55l-17 16h-53zM420 0l-53 55v78l-25 23h-78l-55 55v233l55 56h78l25 22v78l53 55h389l39 -39l24 23l-38 39v233l-25 23h-389l-23 -23v-77
l-55 -56h-78l-55 56v77l55 56h78l25 22v78l53 55h389l55 -55v-78l25 -22h76l55 -56v-856l-55 -55h-545zM420 188h389l39 -38l24 22l-38 39v233l38 39l-24 23l-39 -39h-389l-23 -23v-233z" />
    <glyph glyph-name="uni01CF" unicode="&#x1cf;" 
d="M477 1655l-39 39v53l39 39h53l39 -39v-53l17 -17h55l16 17v53l39 39h54l38 -39v-53l-38 -39h-54l-16 -17v-55l-39 -39h-55l-39 39v55l-17 17h-53zM520 1223l39 39l-22 22l-41 -39h-76l-55 55v78l55 56h389l53 -56v-78l-53 -55h-78l-39 39l-24 -22l39 -39v-1012l-39 -39
l24 -25l39 39h78l53 -55v-76l-53 -55h-389l-55 55v76l55 55h76l41 -39l22 25l-39 39v1012z" />
    <glyph glyph-name="uni01D0" unicode="&#x1d0;" 
d="M477 1341l-39 39v56l39 39h53l39 -39v-56l17 -16h55l16 16v56l39 39h54l38 -39v-56l-38 -39h-54l-16 -16v-55l-39 -39h-55l-39 39v55l-17 16h-53zM692 973l-24 -23l39 -39v-700l-39 -39l24 -22l39 38h78l53 -55v-78l-53 -55h-389l-55 55v78l55 55h76l41 -38l22 22l-39 39
v700l39 39l-22 23l-41 -39h-76l-55 55v78l55 55h389l53 -55v-78l-53 -55h-78z" />
    <glyph glyph-name="uni01D1" unicode="&#x1d1;" 
d="M477 1655l-39 39v53l39 39h53l39 -39v-53l17 -17h55l16 17v53l39 39h54l38 -39v-53l-38 -39h-54l-16 -17v-55l-39 -39h-55l-39 39v55l-17 17h-53zM809 0h-389l-53 53v78l-25 25h-78l-55 53v1014l55 55h78l25 22v78l53 56h389l55 -56v-78l25 -22h76l55 -55v-1014l-55 -53
h-76l-25 -25v-78zM834 1223l-25 22h-389l-23 -22v-1014l23 -23h389l25 23v1014z" />
    <glyph glyph-name="uni01D2" unicode="&#x1d2;" 
d="M477 1341l-39 39v56l39 39h53l39 -39v-56l17 -16h55l16 16v56l39 39h54l38 -39v-56l-38 -39h-54l-16 -16v-55l-39 -39h-55l-39 39v55l-17 16h-53zM418 0l-53 55v78l-25 23h-78l-53 55v700l53 56h78l25 22v78l53 55h389l55 -55v-78l25 -22h78l53 -56v-700l-53 -55h-78
l-25 -23v-78l-55 -55h-389zM418 188h389l24 23v700l-24 23h-389l-23 -23v-700z" />
    <glyph glyph-name="uni01D3" unicode="&#x1d3;" 
d="M477 1655l-39 39v53l39 39h53l39 -39v-53l17 -17h55l16 17v53l39 39h54l38 -39v-53l-38 -39h-54l-16 -17v-55l-39 -39h-55l-39 39v55l-17 17h-53zM831 209v1169l56 56h78l53 -56v-1169l-53 -53h-78l-25 -25v-78l-55 -53h-389l-53 53v78l-25 25h-78l-53 53v1169l53 56h78
l55 -56v-1169l23 -23h389z" />
    <glyph glyph-name="uni01D4" unicode="&#x1d4;" 
d="M477 1341l-39 39v56l39 39h53l39 -39v-56l17 -16h55l16 16v56l39 39h54l38 -39v-56l-38 -39h-54l-16 -16v-55l-39 -39h-55l-39 39v55l-17 16h-53zM418 0l-53 55v78l-25 23h-78l-53 55v856l53 55h78l55 -55v-856l23 -23h391l39 -38l22 22l-39 39v856l56 55h78l53 -55
v-1012l-53 -55h-547z" />
    <glyph glyph-name="uni01D5" unicode="&#x1d5;" 
d="M831 209v1169l56 56h78l53 -56v-1169l-53 -53h-78l-25 -25v-78l-55 -53h-389l-53 53v78l-25 25h-78l-53 53v1169l53 56h78l55 -56v-1169l23 -23h389zM657 1747l39 39h54l38 -39v-164l-38 -39h-54l-39 39v164zM438 1583v164l39 39h53l39 -39v-164l-39 -39h-53z" />
    <glyph glyph-name="uni01D6" unicode="&#x1d6;" 
d="M365 55l53 -55h547l53 55v1012l-53 55h-78l-56 -55v-856l39 -39l-22 -22l-39 38h-391l-23 23v856l-55 55h-78l-53 -55v-856l53 -55h78l25 -23v-78zM657 1436l39 39h54l38 -39v-166l-38 -39h-54l-39 39v166zM438 1270v166l39 39h53l39 -39v-166l-39 -39h-53z" />
    <glyph glyph-name="uni01D7" unicode="&#x1d7;" 
d="M831 209v1169l56 56h78l53 -56v-1169l-53 -53h-78l-25 -25v-78l-55 -53h-389l-53 53v78l-25 25h-78l-53 53v1169l53 56h78l55 -56v-1169l23 -23h389zM713 1747l39 39h53l39 -39v-164l-39 -39h-53l-39 39v164zM383 1583v164l39 39h55l37 -39v-164l-37 -39h-55z" />
    <glyph glyph-name="uni01D8" unicode="&#x1d8;" 
d="M365 55l53 -55h547l53 55v1012l-53 55h-78l-56 -55v-856l39 -39l-22 -22l-39 38h-391l-23 23v856l-55 55h-78l-53 -55v-856l53 -55h78l25 -23v-78zM713 1436l39 39h53l39 -39v-164l-39 -39h-53l-39 39v164zM383 1272v164l39 39h55l37 -39v-164l-37 -39h-55zM602 1694v53
l39 39h55l39 -39v-53l-39 -39h-55l-16 -17v-55l-39 -39h-56l-36 39v55l36 39h56z" />
    <glyph glyph-name="uni01D9" unicode="&#x1d9;" 
d="M831 209v1169l56 56h78l53 -56v-1169l-53 -53h-78l-25 -25v-78l-55 -53h-389l-53 53v78l-25 25h-78l-53 53v1169l53 56h78l55 -56v-1169l23 -23h389zM262 1747l39 39h55l39 -39v-164l-39 -39h-55l-39 39v164zM831 1583v164l39 39h56l39 -39v-164l-39 -39h-56zM750 1708
h-273l-39 39v53l39 39h273l38 -39v-53z" />
    <glyph glyph-name="uni01DA" unicode="&#x1da;" 
d="M418 0l-53 55v78l-25 23h-78l-53 55v856l53 55h78l55 -55v-856l23 -23h391l39 -38l22 22l-39 39v856l56 55h78l53 -55v-1012l-53 -55h-547zM713 1436l39 39h53l39 -39v-164l-39 -39h-53l-39 39v164zM383 1272v164l39 39h55l37 -39v-164l-37 -39h-55zM477 1655l-39 39v53
l39 39h53l39 -39v-53l17 -17h55l16 17v53l39 39h54l38 -39v-53l-38 -39h-54l-16 -17v-55l-39 -39h-55l-39 39v55l-17 17h-53z" />
    <glyph glyph-name="uni01DB" unicode="&#x1db;" 
d="M831 209v1169l56 56h78l53 -56v-1169l-53 -53h-78l-25 -25v-78l-55 -53h-389l-53 53v78l-25 25h-78l-53 53v1169l53 56h78l55 -56v-1169l23 -23h389zM713 1747l39 39h53l39 -39v-164l-39 -39h-53l-39 39v164zM383 1583v164l39 39h55l37 -39v-164l-37 -39h-55z" />
    <glyph glyph-name="uni01DC" unicode="&#x1dc;" 
d="M365 55l53 -55h547l53 55v1012l-53 55h-78l-56 -55v-856l39 -39l-22 -22l-39 38h-391l-23 23v856l-55 55h-78l-53 -55v-856l53 -55h78l25 -23v-78zM713 1436l39 39h53l39 -39v-164l-39 -39h-53l-39 39v164zM383 1272v164l39 39h55l37 -39v-164l-37 -39h-55zM627 1747v-53
l16 -17h55l37 -39v-55l-37 -39h-55l-39 39v55l-16 17h-56l-38 39v53l38 39h56z" />
    <glyph glyph-name="uni01DD" unicode="&#x1dd;" 
d="M365 1067l53 55h391l53 -55v-78l25 -24h78l53 -54v-700l-53 -55h-78l-25 -25v-78l-53 -53h-391l-53 53v78l-25 25h-78l-53 55v233l53 54h78l25 24v78l53 53h391l39 -39l22 25l-39 39v233l-22 23h-391l-23 -23v-77l-55 -56h-78l-53 56v77l53 54h78l25 24v78zM809 467h-391
l-23 -23v-233l23 -25h391l22 25v233l39 39l-22 23z" />
    <glyph glyph-name="uni01DE" unicode="&#x1de;" 
d="M657 1747l39 39h54l38 -39v-164l-38 -39h-54l-39 39v164zM438 1583v164l39 39h53l39 -39v-164l-39 -39h-53zM864 1300l23 -22h78l55 -55v-1170l-55 -53h-78l-53 53v545l38 41l-24 23l-39 -39h-389l-39 39l-23 -23l39 -41v-545l-55 -53h-78l-55 53v1170l55 55h78l23 22v78
l55 56h389l55 -56v-78zM834 1223l-25 22h-389l-23 -22v-389l-39 -39l23 -25l39 39h389l39 -39l24 25l-38 39v389z" />
    <glyph glyph-name="uni01DF" unicode="&#x1df;" 
d="M365 55l53 -55h547l53 55v856l-53 56h-78l-25 22v78l-55 55h-389l-53 -55v-78l-25 -22h-78l-53 -56v-77l53 -56h78l55 56v77l23 23h389l24 -23v-233l39 -39l-22 -23l-41 39h-389l-53 -55v-78l-25 -22h-78l-53 -56v-233l53 -55h78l25 -23v-78zM807 188h-389l-23 23v233
l23 23h389l41 39l22 -23l-39 -39v-233l39 -39l-22 -22zM713 1436l39 39h53l39 -39v-164l-39 -39h-53l-39 39v164zM383 1272v164l39 39h55l37 -39v-164l-37 -39h-55zM860 1581h-493l-39 39v55l39 39h493l39 -39v-55z" />
    <glyph glyph-name="uni01E0" unicode="&#x1e0;" 
d="M864 1300l23 -22h78l55 -55v-1170l-55 -53h-78l-53 53v545l38 41l-24 23l-39 -39h-389l-39 39l-23 -23l39 -41v-545l-55 -53h-78l-55 53v1170l55 55h78l23 22v78l55 56h389l55 -56v-78zM834 1223l-25 22h-389l-23 -22v-389l-39 -39l23 -25l39 39h389l39 -39l24 25l-38 39
v389zM510 1731l55 55h97l53 -55v-97l-53 -53h-97l-55 53v97z" />
    <glyph glyph-name="uni01E1" unicode="&#x1e1;" 
d="M365 55l53 -55h547l53 55v856l-53 56h-78l-25 22v78l-55 55h-389l-53 -55v-78l-25 -22h-78l-53 -56v-77l53 -56h78l55 56v77l23 23h389l24 -23v-233l39 -39l-22 -23l-41 39h-389l-53 -55v-78l-25 -22h-78l-53 -56v-233l53 -55h78l25 -23v-78zM807 188h-389l-23 23v233
l23 23h389l41 39l22 -23l-39 -39v-233l39 -39l-22 -22zM860 1581h-493l-39 39v55l39 39h493l39 -39v-55zM510 1419l55 56h97l53 -56v-96l-53 -53h-97l-55 53v96z" />
    <glyph glyph-name="uni01E2" unicode="&#x1e2;" 
d="M365 1378l55 56h545l53 -56v-78l-53 -55h-234l-39 41l-24 -24l39 -39v-389l-39 -39l24 -23l39 39h234l53 -55v-78l-53 -55h-234l-39 39l-24 -23l39 -39v-389l-39 -39l24 -22l39 38h234l53 -55v-78l-53 -55h-390l-55 55v545l39 39l-22 23l-41 -39h-76l-41 39l-23 -23
l39 -39v-545l-55 -55h-78l-53 55v1168l53 55h78l25 22v78zM559 1262l-22 24l-41 -41h-76l-25 -22v-389l-39 -39l23 -23l41 39h76l41 -39l22 23l-39 39v389zM860 1581h-493l-39 39v55l39 39h493l39 -39v-55z" />
    <glyph glyph-name="uni01E3" unicode="&#x1e3;" 
d="M862 522l-53 -55h-78l-39 39l-24 -23l39 -39v-233l-39 -39l24 -22l39 38h78l22 23v78l56 55h78l55 -55v-78l-55 -55h-78l-25 -23v-78l-53 -55h-389l-55 55v78l-23 23h-78l-55 55v233l55 56h78l23 22v78l55 55h78l39 -39l22 23l-39 39v233l39 39l-22 23l-39 -39h-78
l-25 -23v-77l-53 -56h-78l-55 56v77l55 56h78l23 22v78l55 55h389l53 -55v-78l25 -22h78l55 -56v-233l-55 -55h-78l-25 -23v-78zM668 639l24 -23l39 39h78l22 23v233l-22 23h-78l-39 39l-24 -23l39 -39v-233zM537 150l22 22l-39 39v233l39 39l-22 23l-39 -39h-78l-25 -23
v-233l25 -23h78zM860 1268h-493l-39 39v55l39 39h493l39 -39v-55z" />
    <glyph glyph-name="uni01E4" unicode="&#x1e4;" 
d="M365 55v78l-25 23h-78l-53 55v1012l53 55h78l25 22v78l55 56h389l53 -56v-78l25 -22h78l53 -55v-78l-53 -55h-78l-56 55v78l-22 24h-389l-25 -24v-1012l25 -23h389l22 23v78l39 39l-22 22l-39 -39h-234l-55 56v77l55 56h234l39 -39l22 22l-39 39v78l39 39l-22 23l-39 -39
h-234l-55 55v78l55 55h390l53 -55v-234l-39 -39l25 -22l38 39h78l56 -56v-77l-56 -56h-78l-38 39l-25 -22l39 -39v-78l-53 -55h-78l-25 -23v-78l-53 -55h-389z" />
    <glyph glyph-name="uni01E5" unicode="&#x1e5;" 
d="M420 238l-55 55v78l-25 22h-78l-53 56v544l53 56h78l25 22v78l55 55h545l53 -55v-1012l-39 -39l25 -24l38 39h78l56 -54v-77l-56 -56h-78l-38 39l-25 -22l39 -39v-78l-53 -55h-78l-25 -25v-78l-53 -53h-389l-55 53v78l55 55h389l22 25v78l39 39l-22 22l-39 -39h-234
l-55 56v77l55 54h234l39 -39l22 24l-39 39v78l39 39l-22 22l-39 -38h-389zM809 1016h-389l-25 -23v-544l25 -25h389l39 -39l22 25l-39 39v544l39 39l-22 23z" />
    <glyph glyph-name="Gcaron" unicode="&#x1e6;" 
d="M209 1223l55 55h78l23 22v78l55 56h389l55 -56v-78l23 -22h78l55 -55v-78l-55 -55h-78l-53 55v78l-25 22h-389l-23 -22v-1014l23 -23h389l25 23v389l38 41l-24 23l-39 -39h-234l-53 55v78l53 53h390l55 -53v-547l-55 -53h-78l-23 -25v-78l-55 -53h-389l-55 53v78l-23 25
h-78l-55 53v1014zM477 1655l-39 39v53l39 39h53l39 -39v-53l17 -17h55l16 17v53l39 39h54l38 -39v-53l-38 -39h-54l-16 -17v-55l-39 -39h-55l-39 39v55l-17 17h-53z" />
    <glyph glyph-name="gcaron" unicode="&#x1e7;" 
d="M831 -23l39 39l-22 25l-39 -41h-389l-55 55v78l-25 25h-78l-53 53v700l53 56h78l25 24v78l55 53h545l53 -53v-1169l-53 -56h-78l-25 -22v-78l-53 -55h-389l-55 55v78l55 55h389l22 23v77zM809 936h-389l-25 -25v-700l25 -23h389l39 -38l22 22l-39 39v700l39 41l-22 23z
M477 1341l-39 39v56l39 39h53l39 -39v-56l17 -16h55l16 16v56l39 39h54l38 -39v-56l-38 -39h-54l-16 -16v-55l-39 -39h-55l-39 39v55l-17 16h-53z" />
    <glyph glyph-name="uni01E8" unicode="&#x1e8;" 
d="M477 1655l-39 39v53l39 39h53l39 -39v-53l17 -17h55l16 17v53l39 39h54l38 -39v-53l-38 -39h-54l-16 -17v-55l-39 -39h-55l-39 39v55l-17 17h-53zM381 817l-23 -22l39 -39v-703l-55 -53h-78l-55 53v1325l55 56h78l55 -56v-389l-39 -39l23 -24l506 508h78l55 -56v-78
l-467 -466l22 -25h234l55 -53v-78l23 -25h78l55 -55v-545l-55 -53h-78l-53 53v545l-25 25h-234l-53 55v78l-24 22h-78z" />
    <glyph glyph-name="uni01E9" unicode="&#x1e9;" 
d="M477 1655l-39 39v53l39 39h53l39 -39v-53l17 -17h55l16 17v53l39 39h54l38 -39v-53l-38 -39h-54l-16 -17v-55l-39 -39h-55l-39 39v55l-17 17h-53zM379 664l-23 -25l39 -39v-545l-55 -55h-78l-53 55v1325l53 54h78l55 -54v-544l-39 -41l23 -23l352 350h78l53 -53v-78
l-311 -313l24 -23h234l53 -55v-78l25 -22h78l53 -56v-389l-53 -55h-78l-56 55v389l-22 25h-234l-55 53v78l-24 25h-76z" />
    <glyph glyph-name="uni01EA" unicode="&#x1ea;" 
d="M586 -422l-39 39v53l-17 17h-53l-39 39v55l39 39h53l17 16v164h-127l-55 55v78l-25 23h-78l-53 55v1012l53 55h78l25 22v78l55 56h389l53 -56v-78l25 -22h78l53 -55v-1012l-53 -55h-78l-25 -23v-78l-53 -55h-129v-164l-39 -39h-55l-17 -16v-55l17 -17h164l38 -39v-53
l-38 -39h-164zM831 1223l-22 24h-389l-25 -24v-1012l25 -23h389l22 23v1012z" />
    <glyph glyph-name="uni01EB" unicode="&#x1eb;" 
d="M420 0l-55 55v78l-25 23h-78l-53 55v700l53 56h78l25 22v78l55 55h389l53 -55v-78l25 -22h78l53 -56v-700l-53 -55h-78l-25 -23v-78l-53 -55h-129v-164l-39 -39h-55l-17 -16v-55l17 -17h164l38 -39v-53l-38 -39h-164l-39 39v53l-17 17h-53l-39 39v55l39 39h53l17 16v164
h-127zM420 188h389l22 23v700l-22 23h-389l-25 -23v-700z" />
    <glyph glyph-name="uni01EC" unicode="&#x1ec;" 
d="M860 1581h-493l-39 39v55l39 39h493l39 -39v-55zM547 -383l39 -39h164l38 39v53l-38 39h-164l-17 17v55l17 16h55l39 39v164h129l53 55v78l25 23h78l53 55v1012l-53 55h-78l-25 22v78l-53 56h-389l-55 -56v-78l-25 -22h-78l-53 -55v-1012l53 -55h78l25 -23v-78l55 -55
h127v-164l-17 -16h-53l-39 -39v-55l39 -39h53l17 -17v-53zM809 1247l22 -24v-1012l-22 -23h-389l-25 23v1012l25 24h389z" />
    <glyph glyph-name="uni01ED" unicode="&#x1ed;" 
d="M860 1268h-493l-39 39v55l39 39h493l39 -39v-55zM365 55l55 -55h127v-164l-17 -16h-53l-39 -39v-55l39 -39h53l17 -17v-53l39 -39h164l38 39v53l-38 39h-164l-17 17v55l17 16h55l39 39v164h129l53 55v78l25 23h78l53 55v700l-53 56h-78l-25 22v78l-53 55h-389l-55 -55
v-78l-25 -22h-78l-53 -56v-700l53 -55h78l25 -23v-78zM809 188h-389l-25 23v700l25 23h389l22 -23v-700z" />
    <glyph glyph-name="uni01EE" unicode="&#x1ee;" 
d="M477 1655l-39 39v53l39 39h53l39 -39v-53l17 -17h55l16 17v53l39 39h54l38 -39v-53l-38 -39h-54l-16 -17v-55l-39 -39h-55l-39 39v55l-17 17h-53zM809 811l53 -55v-78l25 -23h78l53 -55v-389l-53 -55h-78l-25 -23v-78l-53 -55h-389l-55 55v78l-25 23h-78l-53 55v78l53 55
h78l55 -55v-78l25 -23h389l22 23v389l-22 23h-389l-55 55v233l55 56h76l24 22v78l55 55h78l23 23v78l39 39l-23 24l-39 -41h-391l-53 55v78l53 56h703l53 -56v-78l-53 -55h-78l-39 41l-25 -24l39 -39v-78l-53 -55h-78l-24 -23v-78l-54 -55h-78l-24 -23v-77l-39 -39l25 -23
l38 39h234z" />
    <glyph glyph-name="uni01EF" unicode="&#x1ef;" 
d="M477 1341l-39 39v56l39 39h53l39 -39v-56l17 -16h55l16 16v56l39 39h54l38 -39v-56l-38 -39h-54l-16 -16v-55l-39 -39h-55l-39 39v55l-17 16h-53zM862 444v-77l25 -23h78l53 -55v-389l-53 -56h-78l-25 -22v-78l-53 -55h-389l-55 55v78l-25 22h-78l-53 56v77l53 56h78
l55 -56v-77l25 -23h389l22 23v389l-22 22h-389l-55 56v233l55 55h76l24 23v78l55 55h78l23 23v77l39 39l-23 25l-39 -41h-391l-53 55v78l53 55h703l53 -55v-78l-53 -55h-78l-39 41l-25 -25l39 -39v-77l-53 -56h-78l-24 -22v-78l-54 -55h-78l-24 -23v-78l-39 -39l25 -22
l38 39h234z" />
    <glyph glyph-name="uni01F0" unicode="&#x1f0;" 
d="M676 -100v1011l39 39l-23 23l-39 -39h-78l-55 55v78l55 55h390l53 -55v-78l-53 -55h-78l-39 39l-25 -23l39 -39v-1011l-53 -56h-78l-24 -22v-78l-54 -55h-233l-55 55v78l-25 22h-78l-53 56v77l53 56h78l55 -56v-77l25 -23h233zM633 1343l-39 39v56l39 37h53l39 -37v-56
l16 -16h56l16 16v56l39 37h55l37 -37v-56l-37 -39h-55l-16 -16v-55l-39 -39h-56l-39 39v55l-16 16h-53z" />
    <glyph glyph-name="uni01F4" unicode="&#x1f4;" 
d="M209 1223l55 55h78l23 22v78l55 56h389l55 -56v-78l23 -22h78l55 -55v-78l-55 -55h-78l-53 55v78l-25 22h-389l-23 -22v-1014l23 -23h389l25 23v389l38 41l-24 23l-39 -39h-234l-53 55v78l53 53h390l55 -53v-547l-55 -53h-78l-23 -25v-78l-55 -53h-389l-55 53v78l-23 25
h-78l-55 53v1014zM602 1694v53l39 39h55l39 -39v-53l-39 -39h-55l-16 -17v-55l-39 -39h-56l-36 39v55l36 39h56z" />
    <glyph glyph-name="uni01F5" unicode="&#x1f5;" 
d="M831 -23l39 39l-22 25l-39 -41h-389l-55 55v78l-25 25h-78l-53 53v700l53 56h78l25 24v78l55 53h545l53 -53v-1169l-53 -56h-78l-25 -22v-78l-53 -55h-389l-55 55v78l55 55h389l22 23v77zM809 936h-389l-25 -25v-700l25 -23h389l39 -38l22 22l-39 39v700l39 41l-22 23z
M602 1380v56l39 39h55l37 -39v-56l-37 -39h-55l-16 -16v-55l-39 -39h-56l-38 39v55l38 39h56z" />
    <glyph glyph-name="uni01F8" unicode="&#x1f8;" 
d="M627 1747v-53l16 -17h55l37 -39v-55l-37 -39h-55l-39 39v55l-16 17h-56l-38 39v53l38 39h56zM381 1128l-23 -22l39 -39v-1014l-55 -53h-78l-55 53v1325l55 56h78l55 -56v-78l-39 -38l23 -25l39 41h78l350 -352l24 24l-38 39v389l55 56h76l55 -56v-1325l-55 -53h-76
l-55 53v703l38 39l-24 22l-39 -39h-78z" />
    <glyph glyph-name="uni01F9" unicode="&#x1f9;" 
d="M862 1067l-55 55h-545l-53 -55v-1012l53 -55h78l55 55v856l-39 39l23 23l39 -39h389l24 -23v-856l56 -55h78l53 55v856l-53 56h-78l-25 22v78zM623 1436v-56l16 -16h55l39 -39v-55l-39 -39h-55l-39 39v55l-16 16h-56l-36 39v56l36 39h56z" />
    <glyph glyph-name="Aringacute" unicode="&#x1fa;" 
d="M414 1563v96l22 24h33l8 9v32l23 23h32l11 10v31l22 24h97l22 -24v-31l10 -10h33l23 -23v-32l10 -9h31l22 -24v-96l-22 -23h-31l-10 -10v-31l-23 -22h-33l-10 -11v-32h125l53 -56v-78l25 -22h78l53 -55v-1168l-53 -55h-78l-56 55v545l39 39l-22 23l-39 -39h-389l-39 39
l-25 -23l39 -39v-545l-55 -55h-78l-53 55v1168l53 55h78l25 22v78l55 56h123v32l-11 11h-32l-23 22v31l-8 10h-33zM500 1669l-8 -10v-96l8 -11h32l23 -22v-31l10 -10h97l10 10v31l22 22h33l8 11v96l-8 10h-33l-22 23v32l-10 11h-97l-10 -11v-32l-23 -23h-32zM831 1223
l-22 24h-389l-25 -24v-389l-39 -39l25 -23l39 39h389l39 -39l22 23l-39 39v389z" />
    <glyph glyph-name="aringacute" unicode="&#x1fb;" 
d="M414 1348v-97l22 -22h33l8 -10v-31l23 -25h32l11 -8v-33h-123l-55 -55v-78l-25 -22h-78l-53 -56v-77l53 -56h78l55 56v77l25 23h389l22 -23v-233l39 -39l-22 -23l-39 39h-389l-55 -55v-78l-25 -22h-78l-53 -56v-233l53 -55h78l25 -23v-78l55 -55h545l53 55v856l-53 56
h-78l-25 22v78l-53 55h-125v33l10 8h33l23 25v31l10 10h31l22 22v97l-22 22h-31l-10 10v33l-23 23h-33l-10 10v31l-22 22h-97l-22 -22v-31l-11 -10h-32l-23 -23v-33l-8 -10h-33zM809 188h-389l-25 23v233l25 23h389l39 39l22 -23l-39 -39v-233l39 -39l-22 -22zM492 1348
l8 10h32l23 22v33l10 10h97l10 -10v-33l22 -22h33l8 -10v-97l-8 -10h-33l-22 -22v-31l-10 -10h-97l-10 10v31l-23 22h-32l-8 10v97zM602 1694v53l39 39h55l39 -39v-53l-39 -39h-55l-16 -17v-55l-39 -39h-56l-36 39v55l36 39h56z" />
    <glyph glyph-name="AEacute" unicode="&#x1fc;" 
d="M602 1694v53l39 39h55l39 -39v-53l-39 -39h-55l-16 -17v-55l-39 -39h-56l-36 39v55l36 39h56zM365 1378l55 56h545l53 -56v-78l-53 -55h-234l-39 41l-24 -24l39 -39v-389l-39 -39l24 -23l39 39h234l53 -55v-78l-53 -55h-234l-39 39l-24 -23l39 -39v-389l-39 -39l24 -22
l39 38h234l53 -55v-78l-53 -55h-390l-55 55v545l39 39l-22 23l-41 -39h-76l-41 39l-23 -23l39 -39v-545l-55 -55h-78l-53 55v1168l53 55h78l25 22v78zM559 1262l-22 24l-41 -41h-76l-25 -22v-389l-39 -39l23 -23l41 39h76l41 -39l22 23l-39 39v389z" />
    <glyph glyph-name="aeacute" unicode="&#x1fd;" 
d="M862 522l-53 -55h-78l-39 39l-24 -23l39 -39v-233l-39 -39l24 -22l39 38h78l22 23v78l56 55h78l55 -55v-78l-55 -55h-78l-25 -23v-78l-53 -55h-389l-55 55v78l-23 23h-78l-55 55v233l55 56h78l23 22v78l55 55h78l39 -39l22 23l-39 39v233l39 39l-22 23l-39 -39h-78
l-25 -23v-77l-53 -56h-78l-55 56v77l55 56h78l23 22v78l55 55h389l53 -55v-78l25 -22h78l55 -56v-233l-55 -55h-78l-25 -23v-78zM668 639l24 -23l39 39h78l22 23v233l-22 23h-78l-39 39l-24 -23l39 -39v-233zM537 150l22 22l-39 39v233l39 39l-22 23l-39 -39h-78l-25 -23
v-233l25 -23h78zM602 1380v56l39 39h55l37 -39v-56l-37 -39h-55l-16 -16v-55l-39 -39h-56l-38 39v55l38 39h56z" />
    <glyph glyph-name="Oslashacute" unicode="&#x1fe;" 
d="M602 1694v53l39 39h55l39 -39v-53l-39 -39h-55l-16 -17v-55l-39 -39h-56l-36 39v55l36 39h56zM53 289l53 55h78l39 -39l25 23l-39 39v856l53 55h78l25 22v78l53 56h391l53 -56v-78l25 -22h78l39 -39l38 39h78l54 -55v-78l-54 -55h-78l-38 38l-25 -22l39 -39v-856l-53 -55
h-78l-25 -23v-78l-53 -55h-391l-53 55v78l-25 23h-78l-39 39l-39 -39h-78l-53 55v78zM356 639l23 -23l352 351h78l39 -39l22 22l-39 39v234l-22 22h-391l-23 -22v-545zM379 506l-23 -23l39 -39v-233l23 -23h391l22 23v545l39 39l-22 22l-352 -350h-78z" />
    <glyph glyph-name="oslashacute" unicode="&#x1ff;" 
d="M365 55l53 -55h389l55 55v78l25 23h78l53 55v700l24 23h78l54 55v78l-54 55h-78l-55 -55v-78l-22 -22h-78l-25 22v78l-55 55h-389l-53 -55v-78l-25 -22h-78l-53 -56v-700l-25 -23h-78l-53 -55v-78l53 -55h78l56 55v78l22 23h78l25 -23v-78zM379 461l-23 22l39 39v389
l23 23h389l24 -23v-77l39 -39l-22 -23l-41 39h-76zM356 328l23 22l39 -39h78l352 351l22 -23l-39 -39v-389l-24 -23h-389l-23 23v78zM602 1380v56l39 39h55l37 -39v-56l-37 -39h-55l-16 -16v-55l-39 -39h-56l-38 39v55l38 39h56z" />
    <glyph glyph-name="uni0200" unicode="&#x200;" 
d="M862 1300l25 -22h78l53 -55v-1168l-53 -55h-78l-56 55v545l39 39l-22 23l-39 -39h-391l-39 39l-23 -23l39 -39v-545l-55 -55h-78l-53 55v1168l53 55h78l25 22v78l53 56h391l53 -56v-78zM831 1223l-22 22h-391l-23 -22v-389l-39 -39l23 -23l39 39h391l39 -39l22 23l-39 39
v389zM735 1747v-55l15 -17h55l39 -39v-55l-39 -37h-55l-37 37v55l-17 17h-55l-39 39v55l39 39h55zM514 1747v-55l16 -17h56l39 -39v-55l-39 -37h-56l-38 37v55l-15 17h-55l-39 39v55l39 39h55z" />
    <glyph glyph-name="uni0201" unicode="&#x201;" 
d="M418 0l-53 55v78l-25 23h-78l-53 55v233l53 56h78l25 22v78l53 55h391l39 -39l22 23l-39 39v233l-22 23h-391l-23 -23v-77l-55 -56h-78l-53 56v77l53 56h78l25 22v78l53 55h391l53 -55v-78l25 -22h78l53 -56v-856l-53 -55h-547zM418 188h391l39 -38l22 22l-39 39v233
l39 39l-22 23l-39 -39h-391l-23 -23v-233zM735 1436v-56l15 -16h55l39 -39v-55l-39 -37h-55l-37 37v55l-17 16h-55l-39 39v56l39 39h55zM514 1436v-56l16 -16h56l39 -39v-55l-39 -37h-56l-38 37v55l-15 16h-55l-39 39v56l39 39h55z" />
    <glyph glyph-name="uni0202" unicode="&#x202;" 
d="M862 1300l25 -22h78l53 -55v-1168l-53 -55h-78l-56 55v545l39 39l-22 23l-39 -39h-391l-39 39l-23 -23l39 -39v-545l-55 -55h-78l-53 55v1168l53 55h78l25 22v78l53 56h391l53 -56v-78zM831 1223l-22 22h-391l-23 -22v-389l-39 -39l23 -23l39 39h391l39 -39l22 23l-39 39
v389zM449 1681l-17 -16l29 -27v-55l-39 -39h-55l-39 39v55l28 27l-28 29v53l39 39h55l27 -27l28 27h53l39 -39v-53l-39 -39h-53zM778 1681l-28 -26h-54l-39 39v53l39 39h54l28 -27l27 27h55l39 -39v-53l-29 -29l29 -27v-55l-39 -39h-55l-39 39v55l29 27z" />
    <glyph glyph-name="uni0203" unicode="&#x203;" 
d="M418 0l-53 55v78l-25 23h-78l-53 55v233l53 56h78l25 22v78l53 55h391l39 -39l22 23l-39 39v233l-22 23h-391l-23 -23v-77l-55 -56h-78l-53 56v77l53 56h78l25 22v78l53 55h391l53 -55v-78l25 -22h78l53 -56v-856l-53 -55h-547zM418 188h391l39 -38l22 22l-39 39v233
l39 39l-22 23l-39 -39h-391l-23 -23v-233zM438 1434l39 39h273l38 -39v-56l17 -16h55l39 -37v-55l-39 -39h-55l-39 39v55l-16 14h-273l-16 -14v-55l-39 -39h-55l-39 39v55l39 37h55l16 16v56z" />
    <glyph glyph-name="uni0204" unicode="&#x204;" 
d="M209 53v1325l55 56h701l55 -56v-78l-55 -55h-545l-39 39l-23 -22l39 -39v-389l-39 -39l23 -25l39 39h389l55 -53v-78l-55 -55h-389l-39 39l-23 -23l39 -41v-389l-39 -39l23 -23l39 39h545l55 -55v-78l-55 -53h-701zM735 1747v-55l15 -17h55l39 -39v-55l-39 -37h-55
l-37 37v55l-17 17h-55l-39 39v55l39 39h55zM514 1747v-55l16 -17h56l39 -39v-55l-39 -37h-56l-38 37v55l-15 17h-55l-39 39v55l39 39h55z" />
    <glyph glyph-name="uni0205" unicode="&#x205;" 
d="M735 1436v-56l15 -16h55l39 -39v-55l-39 -37h-55l-37 37v55l-17 16h-55l-39 39v56l39 39h55zM514 1436v-56l16 -16h56l39 -39v-55l-39 -37h-56l-38 37v55l-15 16h-55l-39 39v56l39 39h55zM862 55l-53 -55h-391l-53 55v78l-25 25h-78l-53 53v700l53 56h78l25 24v78l53 53
h391l53 -53v-78l25 -24h78l53 -56v-233l-53 -53h-78l-25 -25v-78l-53 -53h-391l-39 39l-23 -25l39 -39v-233l23 -23h391l22 23v78l56 55h78l53 -55v-78l-53 -53h-78l-25 -25v-78zM418 655h391l22 23v233l-22 25h-391l-23 -25v-233l-39 -39l23 -23z" />
    <glyph glyph-name="uni0206" unicode="&#x206;" 
d="M209 53v1325l55 56h701l55 -56v-78l-55 -55h-545l-39 39l-23 -22l39 -39v-389l-39 -39l23 -25l39 39h389l55 -53v-78l-55 -55h-389l-39 39l-23 -23l39 -41v-389l-39 -39l23 -23l39 39h545l55 -55v-78l-55 -53h-701zM449 1681l-17 -16l29 -27v-55l-39 -39h-55l-39 39v55
l28 27l-28 29v53l39 39h55l27 -27l28 27h53l39 -39v-53l-39 -39h-53zM778 1681l-28 -26h-54l-39 39v53l39 39h54l28 -27l27 27h55l39 -39v-53l-29 -29l29 -27v-55l-39 -39h-55l-39 39v55l29 27z" />
    <glyph glyph-name="uni0207" unicode="&#x207;" 
d="M438 1434l39 39h273l38 -39v-56l17 -16h55l39 -37v-55l-39 -39h-55l-39 39v55l-16 14h-273l-16 -14v-55l-39 -39h-55l-39 39v55l39 37h55l16 16v56zM862 55l-53 -55h-391l-53 55v78l-25 25h-78l-53 53v700l53 56h78l25 24v78l53 53h391l53 -53v-78l25 -24h78l53 -56v-233
l-53 -53h-78l-25 -25v-78l-53 -53h-391l-39 39l-23 -25l39 -39v-233l23 -23h391l22 23v78l56 55h78l53 -55v-78l-53 -53h-78l-25 -25v-78zM418 655h391l22 23v233l-22 25h-391l-23 -25v-233l-39 -39l23 -23z" />
    <glyph glyph-name="uni0208" unicode="&#x208;" 
d="M735 1747v-55l15 -17h55l39 -39v-55l-39 -37h-55l-37 37v55l-17 17h-55l-39 39v55l39 39h55zM514 1747v-55l16 -17h56l39 -39v-55l-39 -37h-56l-38 37v55l-15 17h-55l-39 39v55l39 39h55zM520 1223l39 39l-22 22l-41 -39h-76l-55 55v78l55 56h389l53 -56v-78l-53 -55h-78
l-39 39l-24 -22l39 -39v-1012l-39 -39l24 -25l39 39h78l53 -55v-76l-53 -55h-389l-55 55v76l55 55h76l41 -39l22 25l-39 39v1012z" />
    <glyph glyph-name="uni0209" unicode="&#x209;" 
d="M692 973l-24 -23l39 -39v-700l-39 -39l24 -22l39 38h78l53 -55v-78l-53 -55h-389l-55 55v78l55 55h76l41 -38l22 22l-39 39v700l39 39l-22 23l-41 -39h-76l-55 55v78l55 55h389l53 -55v-78l-53 -55h-78zM735 1436v-56l15 -16h55l39 -39v-55l-39 -37h-55l-37 37v55l-17 16
h-55l-39 39v56l39 39h55zM514 1436v-56l16 -16h56l39 -39v-55l-39 -37h-56l-38 37v55l-15 16h-55l-39 39v56l39 39h55z" />
    <glyph glyph-name="uni020A" unicode="&#x20a;" 
d="M449 1681l-17 -16l29 -27v-55l-39 -39h-55l-39 39v55l28 27l-28 29v53l39 39h55l27 -27l28 27h53l39 -39v-53l-39 -39h-53zM778 1681l-28 -26h-54l-39 39v53l39 39h54l28 -27l27 27h55l39 -39v-53l-29 -29l29 -27v-55l-39 -39h-55l-39 39v55l29 27zM520 1223l39 39
l-22 22l-41 -39h-76l-55 55v78l55 56h389l53 -56v-78l-53 -55h-78l-39 39l-24 -22l39 -39v-1012l-39 -39l24 -25l39 39h78l53 -55v-76l-53 -55h-389l-55 55v76l55 55h76l41 -39l22 25l-39 39v1012z" />
    <glyph glyph-name="uni020B" unicode="&#x20b;" 
d="M438 1434l39 39h273l38 -39v-56l17 -16h55l39 -37v-55l-39 -39h-55l-39 39v55l-16 14h-273l-16 -14v-55l-39 -39h-55l-39 39v55l39 37h55l16 16v56zM692 973l-24 -23l39 -39v-700l-39 -39l24 -22l39 38h78l53 -55v-78l-53 -55h-389l-55 55v78l55 55h76l41 -38l22 22
l-39 39v700l39 39l-22 23l-41 -39h-76l-55 55v78l55 55h389l53 -55v-78l-53 -55h-78z" />
    <glyph glyph-name="uni020C" unicode="&#x20c;" 
d="M735 1747v-55l15 -17h55l39 -39v-55l-39 -37h-55l-37 37v55l-17 17h-55l-39 39v55l39 39h55zM514 1747v-55l16 -17h56l39 -39v-55l-39 -37h-56l-38 37v55l-15 17h-55l-39 39v55l39 39h55zM809 0h-389l-53 53v78l-25 25h-78l-55 53v1014l55 55h78l25 22v78l53 56h389
l55 -56v-78l25 -22h76l55 -55v-1014l-55 -53h-76l-25 -25v-78zM834 1223l-25 22h-389l-23 -22v-1014l23 -23h389l25 23v1014z" />
    <glyph glyph-name="uni020D" unicode="&#x20d;" 
d="M735 1436v-56l15 -16h55l39 -39v-55l-39 -37h-55l-37 37v55l-17 16h-55l-39 39v56l39 39h55zM514 1436v-56l16 -16h56l39 -39v-55l-39 -37h-56l-38 37v55l-15 16h-55l-39 39v56l39 39h55zM418 0l-53 55v78l-25 23h-78l-53 55v700l53 56h78l25 22v78l53 55h389l55 -55v-78
l25 -22h78l53 -56v-700l-53 -55h-78l-25 -23v-78l-55 -55h-389zM418 188h389l24 23v700l-24 23h-389l-23 -23v-700z" />
    <glyph glyph-name="uni020E" unicode="&#x20e;" 
d="M449 1681l-17 -16l29 -27v-55l-39 -39h-55l-39 39v55l28 27l-28 29v53l39 39h55l27 -27l28 27h53l39 -39v-53l-39 -39h-53zM778 1681l-28 -26h-54l-39 39v53l39 39h54l28 -27l27 27h55l39 -39v-53l-29 -29l29 -27v-55l-39 -39h-55l-39 39v55l29 27zM809 0h-389l-53 53v78
l-25 25h-78l-55 53v1014l55 55h78l25 22v78l53 56h389l55 -56v-78l25 -22h76l55 -55v-1014l-55 -53h-76l-25 -25v-78zM834 1223l-25 22h-389l-23 -22v-1014l23 -23h389l25 23v1014z" />
    <glyph glyph-name="uni020F" unicode="&#x20f;" 
d="M438 1434l39 39h273l38 -39v-56l17 -16h55l39 -37v-55l-39 -39h-55l-39 39v55l-16 14h-273l-16 -14v-55l-39 -39h-55l-39 39v55l39 37h55l16 16v56zM418 0l-53 55v78l-25 23h-78l-53 55v700l53 56h78l25 22v78l53 55h389l55 -55v-78l25 -22h78l53 -56v-700l-53 -55h-78
l-25 -23v-78l-55 -55h-389zM418 188h389l24 23v700l-24 23h-389l-23 -23v-700z" />
    <glyph glyph-name="uni0210" unicode="&#x210;" 
d="M735 1747v-55l15 -17h55l39 -39v-55l-39 -37h-55l-37 37v55l-17 17h-55l-39 39v55l39 39h55zM514 1747v-55l16 -17h56l39 -39v-55l-39 -37h-56l-38 37v55l-15 17h-55l-39 39v55l39 39h55zM831 53v545l-24 25h-389l-39 39l-23 -23l39 -41v-545l-55 -53h-78l-53 53v1325
l53 56h545l55 -56v-78l25 -22h76l55 -55v-389l-55 -56h-76l-25 -22v-78l25 -25h76l55 -55v-545l-55 -53h-76zM831 1223l-24 22h-389l-39 39l-23 -22l39 -39v-389l-39 -39l23 -25l39 39h389l24 25v389z" />
    <glyph glyph-name="uni0211" unicode="&#x211;" 
d="M735 1436v-56l15 -16h55l39 -39v-55l-39 -37h-55l-37 37v55l-17 16h-55l-39 39v56l39 39h55zM514 1436v-56l16 -16h56l39 -39v-55l-39 -37h-56l-38 37v55l-15 16h-55l-39 39v56l39 39h55zM809 1122l53 -55v-78l25 -22h78l53 -56v-77l-53 -56h-78l-56 56v77l-22 23h-236
l-22 -23v-77l-55 -56h-78l-39 39l-23 -22l39 -39v-701l-55 -55h-78l-53 55v1012l53 55h78l55 -55v-78l-39 -39l23 -22l39 39h78l24 22v78l53 55h236z" />
    <glyph glyph-name="uni0212" unicode="&#x212;" 
d="M449 1681l-17 -16l29 -27v-55l-39 -39h-55l-39 39v55l28 27l-28 29v53l39 39h55l27 -27l28 27h53l39 -39v-53l-39 -39h-53zM778 1681l-28 -26h-54l-39 39v53l39 39h54l28 -27l27 27h55l39 -39v-53l-29 -29l29 -27v-55l-39 -39h-55l-39 39v55l29 27zM831 598v-545l56 -53
h76l55 53v545l-55 55h-76l-25 25v78l25 22h76l55 56v389l-55 55h-76l-25 22v78l-55 56h-545l-53 -56v-1325l53 -53h78l55 53v545l-39 41l23 23l39 -39h389zM807 1245l24 -22v-389l-24 -25h-389l-39 -39l-23 25l39 39v389l-39 39l23 22l39 -39h389z" />
    <glyph glyph-name="uni0213" unicode="&#x213;" 
d="M438 1434l39 39h273l38 -39v-56l17 -16h55l39 -37v-55l-39 -39h-55l-39 39v55l-16 14h-273l-16 -14v-55l-39 -39h-55l-39 39v55l39 37h55l16 16v56zM809 1122l53 -55v-78l25 -22h78l53 -56v-77l-53 -56h-78l-56 56v77l-22 23h-236l-22 -23v-77l-55 -56h-78l-39 39
l-23 -22l39 -39v-701l-55 -55h-78l-53 55v1012l53 55h78l55 -55v-78l-39 -39l23 -22l39 39h78l24 22v78l53 55h236z" />
    <glyph glyph-name="uni0214" unicode="&#x214;" 
d="M735 1747v-55l15 -17h55l39 -39v-55l-39 -37h-55l-37 37v55l-17 17h-55l-39 39v55l39 39h55zM514 1747v-55l16 -17h56l39 -39v-55l-39 -37h-56l-38 37v55l-15 17h-55l-39 39v55l39 39h55zM831 209v1169l56 56h78l53 -56v-1169l-53 -53h-78l-25 -25v-78l-55 -53h-389
l-53 53v78l-25 25h-78l-53 53v1169l53 56h78l55 -56v-1169l23 -23h389z" />
    <glyph glyph-name="uni0215" unicode="&#x215;" 
d="M735 1436v-56l15 -16h55l39 -39v-55l-39 -37h-55l-37 37v55l-17 16h-55l-39 39v56l39 39h55zM514 1436v-56l16 -16h56l39 -39v-55l-39 -37h-56l-38 37v55l-15 16h-55l-39 39v56l39 39h55zM418 0l-53 55v78l-25 23h-78l-53 55v856l53 55h78l55 -55v-856l23 -23h391l39 -38
l22 22l-39 39v856l56 55h78l53 -55v-1012l-53 -55h-547z" />
    <glyph glyph-name="uni0216" unicode="&#x216;" 
d="M449 1681l-17 -16l29 -27v-55l-39 -39h-55l-39 39v55l28 27l-28 29v53l39 39h55l27 -27l28 27h53l39 -39v-53l-39 -39h-53zM778 1681l-28 -26h-54l-39 39v53l39 39h54l28 -27l27 27h55l39 -39v-53l-29 -29l29 -27v-55l-39 -39h-55l-39 39v55l29 27zM831 209v1169l56 56
h78l53 -56v-1169l-53 -53h-78l-25 -25v-78l-55 -53h-389l-53 53v78l-25 25h-78l-53 53v1169l53 56h78l55 -56v-1169l23 -23h389z" />
    <glyph glyph-name="uni0217" unicode="&#x217;" 
d="M438 1434l39 39h273l38 -39v-56l17 -16h55l39 -37v-55l-39 -39h-55l-39 39v55l-16 14h-273l-16 -14v-55l-39 -39h-55l-39 39v55l39 37h55l16 16v56zM418 0l-53 55v78l-25 23h-78l-53 55v856l53 55h78l55 -55v-856l23 -23h391l39 -38l22 22l-39 39v856l56 55h78l53 -55
v-1012l-53 -55h-547z" />
    <glyph glyph-name="Scommaaccent" unicode="&#x218;" 
d="M831 1223l-24 22h-389l-23 -22v-389l23 -25h389l55 -53v-78l25 -25h78l53 -55v-389l-53 -53h-78l-25 -25v-78l-55 -53h-389l-53 53v78l-25 25h-78l-53 53v78l53 55h78l55 -55v-78l23 -23h389l24 23v389l-24 25h-389l-53 55v78l-25 22h-78l-53 56v389l53 55h78l25 22v78
l53 56h389l55 -56v-78l25 -22h78l53 -55v-78l-53 -55h-78l-56 55v78zM612 -176l-26 -27h-56l-38 39v53l38 39h56l26 -26l29 26h55l39 -39v-53l-28 -29l28 -26v-55l-39 -39h-55l-16 -17v-53l-39 -39h-56l-38 39v53l38 39h56l16 17v55l27 26z" />
    <glyph glyph-name="scommaaccent" unicode="&#x219;" 
d="M809 655l53 -55v-78l25 -22h78l53 -56v-233l-53 -55h-78l-25 -23v-78l-53 -55h-391l-53 55v78l-25 23h-78l-53 55v78l53 55h78l55 -55v-78l23 -23h391l22 23v233l-22 23h-391l-53 55v78l-25 23h-78l-53 55v233l53 56h78l25 22v78l53 55h391l53 -55v-78l25 -22h78l53 -56
v-77l-53 -56h-78l-56 56v77l-22 23h-391l-23 -23v-233l23 -23h391zM612 -176l-26 -27h-56l-38 39v53l38 39h56l26 -26l29 26h55l39 -39v-53l-28 -29l28 -26v-55l-39 -39h-55l-16 -17v-53l-39 -39h-56l-38 39v53l38 39h56l16 17v55l27 26z" />
    <glyph glyph-name="uni021A" unicode="&#x21a;" 
d="M520 1223l39 39l-24 22l-39 -39h-234l-53 55v78l53 56h703l53 -56v-78l-53 -55h-234l-41 39l-22 -22l39 -39v-1170l-56 -53h-78l-53 53v1170zM612 -176l-26 -27h-56l-38 39v53l38 39h56l26 -26l29 26h55l39 -39v-53l-28 -29l28 -26v-55l-39 -39h-55l-16 -17v-53l-39 -39
h-56l-38 39v53l38 39h56l16 17v55l27 26z" />
    <glyph glyph-name="uni021B" unicode="&#x21b;" 
d="M575 0l-55 55v78l-24 23h-78l-53 55v700l38 39l-24 23l-39 -39h-78l-53 55v78l53 55h78l39 -39l24 23l-38 39v78l53 55h78l55 -55v-78l-39 -39l23 -23l40 39h234l53 -55v-78l-53 -55h-234l-40 39l-23 -23l39 -39v-700l24 -23h234l22 23v78l56 55h78l53 -55v-78l-53 -55
h-78l-25 -23v-78l-53 -55h-234zM612 -176l-26 -27h-56l-38 39v53l38 39h56l26 -26l29 26h55l39 -39v-53l-28 -29l28 -26v-55l-39 -39h-55l-16 -17v-53l-39 -39h-56l-38 39v53l38 39h56l16 17v55l27 26z" />
    <glyph glyph-name="uni021E" unicode="&#x21e;" 
d="M477 1655l-39 39v53l39 39h53l39 -39v-53l17 -17h55l16 17v53l39 39h54l38 -39v-53l-38 -39h-54l-16 -17v-55l-39 -39h-55l-39 39v55l-17 17h-53zM834 834v544l53 56h78l55 -56v-1325l-55 -53h-78l-53 53v545l38 41l-24 23l-39 -39h-389l-39 39l-23 -23l39 -41v-545
l-55 -53h-78l-55 53v1325l55 56h78l55 -56v-544l-39 -39l23 -25l39 39h389l39 -39l24 25z" />
    <glyph glyph-name="uni021F" unicode="&#x21f;" 
d="M477 1655l-39 39v53l39 39h53l39 -39v-53l17 -17h55l16 17v53l39 39h54l38 -39v-53l-38 -39h-54l-16 -17v-55l-39 -39h-55l-39 39v55l-17 17h-53zM809 1122l53 -53v-78l25 -24h78l53 -56v-856l-53 -55h-78l-56 55v856l-22 25h-389l-41 39l-23 -23l39 -41v-856l-55 -55
h-78l-53 55v1325l53 54h78l55 -54v-233l-39 -39l23 -25l41 39h389z" />
    <glyph glyph-name="uni0224" unicode="&#x224;" 
d="M831 1223l39 39l-22 24l-39 -41h-547l-53 55v78l53 56h703l53 -56v-389l-53 -55h-78l-25 -23v-77l-366 -367h-76l-25 -23v-233l-39 -39l23 -22l41 38h545l53 -55v-407l-37 -39h-55l-17 -17v-53l-39 -39h-163l-39 39v53l39 39h163l17 17v274h-625l-53 55v389l53 56h78
l25 22v78l366 367h78l22 22v234z" />
    <glyph glyph-name="uni0225" unicode="&#x225;" 
d="M831 911l39 39l-22 23l-39 -39h-547l-53 55v78l53 55h703l53 -55v-233l-53 -56h-78l-25 -22v-78l-366 -367h-76l-25 -22v-78l-39 -39l23 -22l41 38h545l53 -55v-407l-37 -39h-55l-17 -17v-53l-39 -39h-163l-39 39v53l39 39h163l17 17v274h-625l-53 55v234l53 55h78l25 23
v77l366 367h78l22 23v77z" />
    <glyph glyph-name="uni0226" unicode="&#x226;" 
d="M864 1300l23 -22h78l55 -55v-1170l-55 -53h-78l-53 53v545l38 41l-24 23l-39 -39h-389l-39 39l-23 -23l39 -41v-545l-55 -53h-78l-55 53v1170l55 55h78l23 22v78l55 56h389l55 -56v-78zM834 1223l-25 22h-389l-23 -22v-389l-39 -39l23 -25l39 39h389l39 -39l24 25l-38 39
v389zM510 1731l55 55h97l53 -55v-97l-53 -53h-97l-55 53v97z" />
    <glyph glyph-name="uni0227" unicode="&#x227;" 
d="M365 55l53 -55h547l53 55v856l-53 56h-78l-25 22v78l-55 55h-389l-53 -55v-78l-25 -22h-78l-53 -56v-77l53 -56h78l55 56v77l23 23h389l24 -23v-233l39 -39l-22 -23l-41 39h-389l-53 -55v-78l-25 -22h-78l-53 -56v-233l53 -55h78l25 -23v-78zM807 188h-389l-23 23v233
l23 23h389l41 39l22 -23l-39 -39v-233l39 -39l-22 -22zM510 1419l55 56h97l53 -56v-96l-53 -53h-97l-55 53v96z" />
    <glyph glyph-name="uni0228" unicode="&#x228;" 
d="M209 55v1323l53 56h703l53 -56v-78l-53 -55h-545l-39 41l-25 -24l39 -39v-389l-39 -39l25 -23l39 39h389l53 -55v-78l-53 -55h-389l-39 39l-25 -23l39 -39v-389l-39 -39l25 -22l39 38h545l53 -55v-78l-53 -55h-285v-164l-39 -39h-55l-17 -16v-55l17 -17h164l38 -39v-53
l-38 -39h-164l-39 39v53l-17 17h-53l-39 39v55l39 39h53l17 16v164h-285z" />
    <glyph glyph-name="uni0229" unicode="&#x229;" 
d="M862 55l-53 -55h-129v-164l-39 -39h-55l-17 -16v-55l17 -17h164l38 -39v-53l-38 -39h-164l-39 39v53l-17 17h-53l-39 39v55l39 39h53l17 16v164h-127l-55 55v78l-25 23h-78l-53 55v700l53 56h78l25 22v78l55 55h389l53 -55v-78l25 -22h78l53 -56v-233l-53 -55h-78
l-25 -23v-78l-53 -55h-389l-41 39l-23 -23l39 -39v-233l25 -23h389l22 23v78l56 55h78l53 -55v-78l-53 -55h-78l-25 -23v-78zM420 655h389l22 23v233l-22 23h-389l-25 -23v-233l-39 -39l23 -23z" />
    <glyph glyph-name="uni022A" unicode="&#x22a;" 
d="M657 1747l39 39h54l38 -39v-164l-38 -39h-54l-39 39v164zM438 1583v164l39 39h53l39 -39v-164l-39 -39h-53zM809 0h-389l-53 53v78l-25 25h-78l-55 53v1014l55 55h78l25 22v78l53 56h389l55 -56v-78l25 -22h76l55 -55v-1014l-55 -53h-76l-25 -25v-78zM834 1223l-25 22
h-389l-23 -22v-1014l23 -23h389l25 23v1014z" />
    <glyph glyph-name="uni022B" unicode="&#x22b;" 
d="M365 55l53 -55h389l55 55v78l25 23h78l53 55v700l-53 56h-78l-25 22v78l-55 55h-389l-53 -55v-78l-25 -22h-78l-53 -56v-700l53 -55h78l25 -23v-78zM807 188h-389l-23 23v700l23 23h389l24 -23v-700zM657 1436l39 39h54l38 -39v-166l-38 -39h-54l-39 39v166zM438 1270
v166l39 39h53l39 -39v-166l-39 -39h-53zM860 1581h-493l-39 39v55l39 39h493l39 -39v-55z" />
    <glyph glyph-name="uni022C" unicode="&#x22c;" 
d="M438 1747l39 39h164l39 -39v-55l16 -17h54l16 17v55l39 39h55l39 -39v-55l-39 -39h-55l-17 -17v-53l-38 -39h-54l-39 39v53l-16 17h-164l-16 -17v-53l-39 -39h-55l-39 39v53l39 39h55l16 17v55zM809 0h-389l-53 53v78l-25 25h-78l-55 53v1014l55 55h78l25 22v78l53 56
h389l55 -56v-78l25 -22h76l55 -55v-1014l-55 -53h-76l-25 -25v-78zM834 1223l-25 22h-389l-23 -22v-1014l23 -23h389l25 23v1014z" />
    <glyph glyph-name="uni022D" unicode="&#x22d;" 
d="M365 55l53 -55h389l55 55v78l25 23h78l53 55v700l-53 56h-78l-25 22v78l-55 55h-389l-53 -55v-78l-25 -22h-78l-53 -56v-700l53 -55h78l25 -23v-78zM807 188h-389l-23 23v700l23 23h389l24 -23v-700zM438 1436l39 39h164l39 -39v-56l16 -16h54l16 16v56l39 39h55l39 -39
v-56l-39 -39h-55l-17 -16v-55l-38 -39h-54l-39 39v55l-16 16h-164l-16 -16v-55l-39 -39h-55l-39 39v55l39 39h55l16 16v56zM860 1581h-493l-39 39v55l39 39h493l39 -39v-55z" />
    <glyph glyph-name="uni022E" unicode="&#x22e;" 
d="M809 0h-389l-53 53v78l-25 25h-78l-55 53v1014l55 55h78l25 22v78l53 56h389l55 -56v-78l25 -22h76l55 -55v-1014l-55 -53h-76l-25 -25v-78zM834 1223l-25 22h-389l-23 -22v-1014l23 -23h389l25 23v1014zM510 1731l55 55h97l53 -55v-97l-53 -53h-97l-55 53v97z" />
    <glyph glyph-name="uni022F" unicode="&#x22f;" 
d="M365 55l53 -55h389l55 55v78l25 23h78l53 55v700l-53 56h-78l-25 22v78l-55 55h-389l-53 -55v-78l-25 -22h-78l-53 -56v-700l53 -55h78l25 -23v-78zM807 188h-389l-23 23v700l23 23h389l24 -23v-700zM510 1419l55 56h97l53 -56v-96l-53 -53h-97l-55 53v96z" />
    <glyph glyph-name="uni0230" unicode="&#x230;" 
d="M809 0h-389l-53 53v78l-25 25h-78l-55 53v1014l55 55h78l25 22v78l53 56h389l55 -56v-78l25 -22h76l55 -55v-1014l-55 -53h-76l-25 -25v-78zM834 1223l-25 22h-389l-23 -22v-1014l23 -23h389l25 23v1014zM510 1731l55 55h97l53 -55v-97l-53 -53h-97l-55 53v97z" />
    <glyph glyph-name="uni0231" unicode="&#x231;" 
d="M365 55l53 -55h389l55 55v78l25 23h78l53 55v700l-53 56h-78l-25 22v78l-55 55h-389l-53 -55v-78l-25 -22h-78l-53 -56v-700l53 -55h78l25 -23v-78zM807 188h-389l-23 23v700l23 23h389l24 -23v-700zM510 1419l55 56h97l53 -56v-96l-53 -53h-97l-55 53v96zM860 1581h-493
l-39 39v55l39 39h493l39 -39v-55z" />
    <glyph glyph-name="uni0232" unicode="&#x232;" 
d="M831 989v389l56 56h78l55 -56v-389l-55 -55h-78l-25 -23v-77l-53 -56h-78l-24 -22v-701l-54 -55h-78l-55 55v701l-22 22h-78l-55 56v77l-25 23h-76l-55 55v389l55 56h76l55 -56v-389l25 -22h78l53 -56v-77l24 -23h78l23 23v77l55 56h78zM860 1581h-493l-39 39v55l39 39
h493l39 -39v-55z" />
    <glyph glyph-name="uni0233" unicode="&#x233;" 
d="M831 -23l39 39l-22 23l-39 -39h-389l-55 55v78l-25 23h-78l-53 55v856l53 55h78l55 -55v-856l25 -23h389l39 -38l22 22l-39 39v856l56 55h78l53 -55v-1167l-53 -56h-78l-25 -22v-78l-53 -55h-389l-55 55v78l55 55h389l22 23v77zM860 1268h-493l-39 39v55l39 39h493
l39 -39v-55z" />
    <glyph glyph-name="circumflex" unicode="&#x2c6;" 
d="M438 1636l39 39h53l17 17v55l39 39h55l39 -39v-55l16 -17h54l38 -39v-53l-38 -39h-54l-39 39v53l-16 17h-55l-17 -17v-53l-39 -39h-53l-39 39v53z" />
    <glyph glyph-name="caron" unicode="&#x2c7;" 
d="M477 1655l-39 39v53l39 39h53l39 -39v-53l17 -17h55l16 17v53l39 39h54l38 -39v-53l-38 -39h-54l-16 -17v-55l-39 -39h-55l-39 39v55l-17 17h-53z" />
    <glyph glyph-name="uni02CB" unicode="&#x2cb;" 
d="M627 1747v-53l16 -17h55l37 -39v-55l-37 -39h-55l-39 39v55l-16 17h-56l-38 39v53l38 39h56z" />
    <glyph glyph-name="breve" unicode="&#x2d8;" 
d="M477 1544l-39 39v55l-16 17h-55l-39 37v55l39 39h55l39 -39v-55l16 -15h273l16 15v55l39 39h55l39 -39v-55l-39 -37h-55l-17 -17v-55l-38 -39h-273z" />
    <glyph glyph-name="dotaccent" unicode="&#x2d9;" 
d="M510 1731l55 55h97l53 -55v-97l-53 -53h-97l-55 53v97z" />
    <glyph glyph-name="ring" unicode="&#x2da;" 
d="M414 1659l22 24h33l8 9v32l23 23h32l11 10v31l22 24h97l22 -24v-31l10 -10h33l23 -23v-32l8 -9h33l22 -24v-96l-22 -23h-33l-8 -10v-31l-23 -22h-33l-10 -11v-32l-22 -23h-97l-22 23v32l-11 11h-32l-23 22v31l-8 10h-33l-22 23v96zM492 1659v-96l8 -11h32l23 -22v-31
l10 -10h97l10 10v31l22 22h33l8 11v96l-8 10h-33l-22 23v32l-10 11h-97l-10 -11v-32l-23 -23h-32z" />
    <glyph glyph-name="ogonek" unicode="&#x2db;" 
d="M547 -383v53l-17 17h-53l-39 39v55l39 39h53l17 16v164l39 39h55l39 -39v-164l-39 -39h-55l-17 -16v-55l17 -17h164l38 -39v-53l-38 -39h-164z" />
    <glyph glyph-name="tilde" unicode="&#x2dc;" 
d="M438 1747l39 39h164l39 -39v-55l16 -17h54l16 17v55l39 39h55l39 -39v-55l-39 -39h-55l-17 -17v-53l-38 -39h-54l-39 39v53l-16 17h-164l-16 -17v-53l-39 -39h-55l-39 39v53l39 39h55l16 17v55z" />
    <glyph glyph-name="hungarumlaut" unicode="&#x2dd;" 
d="M492 1692v55l38 39h56l39 -39v-55l-39 -39h-56l-16 -17v-55l-37 -37h-55l-39 37v55l39 39h55zM713 1692v55l37 39h55l39 -39v-55l-39 -39h-55l-15 -17v-55l-39 -37h-55l-39 37v55l39 39h55z" />
    <glyph glyph-name="gravecomb" unicode="&#x300;" 
d="M627 1747v-53l16 -17h55l37 -39v-55l-37 -39h-55l-39 39v55l-16 17h-56l-38 39v53l38 39h56z" />
    <glyph glyph-name="acutecomb" unicode="&#x301;" 
d="M602 1694v53l39 39h55l39 -39v-53l-39 -39h-55l-16 -17v-55l-39 -39h-56l-36 39v55l36 39h56z" />
    <glyph glyph-name="tildecomb" unicode="&#x303;" 
d="M438 1747l39 39h164l39 -39v-55l16 -17h54l16 17v55l39 39h55l39 -39v-55l-39 -39h-55l-17 -17v-53l-38 -39h-54l-39 39v53l-16 17h-164l-16 -17v-53l-39 -39h-55l-39 39v53l39 39h55l16 17v55z" />
    <glyph glyph-name="hookabovecomb" unicode="&#x309;" 
d="M680 1747v-55l16 -17h54l38 -39v-55l-38 -37h-54l-16 -16v-166l-39 -39h-55l-39 39v166l39 39h55l16 14v55l-16 17h-164l-39 39v55l39 39h164z" />
    <glyph glyph-name="dotbelowcomb" unicode="&#x323;" 
d="M510 -201l55 54h97l53 -54v-96l-53 -55h-97l-55 55v96z" />
    <glyph glyph-name="uni1E02" unicode="&#x1e02;" 
d="M864 131v-78l-55 -53h-545l-55 53v1325l55 56h545l55 -56v-78l23 -22h78l55 -55v-389l-55 -56h-78l-23 -22v-78l23 -25h78l55 -55v-389l-55 -53h-78zM834 1223l-25 22h-389l-39 39l-23 -22l39 -39v-389l-39 -39l23 -25l39 39h389l25 25v389zM834 209v389l-25 25h-389
l-39 39l-23 -23l39 -41v-389l-39 -39l23 -23l39 39h389zM510 1731l55 55h97l53 -55v-97l-53 -53h-97l-55 53v97z" />
    <glyph glyph-name="uni1E03" unicode="&#x1e03;" 
d="M862 55l-53 -55h-547l-53 55v1325l53 54h78l55 -54v-233l-39 -39l23 -25l39 39h391l53 -53v-78l25 -24h78l53 -56v-700l-53 -53h-78l-25 -25v-78zM356 172l23 -22l39 38h391l22 23v700l-22 25h-391l-39 39l-23 -23l39 -41v-700zM510 1583l55 55h97l53 -55v-96l-53 -53
h-97l-55 53v96z" />
    <glyph glyph-name="uni1E0A" unicode="&#x1e0a;" 
d="M887 156l-23 -25v-78l-55 -53h-545l-55 53v1325l55 56h545l55 -56v-78l23 -22h78l55 -55v-1014l-55 -53h-78zM834 1223l-25 22h-389l-39 39l-23 -22l39 -39v-1014l-39 -39l23 -23l39 39h389l25 23v1014zM510 1731l55 55h97l53 -55v-97l-53 -53h-97l-55 53v97z" />
    <glyph glyph-name="uni1E0B" unicode="&#x1e0b;" 
d="M365 55l53 -55h547l53 55v1325l-53 54h-78l-56 -54v-233l39 -39l-22 -25l-39 39h-391l-53 -53v-78l-25 -24h-78l-53 -56v-700l53 -53h78l25 -25v-78zM809 188h-391l-23 23v700l23 25h391l39 39l22 -23l-39 -41v-700l39 -39l-22 -22zM510 1583l55 55h97l53 -55v-96
l-53 -53h-97l-55 53v96z" />
    <glyph glyph-name="uni1E1E" unicode="&#x1e1e;" 
d="M209 53v1325l55 56h701l55 -56v-78l-55 -55h-545l-39 39l-23 -22l39 -39v-389l-39 -39l23 -25l39 39h389l55 -53v-78l-55 -55h-389l-39 39l-23 -23l39 -41v-545l-55 -53h-78zM510 1731l55 55h97l53 -55v-97l-53 -53h-97l-55 53v97z" />
    <glyph glyph-name="uni1E1F" unicode="&#x1e1f;" 
d="M520 1380l55 54h390l53 -54v-77l-53 -56h-390l-24 -22v-234l-39 -39l25 -24l38 39h234l53 -56v-75l-53 -56h-234l-38 39l-25 -24l39 -39v-701l-55 -55h-76l-55 55v701l38 39l-24 24l-39 -39h-78l-53 56v75l53 56h78l39 -39l24 24l-38 39v234l55 53h76l24 25v77zM510 1731
l55 55h97l53 -55v-97l-53 -53h-97l-55 53v97z" />
    <glyph glyph-name="uni1E40" unicode="&#x1e40;" 
d="M848 1128l-39 -38h-78l-22 -23v-233l-56 -56h-78l-53 56v233l-24 23h-78l-39 38l-23 -22l39 -39v-1014l-55 -53h-78l-55 53v1325l55 56h78l55 -56v-78l-39 -38l23 -25l39 41h78l55 -55v-78l22 -25h78l25 25v78l53 55h78l39 -41l24 25l-38 38v78l55 56h76l55 -56v-1325
l-55 -53h-76l-55 53v1014l38 39zM510 1731l55 55h97l53 -55v-97l-53 -53h-97l-55 53v97z" />
    <glyph glyph-name="uni1E41" unicode="&#x1e41;" 
d="M864 1067l-55 55h-545l-55 -55v-1012l55 -55h78l55 55v856l-39 39l23 23l39 -39h78l39 39l22 -23l-39 -39v-389l55 -55h78l56 55v389l-39 39l22 23l39 -39h78l22 -23v-856l56 -55h78l55 55v856l-55 56h-78l-23 22v78zM510 1419l55 56h97l53 -56v-96l-53 -53h-97l-55 53
v96z" />
    <glyph glyph-name="uni1E56" unicode="&#x1e56;" 
d="M889 778l-25 -22v-78l-55 -55h-389l-39 39l-23 -23l39 -41v-545l-55 -53h-78l-55 53v1325l55 56h545l55 -56v-78l25 -22h76l55 -55v-389l-55 -56h-76zM834 1223l-25 22h-389l-39 39l-23 -22l39 -39v-389l-39 -39l23 -25l39 39h389l25 25v389zM510 1731l55 55h97l53 -55
v-97l-53 -53h-97l-55 53v97z" />
    <glyph glyph-name="uni1E57" unicode="&#x1e57;" 
d="M862 55l-55 -55h-389l-39 39l-23 -23l39 -39v-233l-55 -55h-78l-53 55v1323l53 55h545l55 -55v-78l25 -22h78l53 -56v-700l-53 -55h-78l-25 -23v-78zM379 973l-23 -23l39 -39v-700l-39 -39l23 -22l39 38h389l24 23v700l-24 23h-389zM510 1419l55 56h97l53 -56v-96
l-53 -53h-97l-55 53v96z" />
    <glyph glyph-name="uni1E60" unicode="&#x1e60;" 
d="M831 1223l-24 22h-389l-23 -22v-389l23 -25h389l55 -53v-78l25 -25h78l53 -55v-389l-53 -53h-78l-25 -25v-78l-55 -53h-389l-53 53v78l-25 25h-78l-53 53v78l53 55h78l55 -55v-78l23 -23h389l24 23v389l-24 25h-389l-53 55v78l-25 22h-78l-53 56v389l53 55h78l25 22v78
l53 56h389l55 -56v-78l25 -22h78l53 -55v-78l-53 -55h-78l-56 55v78zM510 1731l55 55h97l53 -55v-97l-53 -53h-97l-55 53v97z" />
    <glyph glyph-name="uni1E61" unicode="&#x1e61;" 
d="M862 600l-53 55h-391l-23 23v233l23 23h391l22 -23v-77l56 -56h78l53 56v77l-53 56h-78l-25 22v78l-53 55h-391l-53 -55v-78l-25 -22h-78l-53 -56v-233l53 -55h78l25 -23v-78l53 -55h391l22 -23v-233l-22 -23h-391l-23 23v78l-55 55h-78l-53 -55v-78l53 -55h78l25 -23
v-78l53 -55h391l53 55v78l25 23h78l53 55v233l-53 56h-78l-25 22v78zM510 1419l55 56h97l53 -56v-96l-53 -53h-97l-55 53v96z" />
    <glyph glyph-name="uni1E6A" unicode="&#x1e6a;" 
d="M520 1223l39 39l-24 22l-39 -39h-234l-53 55v78l53 56h703l53 -56v-78l-53 -55h-234l-41 39l-22 -22l39 -39v-1170l-56 -53h-78l-53 53v1170zM510 1731l55 55h97l53 -55v-97l-53 -53h-97l-55 53v97z" />
    <glyph glyph-name="uni1E6B" unicode="&#x1e6b;" 
d="M520 55l55 -55h234l53 55v78l25 23h78l53 55v78l-53 55h-78l-56 -55v-78l-22 -23h-234l-24 23v700l-39 39l23 23l40 -39h234l53 55v78l-53 55h-234l-40 -39l-23 23l39 39v78l-55 55h-78l-53 -55v-78l38 -39l-24 -23l-39 39h-78l-53 -55v-78l53 -55h78l39 39l24 -23
l-38 -39v-700l53 -55h78l24 -23v-78zM510 1583l55 55h97l53 -55v-96l-53 -53h-97l-55 53v96z" />
    <glyph glyph-name="Wgrave" unicode="&#x1e80;" 
d="M627 1747v-53l16 -17h55l37 -39v-55l-37 -39h-55l-39 39v55l-16 17h-56l-38 39v53l38 39h56zM831 209v1169l56 56h78l53 -56v-1169l-53 -53h-78l-25 -25v-78l-55 -53h-76l-55 53v78l-25 25h-78l-22 -25v-78l-55 -53h-78l-53 53v78l-25 25h-78l-53 53v1169l53 56h78
l55 -56v-1169l23 -23h78l24 23v389l53 55h78l56 -55v-389l24 -23h76z" />
    <glyph glyph-name="wgrave" unicode="&#x1e81;" 
d="M365 55l55 -55h76l55 55v78l24 23h78l23 -23v-78l55 -55h78l53 55v78l25 23h78l53 55v856l-53 55h-78l-56 -55v-856l-22 -23h-78l-24 23v389l-54 55h-78l-55 -55v-389l-24 -23h-76l-25 23v856l-55 55h-78l-53 -55v-856l53 -55h78l25 -23v-78zM584 1475l39 -39v-56l16 -16
h55l39 -39v-55l-39 -39h-55l-39 39v55l-16 16h-56l-36 39v56l36 39h56z" />
    <glyph glyph-name="Wacute" unicode="&#x1e82;" 
d="M602 1694v53l39 39h55l39 -39v-53l-39 -39h-55l-16 -17v-55l-39 -39h-56l-36 39v55l36 39h56zM831 209v1169l56 56h78l53 -56v-1169l-53 -53h-78l-25 -25v-78l-55 -53h-76l-55 53v78l-25 25h-78l-22 -25v-78l-55 -53h-78l-53 53v78l-25 25h-78l-53 53v1169l53 56h78
l55 -56v-1169l23 -23h78l24 23v389l53 55h78l56 -55v-389l24 -23h76z" />
    <glyph glyph-name="wacute" unicode="&#x1e83;" 
d="M602 1436l39 39h55l37 -39v-56l-37 -39h-55l-16 -16v-55l-39 -39h-56l-38 39v55l38 39h56l16 16v56zM365 55l55 -55h76l55 55v78l24 23h78l23 -23v-78l55 -55h78l53 55v78l25 23h78l53 55v856l-53 55h-78l-56 -55v-856l-22 -23h-78l-24 23v389l-54 55h-78l-55 -55v-389
l-24 -23h-76l-25 23v856l-55 55h-78l-53 -55v-856l53 -55h78l25 -23v-78z" />
    <glyph glyph-name="Wdieresis" unicode="&#x1e84;" 
d="M657 1747l39 39h54l38 -39v-164l-38 -39h-54l-39 39v164zM438 1583v164l39 39h53l39 -39v-164l-39 -39h-53zM831 209v1169l56 56h78l53 -56v-1169l-53 -53h-78l-25 -25v-78l-55 -53h-76l-55 53v78l-25 25h-78l-22 -25v-78l-55 -53h-78l-53 53v78l-25 25h-78l-53 53v1169
l53 56h78l55 -56v-1169l23 -23h78l24 23v389l53 55h78l56 -55v-389l24 -23h76z" />
    <glyph glyph-name="wdieresis" unicode="&#x1e85;" 
d="M365 55l55 -55h76l55 55v78l24 23h78l23 -23v-78l55 -55h78l53 55v78l25 23h78l53 55v856l-53 55h-78l-56 -55v-856l-22 -23h-78l-24 23v389l-54 55h-78l-55 -55v-389l-24 -23h-76l-25 23v856l-55 55h-78l-53 -55v-856l53 -55h78l25 -23v-78zM657 1436l39 39h54l38 -39
v-166l-38 -39h-54l-39 39v166zM438 1270v166l39 39h53l39 -39v-166l-39 -39h-53z" />
    <glyph glyph-name="Ygrave" unicode="&#x1ef2;" 
d="M627 1747v-53l16 -17h55l37 -39v-55l-37 -39h-55l-39 39v55l-16 17h-56l-38 39v53l38 39h56zM831 989v389l56 56h78l55 -56v-389l-55 -55h-78l-25 -23v-77l-53 -56h-78l-24 -22v-701l-54 -55h-78l-55 55v701l-22 22h-78l-55 56v77l-25 23h-76l-55 55v389l55 56h76l55 -56
v-389l25 -22h78l53 -56v-77l24 -23h78l23 23v77l55 56h78z" />
    <glyph glyph-name="ygrave" unicode="&#x1ef3;" 
d="M831 -23l39 39l-22 23l-39 -39h-389l-55 55v78l-25 23h-78l-53 55v856l53 55h78l55 -55v-856l25 -23h389l39 -38l22 22l-39 39v856l56 55h78l53 -55v-1167l-53 -56h-78l-25 -22v-78l-53 -55h-389l-55 55v78l55 55h389l22 23v77zM584 1475l39 -39v-56l16 -16h55l39 -39
v-55l-39 -39h-55l-39 39v55l-16 16h-56l-36 39v56l36 39h56z" />
    <glyph glyph-name="endash" unicode="&#x2013;" 
d="M1042 623h-858l-53 55v78l53 55h858l54 -55v-78z" />
    <glyph glyph-name="emdash" unicode="&#x2014;" 
d="M1120 623h-1014l-53 55v78l53 55h1014l56 -55v-78z" />
    <glyph glyph-name="quoteleft" unicode="&#x2018;" 
d="M629 1145l-39 -39l24 -23l39 39h78l53 -55v-78l-53 -55h-78l-39 39l-39 -39h-77l-56 55v78l39 39l-39 39v78l56 55h77l23 22v78l55 56h78l53 -56v-78l-53 -55h-78l-24 -22v-78z" />
    <glyph glyph-name="quoteright" unicode="&#x2019;" 
d="M598 1223l39 39l-25 22l-39 -39h-77l-54 55v78l54 56h77l39 -39l39 39h78l55 -56v-78l-39 -38l39 -39v-78l-55 -55h-78l-22 -23v-78l-56 -55h-77l-54 55v78l54 55h77l25 23v78z" />
    <glyph glyph-name="quotesinglbase" unicode="&#x201a;" 
d="M598 133l39 39l-25 23l-39 -39h-77l-54 55v78l54 55h77l39 -39l39 39h78l55 -55v-78l-39 -39l39 -39v-78l-55 -55h-78l-22 -23v-77l-56 -56h-77l-54 56v77l54 56h77l25 22v78z" />
    <glyph glyph-name="quotedblleft" unicode="&#x201c;" 
d="M395 1223v-78l-39 -39l23 -25l39 41h78l55 -55v-78l-55 -55h-78l-39 39l-39 -39h-78l-53 55v78l39 39l-39 39v78l53 55h78l25 22v78l53 56h78l55 -56v-78l-55 -55h-78zM862 1223v-78l-39 -39l25 -25l39 41h78l53 -55v-78l-53 -55h-78l-39 39l-41 -39h-76l-55 55v78l39 39
l-39 39v78l55 55h76l24 22v78l56 56h78l53 -56v-78l-53 -55h-78z" />
    <glyph glyph-name="quotedblright" unicode="&#x201d;" 
d="M831 1223l39 39l-22 24l-39 -41h-78l-55 55v78l55 56h78l39 -39l39 39h78l53 -56v-78l-39 -38l39 -39v-78l-53 -55h-78l-25 -23v-78l-53 -55h-78l-55 55v78l55 55h78l22 23v78zM365 1223l38 39l-24 24l-39 -41h-78l-53 55v78l53 56h78l39 -39l41 39h76l55 -56v-78
l-39 -38l39 -39v-78l-55 -55h-76l-25 -23v-78l-55 -55h-78l-53 55v78l53 55h78l25 23v78z" />
    <glyph glyph-name="quotedblbase" unicode="&#x201e;" 
d="M831 133l39 39l-22 25l-39 -41h-78l-55 55v78l55 55h78l39 -39l39 39h78l53 -55v-78l-39 -39l39 -39v-78l-53 -55h-78l-25 -23v-77l-53 -56h-78l-55 56v77l55 56h78l22 22v78zM365 133l38 39l-24 25l-39 -41h-78l-53 55v78l53 55h78l39 -39l41 39h76l55 -55v-78l-39 -39
l39 -39v-78l-55 -55h-76l-25 -23v-77l-55 -56h-78l-53 56v77l53 56h78l25 22v78z" />
    <glyph glyph-name="dagger" unicode="&#x2020;" 
d="M520 1145v233l55 56h78l54 -56v-233l-39 -39l24 -23l39 39h234l53 -55v-78l-53 -55h-234l-39 39l-24 -23l39 -39v-856l-54 -55h-78l-55 55v856l39 39l-22 23l-41 -39h-234l-53 55v78l53 55h234l41 -39l22 23z" />
    <glyph glyph-name="daggerdbl" unicode="&#x2021;" 
d="M520 1145v233l55 56h78l54 -56v-233l-39 -39l24 -23l39 39h234l53 -55v-78l-53 -55h-234l-39 39l-24 -23l39 -39v-389l-39 -39l24 -22l39 39h234l53 -56v-77l-53 -56h-234l-39 39l-24 -22l39 -39v-234l-54 -55h-78l-55 55v234l39 39l-22 22l-41 -39h-234l-53 56v77l53 56
h234l41 -39l22 22l-39 39v389l39 39l-22 23l-41 -39h-234l-53 55v78l53 55h234l41 -39l22 23z" />
    <glyph glyph-name="bullet" unicode="&#x2022;" 
d="M365 600l38 39l-38 39v78l38 39l-38 39v77l55 56h76l41 -39l38 39h78l39 -39l39 39h78l53 -56v-77l-39 -39l39 -39v-78l-39 -39l39 -39v-78l-53 -55h-78l-39 39l-39 -39h-78l-38 39l-41 -39h-76l-55 55v78zM537 772l22 23l-22 22l-25 -22zM692 616l23 23l-23 23l-24 -23z
M537 616l22 23l-22 23l-25 -23zM692 817l-24 -22l24 -23l23 23z" />
    <glyph glyph-name="ellipsis" unicode="&#x2026;" 
d="M831 55v234l56 55h78l53 -55v-234l-53 -55h-78zM209 289l53 55h78l55 -55v-234l-55 -55h-78l-53 55v234zM520 289l55 55h76l56 -55v-234l-56 -55h-76l-55 55v234z" />
    <glyph glyph-name="perthousand" unicode="&#x2030;" 
d="M831 1378l56 56h78l53 -56v-233l-678 -678h-78l-53 55v78l661 662l-39 38v78zM848 39l-39 -39h-78l-55 55v78l39 39l-39 39v78l55 55h78l39 -39l39 39h78l53 -55v-78l-39 -39l39 -39v-78l-53 -55h-78zM381 1128l-41 -38h-78l-53 55v78l39 39l-39 38v78l53 56h78l41 -39
l39 39h76l55 -56v-78l-39 -38l39 -39v-78l-55 -55h-76zM381 39l-41 -39h-78l-53 55v78l39 39l-39 39v78l53 55h78l41 -39l39 39h76l55 -55v-78l-39 -39l39 -39v-78l-55 -55h-76zM381 1286l-25 -24l25 -23l22 23zM848 195l-25 -23l25 -22l22 22zM381 195l-25 -23l25 -22
l22 22z" />
    <glyph glyph-name="guilsinglleft" unicode="&#x2039;" 
d="M520 911l55 56h78l23 22v78l55 55h78l53 -55v-78l-53 -55h-78l-24 -23v-77l-54 -56h-78l-24 -22v-234l24 -22h78l54 -56v-77l24 -23h78l53 -55v-78l-53 -55h-78l-55 55v78l-23 22h-78l-55 56v77l-24 23h-76l-55 55v234l55 55h76l24 23v77z" />
    <glyph glyph-name="guilsinglright" unicode="&#x203a;" 
d="M707 911v-77l24 -23h76l55 -55v-234l-55 -55h-76l-24 -23v-77l-56 -56h-78l-22 -22v-78l-55 -55h-78l-53 55v78l53 55h78l24 23v77l53 56h78l25 22v234l-25 22h-78l-53 56v77l-24 23h-78l-53 55v78l53 55h78l55 -55v-78l22 -22h78z" />
    <glyph glyph-name="fraction" unicode="&#x2044;" 
d="M365 600l366 367h78l22 22v389l56 56h78l53 -56v-389l-53 -55h-78l-25 -23v-77l-366 -367h-76l-25 -23v-389l-55 -55h-78l-53 55v389l53 56h78l25 22v78z" />
    <glyph glyph-name="zerosuperior" unicode="&#x2070;" 
d="M532 1434h162l23 -23v-33l10 -10h31l24 -22v-420l-24 -23h-31l-10 -8v-33l-23 -22h-162l-22 22v33l-10 8h-31l-25 23v420l25 22h31l10 10v33zM694 1356h-162l-10 -10v-226l-14 -16l8 -10l146 145h32l17 -14l8 8l-14 16v97zM516 1049l-8 -9l14 -16v-98l10 -8h162l11 8v227
l14 16l-8 9l-146 -146h-33z" />
    <glyph glyph-name="foursuperior" unicode="&#x2074;" 
d="M522 1186l10 -10h162l17 -17l8 10l-14 17v225l22 23h31l24 -23v-549l-24 -22h-31l-22 22v225l14 17l-8 10l-17 -16h-162l-22 22v33l-10 8h-31l-25 25v225l25 23h31l22 -23v-225z" />
    <glyph glyph-name="fivesuperior" unicode="&#x2075;" 
d="M717 862l-23 -22h-162l-22 22v33l-10 8h-31l-25 23v32l25 23h31l22 -23v-32l10 -8h162l11 8v161l-11 11h-162l-22 22v33l-10 8h-31l-25 25v225l25 23h289l24 -23v-33l-24 -22h-226l-16 16l-8 -10l14 -16v-160l10 -10h162l23 -23v-33l10 -10h31l24 -23v-161l-24 -23h-31
l-10 -8v-33z" />
    <glyph glyph-name="sixsuperior" unicode="&#x2076;" 
d="M694 1434l23 -23v-33l10 -10h31l24 -22v-31l-24 -23h-31l-22 23v31l-11 10h-162l-10 -10v-160l-14 -17l8 -10l16 17h162l23 -23v-33l10 -10h31l24 -23v-161l-24 -23h-31l-10 -8v-33l-23 -22h-162l-22 22v33l-10 8h-31l-25 23v420l25 22h31l10 10v33l22 23h162zM532 918
h162l11 8v161l-11 11h-162l-16 16l-8 -10l14 -17v-161z" />
    <glyph glyph-name="sevensuperior" unicode="&#x2077;" 
d="M639 1282l23 23h32l11 10v31l14 16l-8 10l-17 -16h-225l-25 22v33l25 23h289l24 -23v-96l-24 -23h-31l-10 -10v-33l-23 -22h-32l-11 -10v-355l-22 -22h-31l-25 22v355l25 22h31l10 10v33z" />
    <glyph glyph-name="eightsuperior" unicode="&#x2078;" 
d="M717 862l-23 -22h-162l-22 22v33l-10 8h-31l-25 23v161l25 23h31l10 10v33l-10 8h-31l-25 25v160l25 22h31l10 10v33l22 23h162l23 -23v-33l10 -10h31l24 -22v-160l-24 -25h-31l-10 -8v-33l10 -10h31l24 -23v-161l-24 -23h-31l-10 -8v-33zM705 1087l-11 11h-162l-10 -11
v-161l10 -8h162l11 8v161zM694 1356h-162l-10 -10v-160l10 -10h162l11 10v160z" />
    <glyph glyph-name="ninesuperior" unicode="&#x2079;" 
d="M717 862l-23 -22h-162l-22 22v33l-10 8h-31l-25 23v32l25 23h31l22 -23v-32l10 -8h162l11 8v161l14 17l-8 10l-17 -16h-162l-22 22v33l-10 8h-31l-25 25v160l25 22h31l10 10v33l22 23h162l23 -23v-33l10 -10h31l24 -22v-420l-24 -23h-31l-10 -8v-33zM719 1169l-14 17v160
l-11 10h-162l-10 -10v-160l10 -10h162l17 -17z" />
    <glyph glyph-name="zeroinferior" unicode="&#x2080;" 
d="M532 594h162l23 -23v-32l10 -9h31l24 -22v-420l-24 -22h-31l-10 -11v-32l-23 -23h-162l-22 23v32l-10 11h-31l-25 22v420l25 22h31l10 9v32zM516 209l-8 -8l14 -17v-96l10 -10h162l11 10v225l14 17l-8 10l-146 -145h-33zM694 516h-162l-10 -8v-227l-14 -17l8 -8l146 145
h32l17 -16l8 8l-14 17v98z" />
    <glyph glyph-name="oneinferior" unicode="&#x2081;" 
d="M582 469l-17 -16h-33l-22 22v33l22 22h33l17 -16l8 8l-17 17v32l25 23h31l22 -23v-483l-14 -16l8 -11l17 17h32l23 -23v-32l-23 -23h-162l-22 23v32l22 23h33l17 -17l8 11l-17 16v354l17 17z" />
    <glyph glyph-name="twoinferior" unicode="&#x2082;" 
d="M715 571v-32l10 -9h31l22 -22v-98l-22 -23h-31l-10 -8v-33l-152 -151h-33l-10 -11v-96l-16 -16l10 -11l16 17h226l22 -23v-32l-22 -23h-291l-23 23v161l23 23h33l10 10v31l151 153h33l8 9v98l-8 8h-162l-10 -8v-33l-22 -22h-33l-23 22v33l23 22h33l10 9v32l22 23h162z
" />
    <glyph glyph-name="threeinferior" unicode="&#x2083;" 
d="M717 23l-23 -23h-162l-22 23v32l-10 11h-31l-25 22v31l25 24h31l22 -24v-31l10 -10h162l11 10v160l-11 10h-162l-22 23v32l22 23h162l11 10v162l-11 8h-162l-10 -8v-33l-22 -22h-31l-25 22v33l25 22h31l10 9v32l22 23h162l23 -23v-32l10 -9h31l24 -22v-162l-24 -22h-31
l-10 -11v-32l10 -9h31l24 -24v-160l-24 -22h-31l-10 -11v-32z" />
    <glyph glyph-name="fourinferior" unicode="&#x2084;" 
d="M522 346l10 -10h162l17 -17l8 11l-14 16v225l22 23h31l24 -23v-548l-24 -23h-31l-22 23v225l14 16l-8 10l-17 -16h-162l-22 23v32l-10 11h-31l-25 22v225l25 23h31l22 -23v-225z" />
    <glyph glyph-name="fiveinferior" unicode="&#x2085;" 
d="M717 23l-23 -23h-162l-22 23v32l-10 11h-31l-25 22v31l25 24h31l22 -24v-31l10 -10h162l11 10v160l-11 10h-162l-22 23v32l-10 11h-31l-25 22v225l25 23h289l24 -23v-32l-24 -23h-226l-16 16l-8 -10l14 -14v-162l10 -10h162l23 -23v-32l10 -9h31l24 -24v-160l-24 -22h-31
l-10 -11v-32z" />
    <glyph glyph-name="sixinferior" unicode="&#x2086;" 
d="M694 594l23 -23v-32l10 -9h31l24 -22v-33l-24 -22h-31l-22 22v33l-11 8h-162l-10 -8v-162l-14 -16l8 -11l16 17h162l23 -23v-32l10 -9h31l24 -24v-160l-24 -22h-31l-10 -11v-32l-23 -23h-162l-22 23v32l-10 11h-31l-25 22v420l25 22h31l10 9v32l22 23h162zM532 78h162
l11 10v160l-11 10h-162l-16 16l-8 -10l14 -16v-160z" />
    <glyph glyph-name="seveninferior" unicode="&#x2087;" 
d="M639 442l23 23h32l11 10v33l14 14l-8 10l-17 -16h-225l-25 23v32l25 23h289l24 -23v-96l-24 -22h-31l-10 -11v-32l-23 -23h-32l-11 -8v-356l-22 -23h-31l-25 23v356l25 22h31l10 9v32z" />
    <glyph glyph-name="eightinferior" unicode="&#x2088;" 
d="M717 23l-23 -23h-162l-22 23v32l-10 11h-31l-25 22v160l25 24h31l10 9v32l-10 11h-31l-25 22v162l25 22h31l10 9v32l22 23h162l23 -23v-32l10 -9h31l24 -22v-162l-24 -22h-31l-10 -11v-32l10 -9h31l24 -24v-160l-24 -22h-31l-10 -11v-32zM694 516h-162l-10 -8v-162
l10 -10h162l11 10v162zM705 248l-11 10h-162l-10 -10v-160l10 -10h162l11 10v160z" />
    <glyph glyph-name="nineinferior" unicode="&#x2089;" 
d="M717 23l-23 -23h-162l-22 23v32l-10 11h-31l-25 22v31l25 24h31l22 -24v-31l10 -10h162l11 10v160l14 16l-8 10l-17 -16h-162l-22 23v32l-10 11h-31l-25 22v162l25 22h31l10 9v32l22 23h162l23 -23v-32l10 -9h31l24 -22v-420l-24 -22h-31l-10 -11v-32zM719 330l-14 16
v162l-11 8h-162l-10 -8v-162l10 -10h162l17 -17z" />
    <glyph glyph-name="dong" unicode="&#x20ab;" 
d="M418 0l-53 55v78l-25 23h-78l-53 55v545l53 55h78l25 23v77l53 56h391l39 -39l22 22l-39 39v78l39 39l-22 22l-39 -38h-234l-55 55v78l55 55h234l39 -39l22 23l-39 38v78l56 56h78l53 -56v-78l-39 -38l25 -23l38 39h78l54 -55v-78l-54 -55h-78l-38 38l-25 -22l39 -39
v-1012l-53 -55h-547zM418 188h391l39 -38l22 22l-39 39v545l39 39l-22 22l-39 -39h-391l-23 -22v-545zM860 -281h-493l-39 39v56l39 39h493l39 -39v-56z" />
    <glyph glyph-name="Euro" unicode="&#x20ac;" 
d="M520 55v78l-24 23h-76l-55 55v233l38 39l-24 23l-39 -39h-78l-53 55v78l53 55h78l39 -39l24 23l-38 39v78l38 39l-24 22l-39 -39h-78l-53 56v77l53 56h78l39 -39l24 22l-38 39v234l55 55h76l24 22v78l55 56h234l53 -56v-78l25 -22h78l53 -55v-78l-53 -55h-78l-56 55v78
l-22 22h-234l-24 -22v-234l-39 -39l25 -22l38 39h234l53 -56v-77l-53 -56h-234l-38 39l-25 -22l39 -39v-78l-39 -39l25 -23l38 39h234l53 -55v-78l-53 -55h-234l-38 39l-25 -23l39 -39v-233l24 -23h234l22 23v78l56 55h78l53 -55v-78l-53 -55h-78l-25 -23v-78l-53 -55h-234z
" />
    <glyph glyph-name="trademark" unicode="&#x2122;" 
d="M252 1411l22 23h291l23 -23v-33l-23 -22h-96l-16 16l-11 -10l17 -16v-355l-23 -22h-33l-22 22v355l16 16l-10 10l-16 -16h-97l-22 22v33zM768 1217l16 16l-16 16v33l-10 10h-31l-16 15l-11 -9l17 -16v-291l-23 -22h-32l-23 22v420l23 23h32l23 -23v-33l-17 -16l11 -8
l16 14h31l24 -22v-31l9 -10h32l11 10v31l22 22h31l16 -14l10 8l-16 16v33l23 23h32l23 -23v-420l-23 -22h-32l-23 22v291l16 16l-10 9l-16 -15h-31l-10 -10v-33l-17 -16l17 -16v-31l-23 -25h-32l-23 25v31z" />
    <glyph glyph-name="arrowleft" unicode="&#x2190;" 
d="M512 639l39 -39v-78l22 -22h78l56 -56v-77l-56 -56h-78l-53 56v77l-24 23h-78l-209 211v78l209 211h78l24 22v78l53 55h78l56 -55v-78l-56 -55h-78l-22 -23v-77l-39 -39l23 -23l38 39h392l53 -55v-78l-53 -55h-392l-38 39z" />
    <glyph glyph-name="arrowup" unicode="&#x2191;" 
d="M809 778h-78l-39 39l-24 -22l39 -39v-389l-54 -56h-78l-55 56v389l39 39l-22 22l-41 -39h-76l-25 -22v-78l-55 -55h-78l-53 55v78l53 55h78l25 23v77l210 211h78l209 -211v-77l25 -23h78l53 -55v-78l-53 -55h-78l-56 55v78z" />
    <glyph glyph-name="arrowright" unicode="&#x2192;" 
d="M676 600l39 39l-23 23l-39 -39h-391l-53 55v78l53 55h391l39 -39l23 23l-39 39v77l-23 23h-78l-55 55v78l55 55h78l54 -55v-78l24 -22h78l209 -211v-78l-209 -211h-78l-24 -23v-77l-54 -56h-78l-55 56v77l55 56h78l23 22v78z" />
    <glyph glyph-name="arrowdown" unicode="&#x2193;" 
d="M731 655h78l22 23v78l56 55h78l53 -55v-78l-53 -55h-78l-25 -23v-78l-209 -211h-78l-210 211v78l-25 23h-78l-53 55v78l53 55h78l55 -55v-78l25 -23h76l41 -39l22 23l-39 39v389l55 55h78l54 -55v-389l-39 -39l24 -23z" />
    <glyph glyph-name="arrowboth" unicode="&#x2194;" 
d="M831 600l39 39l-22 23l-39 -39h-389l-39 39l-25 -23l39 -39v-78l25 -22h78l53 -56v-77l-55 -56h-76l-55 56v77l-25 23h-78l-209 211v78l209 211h78l25 22v78l55 55h76l55 -55v-78l-53 -55h-78l-25 -23v-77l-39 -39l25 -23l39 39h389l39 -39l22 23l-39 39v77l-22 23h-78
l-55 55v78l55 55h78l53 -55v-78l25 -22h78l211 -211v-78l-211 -211h-78l-25 -23v-77l-53 -56h-78l-55 56v77l55 56h78l22 22v78z" />
    <glyph glyph-name="arrowupdn" unicode="&#x2195;" 
d="M496 500l41 -39l22 22l-39 39v389l39 39l-22 23l-41 -39h-76l-25 -23v-77l-55 -56h-78l-53 56v77l53 56h78l25 22v78l210 211h78l209 -211v-78l25 -22h78l53 -56v-77l-53 -56h-78l-56 56v77l-22 23h-78l-39 39l-24 -23l39 -39v-389l-39 -39l24 -22l39 39h78l22 22v78
l56 55h78l53 -55v-78l-53 -55h-78l-25 -23v-77l-209 -211h-78l-210 211v77l-25 23h-78l-53 55v78l53 55h78l55 -55v-78l25 -22h76z" />
    <glyph glyph-name="uni2196" unicode="&#x2196;" 
d="M940 367l-55 -56h-76l-352 351l-23 -23l39 -39v-78l-39 -39l39 -39v-77l-55 -56h-78l-53 56v77l39 39l-39 39v389l53 56h389l39 -39l41 39h76l55 -56v-77l-55 -56h-76l-41 39l-39 -39h-76l-41 39l-22 -22l350 -351v-77z" />
    <glyph glyph-name="uni2197" unicode="&#x2197;" 
d="M342 311l-55 56v77l350 351l-23 22l-41 -39h-75l-39 39l-41 -39h-76l-55 56v77l55 56h76l41 -39l39 39h389l53 -56v-389l-39 -39l39 -39v-77l-53 -56h-78l-55 56v77l39 39l-39 39v78l39 39l-23 23l-352 -351h-76z" />
    <glyph glyph-name="uni2198" unicode="&#x2198;" 
d="M287 911l55 56h76l352 -351l23 23l-39 39v78l39 39l-39 39v77l55 56h78l53 -56v-77l-39 -39l39 -39v-389l-53 -56h-389l-39 39l-41 -39h-76l-55 56v77l55 56h76l41 -39l39 39h75l41 -39l23 22l-350 351v77z" />
    <glyph glyph-name="uni2199" unicode="&#x2199;" 
d="M885 967l55 -56v-77l-350 -351l22 -22l41 39h76l39 -39l41 39h76l55 -56v-77l-55 -56h-76l-41 39l-39 -39h-389l-53 56v389l39 39l-39 39v77l53 56h78l55 -56v-77l-39 -39l39 -39v-78l-39 -39l23 -23l352 351h76z" />
    <glyph glyph-name="uni21B0" unicode="&#x21b0;" 
d="M551 911v-77l-39 -39l23 -23l38 39h392l53 -55v-389l-53 -56h-78l-56 56v233l39 39l-22 23l-41 -39h-234l-38 39l-23 -23l39 -39v-78l22 -22h78l56 -56v-77l-56 -56h-78l-53 56v77l-24 23h-78l-209 211v78l209 211h78l24 22v78l53 55h78l56 -55v-78l-56 -55h-78z" />
    <glyph glyph-name="uni21B1" unicode="&#x21b1;" 
d="M676 834v77l-23 23h-78l-55 55v78l55 55h78l54 -55v-78l24 -22h78l209 -211v-78l-209 -211h-78l-24 -23v-77l-54 -56h-78l-55 56v77l55 56h78l23 22v78l39 39l-23 23l-39 -39h-233l-41 39l-23 -23l39 -39v-233l-55 -56h-78l-53 56v389l53 55h391l39 -39l23 23z" />
    <glyph glyph-name="uni21B2" unicode="&#x21b2;" 
d="M551 600v-78l22 -22h78l56 -56v-77l-56 -56h-78l-53 56v77l-24 23h-78l-209 211v78l209 211h78l24 22v78l53 55h78l56 -55v-78l-56 -55h-78l-22 -23v-77l-39 -39l23 -23l38 39h234l41 -39l22 23l-39 39v233l56 55h78l53 -55v-389l-53 -55h-392l-38 39l-23 -23z" />
    <glyph glyph-name="uni21B3" unicode="&#x21b3;" 
d="M676 522v78l39 39l-23 23l-39 -39h-391l-53 55v389l53 55h78l55 -55v-233l-39 -39l23 -23l41 39h233l39 -39l23 23l-39 39v77l-23 23h-78l-55 55v78l55 55h78l54 -55v-78l24 -22h78l209 -211v-78l-209 -211h-78l-24 -23v-77l-54 -56h-78l-55 56v77l55 56h78z" />
    <glyph glyph-name="uni21B4" unicode="&#x21b4;" 
d="M731 655h78l22 23v78l56 55h78l53 -55v-78l-53 -55h-78l-25 -23v-78l-209 -211h-78l-210 211v78l-25 23h-78l-53 55v78l53 55h78l55 -55v-78l25 -23h76l41 -39l22 23l-39 39v233l39 39l-22 23l-41 -39h-234l-53 55v78l53 55h391l54 -55v-389l-39 -39l24 -23z" />
    <glyph glyph-name="minus" unicode="&#x2212;" 
d="M965 623h-703l-53 55v78l53 55h703l53 -55v-78z" />
    <glyph glyph-name="congruent" unicode="&#x2245;" 
d="M365 1067l55 55h233l54 -55v-78l24 -22h78l22 22v78l56 55h78l53 -55v-78l-53 -55h-78l-25 -23v-77l-53 -56h-78l-55 56v77l-23 23h-233l-25 -23v-77l-55 -56h-78l-53 56v77l53 56h78l25 22v78zM965 467h-703l-53 55v78l53 55h703l53 -55v-78zM965 156h-703l-53 55v78
l53 55h703l53 -55v-78z" />
    <glyph glyph-name="approxequal" unicode="&#x2248;" 
d="M365 1067l55 55h233l54 -55v-78l24 -22h78l22 22v78l56 55h78l53 -55v-78l-53 -55h-78l-25 -23v-77l-53 -56h-78l-55 56v77l-23 23h-233l-25 -23v-77l-55 -56h-78l-53 56v77l53 56h78l25 22v78zM365 600l55 55h233l54 -55v-78l24 -22h78l22 22v78l56 55h78l53 -55v-78
l-53 -55h-78l-25 -23v-77l-53 -56h-78l-55 56v77l-23 23h-233l-25 -23v-77l-55 -56h-78l-53 56v77l53 56h78l25 22v78z" />
    <glyph glyph-name="notequal" unicode="&#x2260;" 
d="M520 989v78l55 55h78l54 -55v-78l-39 -39l24 -22l39 39h234l53 -56v-77l-53 -56h-234l-39 39l-24 -22l39 -39v-78l-39 -39l24 -23l39 39h234l53 -55v-78l-53 -55h-234l-39 39l-24 -23l39 -39v-77l-54 -56h-78l-55 56v77l39 39l-22 23l-41 -39h-234l-53 55v78l53 55h234
l41 -39l22 23l-39 39v78l39 39l-22 22l-41 -39h-234l-53 56v77l53 56h234l41 -39l22 22z" />
    <glyph glyph-name="equivalence" unicode="&#x2261;" 
d="M965 156h-703l-53 55v78l53 55h703l53 -55v-78zM965 778h-703l-53 56v77l53 56h703l53 -56v-77zM965 467h-703l-53 55v78l53 55h703l53 -55v-78z" />
    <glyph glyph-name="lessequal" unicode="&#x2264;" 
d="M287 133l55 55h545l53 -55v-78l-53 -55h-545l-55 55v78zM442 1067l367 367h78l53 -56v-78l-367 -366h-75l-25 -23v-77l25 -23h75l367 -367v-77l-53 -56h-78l-367 367v78l-24 22h-76l-55 56v77l55 56h76l24 22v78z" />
    <glyph glyph-name="greaterequal" unicode="&#x2265;" 
d="M940 133v-78l-55 -55h-545l-53 55v78l53 55h545zM784 1067v-78l25 -22h76l55 -56v-77l-55 -56h-76l-25 -22v-78l-366 -367h-78l-53 56v77l366 367h76l25 23v77l-25 23h-76l-366 366v78l53 56h78z" />
    <glyph glyph-name="smileface" unicode="&#x263a;" 
d="M924 350l-31 -31h-43l-12 -12v-43l-31 -31h-387l-31 31v43l-12 12h-43l-31 31v43l-12 13h-43l-31 30v43l-12 15h-45l-29 28v389l29 31h45l12 12v43l31 31h43l12 12v43l31 31h43l12 12v43l31 31h387l31 -31v-43l12 -12h43l31 -31v-43l14 -12h43l29 -31v-43l14 -12h43
l29 -31v-389l-29 -28h-43l-14 -15v-43l-29 -30h-43l-14 -13v-43zM248 924l-15 -13v-389l15 -12h43l28 -31v-43l15 -12h43l31 -31v-43l12 -12h387l14 12v43l29 31h43l14 12v43l31 31h43l12 12v389l-12 13h-43l-31 30v43l-14 13h-43l-29 30v43l-14 13h-387l-12 -13v-43
l-31 -30h-43l-15 -13v-43l-28 -30h-43zM721 406h-215l-31 30v43l-12 15h-43l-31 28v43l-12 15h-43l-31 28v131l31 29h43l31 -29v-131l12 -12h43l31 -31v-43l12 -12h215l12 12v43l31 31h43l14 12v131l29 29h43l31 -29v-131l-31 -28h-43l-12 -15v-43l-31 -28h-43l-12 -15v-43z
M647 782v129l31 31h43l31 -31v-129l-31 -30h-43zM475 782v129l31 31h43l31 -31v-129l-31 -30h-43z" />
    <glyph glyph-name="CR" 
 />
  </font>
</defs>
</svg>
